<svg width="566" height="552" viewBox="0 0 566 552" fill="none" xmlns="http://www.w3.org/2000/svg">
<path d="M563.738 267.648C557.634 204.368 525.852 141.241 498.443 106.372C382.23 -41.3982 149.073 -41.1154 37.9264 144.494C6.59284 196.838 -13.0746 313.228 10.1987 399.31C39.9768 509.489 157.321 552.395 287.817 551.44C409.745 550.439 505.619 497.423 541.478 424.174C563.973 378.369 569.842 330.927 563.738 267.648Z" fill="#37474F"/>
<path d="M37.9264 144.494C6.59284 196.838 -13.0746 313.228 10.1987 399.31C15.1066 417.793 23.0082 435.348 33.5899 451.277L163.213 376.484L273.629 312.745L532.946 162.947C522.152 140.558 509.92 120.973 498.455 106.384C382.23 -41.398 149.073 -41.1152 37.9264 144.494Z" fill="#263238"/>
<path opacity="0.2" d="M347.68 362.037V347.496L326.681 335.37V320.829L305.682 308.691V294.162L284.694 282.036L193.958 331.529L217.526 345.068V359.61L238.525 371.724V386.277L259.524 398.391V412.944L351.509 545.879C442.599 530.501 512.136 484.119 541.478 424.174C544.872 417.245 547.893 410.265 550.54 403.234L347.68 362.037Z" fill="#BA68C8"/>
<path opacity="0.15" d="M218.339 78.5508C156.944 113.903 107.169 208.646 107.169 290.214C107.169 338.681 124.751 371.594 151.948 382.907L163.178 376.425L273.594 312.686L285.107 306.04C312.104 263.559 329.556 210.59 329.556 162.276C329.508 80.7309 279.745 43.2344 218.339 78.5508Z" fill="#BA68C8"/>
<path opacity="0.15" d="M218.339 102.142C166.749 131.838 124.928 211.45 124.928 279.997C124.928 348.545 166.749 380.055 218.339 350.383C269.929 320.711 311.762 241.063 311.762 172.516C311.762 103.969 269.941 72.4587 218.339 102.142Z" fill="#BA68C8"/>
<path opacity="0.15" d="M218.339 118.769C173.819 144.482 137.725 213.441 137.725 272.797C137.725 332.153 173.819 359.456 218.339 333.756C262.858 308.055 298.953 239.083 298.953 179.716C298.953 120.348 262.87 93.0449 218.339 118.769Z" fill="#BA68C8"/>
<path d="M170.802 275.614C170.802 224.189 202.076 164.444 240.645 142.161C257.65 132.357 273.216 131.449 285.318 137.907L269.634 128.833C257.379 121.763 241.352 122.352 223.865 132.463C185.273 154.746 154.01 214.491 154.01 265.916C154.01 294.068 163.378 313.888 178.19 322.42C180.724 323.869 190.139 329.325 193.981 331.541C179.711 322.691 170.802 303.129 170.802 275.614Z" fill="#BA68C8"/>
<path opacity="0.3" d="M170.802 275.614C170.802 224.189 202.076 164.444 240.645 142.161C257.65 132.357 273.216 131.449 285.318 137.907L269.634 128.833C257.379 121.763 241.352 122.352 223.865 132.463C185.273 154.746 154.01 214.491 154.01 265.916C154.01 294.068 163.378 313.888 178.19 322.42C180.724 323.869 190.139 329.325 193.981 331.541C179.711 322.691 170.802 303.129 170.802 275.614Z" fill="white"/>
<path d="M268.09 152.943C274.183 161.074 277.447 174.013 276.716 190.84C274.96 232.084 249.872 281.152 220.695 300.348C211.834 306.181 203.597 308.597 196.503 307.949C205.364 319.733 220.212 321.418 237.487 310.046C266.676 290.85 291.764 241.817 293.52 200.526C294.722 171.797 284.329 154.392 268.09 152.943Z" fill="#BA68C8"/>
<path opacity="0.15" d="M268.09 152.943C274.183 161.074 277.447 174.013 276.716 190.84C274.96 232.084 249.872 281.152 220.695 300.348C211.834 306.181 203.597 308.597 196.503 307.949C205.364 319.733 220.212 321.418 237.487 310.046C266.676 290.85 291.764 241.817 293.52 200.526C294.722 171.797 284.329 154.392 268.09 152.943Z" fill="black"/>
<path d="M188.596 165.575L205.388 175.273L206.731 173.47L189.939 163.749C189.479 164.373 189.043 164.927 188.596 165.575Z" fill="#BA68C8"/>
<path d="M180.889 221.738L164.038 212.063C163.802 212.711 163.578 213.383 163.354 214.043L180.147 223.741C180.382 223.057 180.594 222.386 180.889 221.738Z" fill="#BA68C8"/>
<path d="M257.485 124.555L274.289 134.289C274.973 134.407 275.656 134.524 276.328 134.666L259.524 124.968C258.852 124.791 258.169 124.661 257.485 124.555Z" fill="#BA68C8"/>
<path d="M173.171 250.219C173.301 249.489 173.442 248.746 173.584 248.016L156.791 238.317C156.638 239.048 156.497 239.779 156.367 240.521L173.171 250.219Z" fill="#BA68C8"/>
<path d="M205.105 146.721L221.898 156.419C222.475 155.865 223.076 155.311 223.642 154.781L206.814 145.083C206.26 145.613 205.636 146.167 205.105 146.721Z" fill="#BA68C8"/>
<path d="M173.254 298.698C173.101 298.05 172.959 297.39 172.818 296.73L172.688 296.436L155.979 286.785C156.132 287.539 156.285 288.281 156.462 289.012L173.254 298.698Z" fill="#BA68C8"/>
<path d="M242.837 124.991C242.13 125.133 241.399 125.321 240.681 125.498L257.485 135.196C258.215 135.008 258.946 134.843 259.665 134.701L242.837 124.991Z" fill="#BA68C8"/>
<path d="M241.694 141.595L224.902 131.932C224.549 132.132 224.207 132.297 223.865 132.498L222.84 133.122L239.632 142.821L240.645 142.196L241.694 141.595Z" fill="#BA68C8"/>
<path d="M174.361 188.495L191.153 198.193L192.143 196.355L175.351 186.657C174.998 187.246 174.679 187.859 174.361 188.495Z" fill="#BA68C8"/>
<path d="M180.383 317.199C180.006 316.551 179.652 315.903 179.287 315.231L162.507 305.545C162.86 306.217 163.237 306.865 163.615 307.513L180.383 317.199Z" fill="#BA68C8"/>
<path d="M154.01 266.104L170.802 275.814V275.614C170.802 274.895 170.802 274.152 170.802 273.422L153.998 263.724C153.998 264.454 153.998 265.197 153.998 265.915L154.01 266.104Z" fill="#BA68C8"/>
<path d="M240.646 142.161C202.077 164.444 170.803 224.189 170.803 275.614C170.803 327.039 202.077 350.689 240.646 328.418C279.215 306.146 310.513 246.401 310.513 194.964C310.513 143.527 279.227 119.889 240.646 142.161ZM293.485 200.526C291.73 241.77 266.642 290.839 237.453 310.035C208.264 329.231 186.051 311.331 187.807 270.052C189.563 228.773 214.674 179.74 243.84 160.543C273.005 141.347 295.253 159.247 293.485 200.526Z" fill="#BA68C8"/>
<g opacity="0.15">
<path d="M226.352 176.063C226.917 175.439 227.471 174.802 228.049 174.189L223.63 154.781C223.041 155.312 222.451 155.854 221.886 156.407L226.352 176.063Z" fill="black"/>
<path d="M239.621 142.773V163.584C240.305 163.053 240.988 162.535 241.683 162.04V141.583L240.646 142.16L239.621 142.773Z" fill="black"/>
<path d="M253.82 155.311C254.574 155.017 255.329 154.746 256.071 154.51L259.606 134.689C258.887 134.831 258.157 134.996 257.426 135.173L253.82 155.311Z" fill="black"/>
<path d="M196.88 226.922L197.623 224.966L180.89 221.726C180.654 222.385 180.418 223.045 180.194 223.705L196.88 226.922Z" fill="black"/>
<path d="M204.811 208.528L205.754 206.642L192.131 196.343L191.153 198.193L204.811 208.528Z" fill="black"/>
<path d="M307.649 170.265L292.837 184.158C292.955 184.983 293.061 185.82 293.155 186.692L308.25 172.551C308.026 171.797 307.85 171.019 307.649 170.265Z" fill="black"/>
<path d="M188.314 263.323L170.826 273.41C170.826 274.153 170.826 274.883 170.826 275.614V275.814L188.101 265.845C188.137 265.008 188.231 264.16 188.314 263.323Z" fill="black"/>
<path d="M191.141 246.236C191.318 245.494 191.507 244.751 191.684 243.997L173.572 247.992C173.43 248.722 173.289 249.465 173.159 250.195L191.141 246.236Z" fill="black"/>
<path d="M267.737 152.931C268.456 152.99 269.151 153.073 269.835 153.19L276.34 134.607C275.656 134.466 274.973 134.336 274.277 134.218L267.737 152.931Z" fill="black"/>
<path d="M288.288 168.391C288.618 169.087 288.936 169.817 289.243 170.56L301.38 154.215C301.015 153.555 300.626 152.919 300.202 152.294L288.288 168.391Z" fill="black"/>
<path d="M279.71 157.444C280.264 157.869 280.806 158.316 281.336 158.8L290.48 141.289C289.927 140.853 289.373 140.44 288.795 140.04L279.71 157.444Z" fill="black"/>
<path d="M214.674 191.37L215.947 189.449L206.72 173.458L205.377 175.273L214.674 191.37Z" fill="black"/>
<path d="M255.305 294.114C254.751 294.762 254.127 295.387 253.62 296L258.039 315.467C258.628 314.936 259.217 314.359 259.783 313.805L255.305 294.114Z" fill="black"/>
<path d="M277.211 260.636C276.905 261.273 276.587 261.897 276.269 262.522L289.926 272.844L290.881 270.971L277.211 260.636Z" fill="black"/>
<path d="M267.242 278.289L265.97 280.221L275.22 296.247C275.668 295.646 276.127 295.069 276.564 294.444L267.242 278.289Z" fill="black"/>
<path d="M285.083 241.793C284.847 242.453 284.623 243.113 284.376 243.761L301.109 246.99C301.345 246.33 301.569 245.67 301.793 245.01L285.083 241.793Z" fill="black"/>
<path d="M290.61 222.244C290.457 222.987 290.304 223.729 290.127 224.46L308.156 220.512C308.286 219.77 308.404 219.039 308.533 218.309L290.61 222.244Z" fill="black"/>
<path d="M310.513 192.796L293.355 202.635C293.355 203.46 293.249 204.285 293.19 205.122L310.513 195.164V194.964C310.513 194.234 310.513 193.515 310.513 192.796Z" fill="black"/>
<path d="M241.683 327.793V307.006C241 307.536 240.305 308.055 239.621 308.55V329.006L240.646 328.417C240.988 328.217 241.342 327.993 241.683 327.793Z" fill="black"/>
<path d="M192.45 300.961C192.132 300.242 191.825 299.5 191.531 298.722L179.287 315.22C179.641 315.891 180.018 316.551 180.395 317.188L192.45 300.961Z" fill="black"/>
<path d="M200.852 312.568C200.31 312.12 199.779 311.649 199.261 311.142L190.069 328.724C190.611 329.172 191.165 329.596 191.731 330.008L200.852 312.568Z" fill="black"/>
<path d="M227.083 315.443C226.329 315.726 225.586 315.974 224.844 316.209L221.309 335.971C222.039 335.83 222.77 335.676 223.5 335.5L227.083 315.443Z" fill="black"/>
<path d="M212.883 317.6C212.176 317.529 211.493 317.423 210.809 317.293L204.375 335.794C205.058 335.959 205.742 336.089 206.425 336.207L212.883 317.6Z" fill="black"/>
<path d="M188.279 284.664C188.184 283.815 188.102 282.943 188.031 282.06L172.712 296.354C172.877 297.143 173.042 297.921 173.219 298.71L188.279 284.664Z" fill="black"/>
</g>
<path d="M259.5 412.956L179.676 366.869V323.233L196.48 332.931L217.502 345.08V359.622L238.501 371.736V386.289L259.5 398.403V412.956Z" fill="#263238"/>
<path d="M196.503 332.955L284.694 282.036L305.681 294.162L217.502 345.08L196.503 332.955Z" fill="#455A64"/>
<path d="M217.502 345.08V359.621L305.681 308.703V294.162L217.502 345.08Z" fill="#37474F"/>
<path d="M217.502 359.622L305.681 308.703L326.68 320.829L238.501 371.735L217.502 359.622Z" fill="#455A64"/>
<path d="M238.501 371.735V386.288L326.68 335.37V320.829L238.501 371.735Z" fill="#37474F"/>
<path d="M238.501 386.289L326.68 335.37L347.679 347.496L259.5 398.402L238.501 386.289Z" fill="#455A64"/>
<path d="M259.5 398.402V412.955L347.679 362.037V347.496L259.5 398.402Z" fill="#37474F"/>
<path d="M284.753 195.566C282.998 236.81 257.898 285.878 228.721 305.086C217.879 312.215 208.005 314.23 199.944 311.814C191.696 304.284 186.982 289.861 187.807 270.076C189.574 228.832 214.674 179.763 243.84 160.567C254.693 153.426 264.591 151.423 272.639 153.851C280.935 161.392 285.602 175.769 284.753 195.566Z" fill="#BA68C8"/>
<path opacity="0.9" d="M284.753 195.566C282.998 236.81 257.898 285.878 228.721 305.086C217.879 312.215 208.005 314.23 199.944 311.814C191.696 304.284 186.982 289.861 187.807 270.076C189.574 228.832 214.674 179.763 243.84 160.567C254.693 153.426 264.591 151.423 272.639 153.851C280.935 161.392 285.602 175.769 284.753 195.566Z" fill="white"/>
<path opacity="0.1" d="M228.59 283.945C219.481 284.999 211.053 289.285 204.834 296.024C201.474 299.629 198.735 303.766 196.727 308.267C197.696 309.535 198.772 310.718 199.944 311.802C201.679 312.309 203.465 312.618 205.27 312.721C205.741 311.543 206.095 310.306 206.507 309.115C208.545 303.574 212.177 298.758 216.945 295.275C221.713 291.793 227.405 289.798 233.304 289.542C237.346 289.436 241.352 290.167 245.371 290.485C246.962 288.729 248.517 286.95 250.084 285.017C242.967 284.652 235.625 283.238 228.59 283.945ZM226.846 223.599C235.095 224.672 244.098 225.131 251.31 220.913C259.476 216.128 263.353 206.642 267.289 198.052C270.954 190.074 275.962 181.649 283.963 178.561C282.302 167.402 278.319 159 272.627 153.815C268.745 152.698 264.652 152.524 260.69 153.308C256.697 157.879 253.789 163.293 252.182 169.146C250.296 175.745 249.636 182.756 246.608 188.896C243.524 195.069 238.289 199.901 231.89 202.483C226.846 204.486 221.367 204.969 216.005 205.794C212.265 206.346 208.568 207.157 204.94 208.221C202.141 213.781 199.647 219.489 197.469 225.32C198.916 224.58 200.421 223.961 201.97 223.47C209.972 221.007 218.598 222.539 226.846 223.599ZM235.284 182.356C237.923 177.795 238.819 172.481 240.268 167.402C240.787 165.505 241.447 163.655 242.059 161.804C240.174 163.132 238.304 164.578 236.45 166.141C233.787 172.61 231.195 179.103 226.281 183.982C223.776 186.436 220.786 188.338 217.502 189.567C216.881 189.775 216.242 189.921 215.593 190.003C214.391 191.771 213.212 193.578 212.057 195.424C214.716 195.211 217.35 194.761 219.929 194.081C226.314 192.165 231.778 187.983 235.295 182.32L235.284 182.356ZM284.776 189.508C282.471 190.703 280.384 192.276 278.601 194.163C274.218 198.971 271.861 205.205 269.174 211.144C265.427 219.605 260.537 228.219 252.394 232.602C246.973 235.513 240.61 236.244 234.518 236.409C222.91 236.727 211.127 235.23 199.779 237.717C197.333 238.251 194.942 239.012 192.638 239.991C191.852 242.811 191.165 245.62 190.575 248.416C193.218 247.018 196.014 245.93 198.907 245.176C215.675 240.934 234.258 250.243 250.32 243.997C262.104 239.39 269.28 227.688 275.066 216.447C277.423 211.863 279.957 207.019 284.022 203.979C284.336 201.175 284.556 198.394 284.682 195.636C284.835 193.456 284.859 191.441 284.823 189.473L284.776 189.508ZM242.943 258.197C233.87 258.527 224.808 257.679 215.734 257.549C211.085 257.296 206.425 257.773 201.923 258.963C197.983 260.296 194.277 262.24 190.941 264.725C189.915 265.456 188.926 266.21 187.948 266.976C187.877 268.025 187.806 269.062 187.759 270.087C187.252 282.048 188.772 292.029 191.872 299.735C193.875 297.997 195.656 296.018 197.174 293.844C203.408 285.418 209.418 276.097 218.869 271.584C229.015 266.74 240.975 268.473 252.005 266.257C256.83 265.272 261.465 263.517 265.733 261.061C267.477 257.793 269.123 254.462 270.671 251.068C270.199 251.351 269.716 251.622 269.233 251.893C261.255 256.265 252.052 257.832 242.99 258.162L242.943 258.197Z" fill="#BA68C8"/>
<path d="M305.34 122.941C305.34 126.947 304.586 130.506 299.684 131.366C304.704 131.579 305.057 134.902 305.34 139.545C305.505 134.937 305.941 131.579 310.489 131.366C305.799 130.589 305.34 126.947 305.34 122.941Z" fill="#BA68C8"/>
<path d="M190.965 336.242C190.965 340.249 190.211 343.807 185.309 344.668C190.329 344.88 190.682 348.203 190.965 352.846C191.13 348.226 191.566 344.88 196.114 344.668C191.401 343.878 190.965 340.249 190.965 336.242Z" fill="#BA68C8"/>
<path d="M154.116 212.793C154.116 214.549 153.786 216.092 151.642 216.47C153.833 216.564 153.998 218.037 154.116 220.005C154.187 217.99 154.375 216.47 156.367 216.47C154.305 216.128 154.116 214.549 154.116 212.793Z" fill="#BA68C8"/>
<path d="M144.477 219.687C144.477 223.681 143.711 227.24 138.82 228.1C143.84 228.312 144.194 231.635 144.477 236.29C144.63 231.671 145.066 228.324 149.626 228.1C144.913 227.381 144.477 223.681 144.477 219.687Z" fill="#E0E0E0"/>
<path d="M139.881 199.607C139.881 201.669 139.492 203.484 136.982 203.932C139.551 204.038 139.74 205.758 139.881 208.127C139.964 205.77 140.188 204.038 142.533 203.932C140.105 203.531 139.881 201.669 139.881 199.607Z" fill="#E0E0E0"/>
<path d="M291.729 110.897C291.729 113.254 291.67 115.493 288.288 116.023C291.823 116.023 291.588 118.227 291.764 121.055C291.859 118.227 292.106 116.2 294.899 116.071C292.012 115.587 292.094 114.256 291.729 110.897Z" fill="#E0E0E0"/>
<path d="M321.118 219.958C320.871 224.377 320.517 226.286 316.522 226.816C320.588 227.04 320.93 229.739 321.165 233.498C321.295 229.739 321.625 227.005 325.337 226.816C321.519 226.204 321.425 224.436 321.118 219.958Z" fill="#E0E0E0"/>
<path d="M174.727 336.277C174.585 338.858 174.385 339.966 172.052 340.284C174.409 340.414 174.621 341.969 174.762 344.161C174.833 341.969 175.021 340.378 177.19 340.284C174.998 339.907 174.903 338.893 174.727 336.277Z" fill="#E0E0E0"/>
<path d="M312.775 118.84C312.775 120.266 312.775 121.633 310.689 121.951C312.858 121.951 312.693 123.282 312.799 124.991C312.858 123.282 312.999 122.057 314.684 121.974C312.94 121.68 312.987 120.878 312.775 118.84Z" fill="#E0E0E0"/>
<path d="M317.218 232.802C317.218 234.216 317.218 235.583 315.132 235.901C317.288 235.901 317.123 237.245 317.229 238.953C317.288 237.245 317.441 236.007 319.127 235.937C317.383 235.63 317.43 234.829 317.218 232.802Z" fill="#E0E0E0"/>
<path d="M185.603 330.656C185.603 332.07 185.603 333.437 183.518 333.755C185.686 333.755 185.521 335.087 185.627 336.796C185.686 335.087 185.839 333.861 187.524 333.779C185.804 333.496 185.851 332.683 185.603 330.656Z" fill="#E0E0E0"/>
<path d="M420.397 318.802L457.505 297.378L513.526 329.714L540.405 314.194L484.396 281.859L502.59 271.348L473.13 254.32L454.936 264.831L422.459 246.106L395.569 261.638L428.01 280.41L358.826 320.286L380.473 332.777L555.088 379.654L558.482 377.698C560.147 371.004 561.526 364.174 562.618 357.205L420.397 318.802Z" fill="#263238"/>
<path d="M423.886 154.427L422.495 155.229V109.955L405.692 100.257L384.905 112.253L402.05 47.7944L385.258 38.0962L356.352 54.7823L309.641 229.444V254.485L326.433 264.183L378.86 233.898V251.939L395.663 261.638L422.46 246.106V208.681L440.643 198.181V164.125L423.886 154.427ZM378.86 180.458L364.636 188.707L378.86 135.184V180.458Z" fill="#BA68C8"/>
<path opacity="0.3" d="M423.886 154.427L422.495 155.229V109.955L405.692 100.257L384.905 112.253L402.05 47.7944L385.258 38.0962L356.352 54.7823L309.641 229.444V254.485L326.433 264.183L378.86 233.898V251.939L395.663 261.638L422.46 246.106V208.681L440.643 198.181V164.125L423.886 154.427ZM378.86 180.458L364.636 188.707L378.86 135.184V180.458Z" fill="black"/>
<path d="M422.484 174.625V109.954L395.604 125.474V190.156L358.485 211.579L402.05 47.7939L373.144 64.48L326.433 239.142V264.135L395.604 224.211V261.637L422.484 246.106V208.68L440.678 198.181V164.125L422.484 174.625Z" fill="#BA68C8"/>
<path opacity="0.3" d="M422.484 174.625V109.954L395.604 125.474V190.156L358.485 211.579L402.05 47.7939L373.144 64.48L326.433 239.142V264.135L395.604 224.211V261.637L422.484 246.106V208.68L440.678 198.181V164.125L422.484 174.625Z" fill="white"/>
<path d="M402.051 47.7944L385.259 38.0962L356.353 54.7823L373.145 64.4804L402.051 47.7944Z" fill="#BA68C8"/>
<path opacity="0.5" d="M402.051 47.7944L385.259 38.0962L356.353 54.7823L373.145 64.4804L402.051 47.7944Z" fill="white"/>
<path d="M405.691 100.256L422.483 109.955L395.604 125.474L383.278 118.356L384.905 112.252L405.691 100.256Z" fill="#BA68C8"/>
<path opacity="0.5" d="M405.691 100.256L422.483 109.955L395.604 125.474L383.278 118.356L384.905 112.252L405.691 100.256Z" fill="white"/>
<path d="M395.604 190.156L378.8 180.458L364.577 188.671L358.484 211.579L395.604 190.156Z" fill="#BA68C8"/>
<path opacity="0.5" d="M395.604 190.156L378.8 180.458L364.577 188.671L358.484 211.579L395.604 190.156Z" fill="white"/>
<path d="M440.678 164.125L423.886 154.427L422.483 155.229V174.625L440.678 164.125Z" fill="#BA68C8"/>
<path opacity="0.5" d="M422.483 174.625L440.678 164.125L423.886 154.427L422.483 155.229V174.625Z" fill="white"/>
<path d="M326.433 239.142L309.641 229.443L356.352 54.7817L373.144 64.4799L326.433 239.142Z" fill="#BA68C8"/>
<path opacity="0.15" d="M326.433 239.142L309.641 229.443L356.352 54.7817L373.144 64.4799L326.433 239.142Z" fill="black"/>
<path d="M229.734 428.887L200.239 411.859L182.056 422.359L149.638 403.646L122.747 419.165L155.165 437.878L85.9932 477.814L107.64 490.317L282.267 537.193L311.173 520.507L147.541 476.341L184.66 454.906L240.669 487.253L267.56 471.722L211.539 439.387L229.734 428.887Z" fill="#263238"/>
<path d="M151.029 311.955L149.638 312.768V267.447L132.834 257.749L112.047 269.804L129.193 205.346L112.401 195.647L83.4948 212.31L36.7832 386.983V411.977L53.6225 421.675L106.002 391.438V409.467L122.794 419.165L149.685 403.646V366.208L167.868 355.709V321.653L151.029 311.955ZM105.955 337.986L91.7317 346.234L105.955 292.759V337.986Z" fill="#BA68C8"/>
<path opacity="0.3" d="M151.029 311.955L149.638 312.768V267.447L132.834 257.749L112.047 269.804L129.193 205.346L112.401 195.647L83.4948 212.31L36.7832 386.983V411.977L53.6225 421.675L106.002 391.438V409.467L122.794 419.165L149.685 403.646V366.208L167.868 355.709V321.653L151.029 311.955ZM105.955 337.986L91.7317 346.234L105.955 292.759V337.986Z" fill="black"/>
<path d="M149.638 332.165V267.483L122.747 283.002V347.684L85.6275 369.107L129.205 205.322L100.299 222.008L53.5752 396.67V421.676L122.747 381.74V419.166L149.638 403.646V366.208L167.821 355.709V321.653L149.638 332.165Z" fill="#BA68C8"/>
<path opacity="0.3" d="M149.638 332.165V267.483L122.747 283.002V347.684L85.6275 369.107L129.205 205.322L100.299 222.008L53.5752 396.67V421.676L122.747 381.74V419.166L149.638 403.646V366.208L167.821 355.709V321.653L149.638 332.165Z" fill="white"/>
<path d="M129.204 205.322L112.4 195.624L83.4941 212.31L100.298 222.008L129.204 205.322Z" fill="#BA68C8"/>
<path opacity="0.5" d="M129.204 205.322L112.4 195.624L83.4941 212.31L100.298 222.008L129.204 205.322Z" fill="white"/>
<path d="M132.834 257.784L149.638 267.482L122.747 283.002L110.421 275.896L112.047 269.792L132.834 257.784Z" fill="#BA68C8"/>
<path opacity="0.5" d="M132.834 257.784L149.638 267.482L122.747 283.002L110.421 275.896L112.047 269.792L132.834 257.784Z" fill="white"/>
<path d="M122.747 347.684L105.955 337.986L91.732 346.199L85.6279 369.107L122.747 347.684Z" fill="#BA68C8"/>
<path opacity="0.5" d="M122.747 347.684L105.955 337.986L91.732 346.199L85.6279 369.107L122.747 347.684Z" fill="white"/>
<path d="M167.82 321.653L151.028 311.955L149.638 312.768V332.165L167.82 321.653Z" fill="#BA68C8"/>
<path opacity="0.5" d="M149.638 332.165L167.82 321.653L151.028 311.955L149.638 312.768V332.165Z" fill="white"/>
<path d="M53.5753 396.67L36.7832 386.983L83.4948 212.31L100.299 222.008L53.5753 396.67Z" fill="#BA68C8"/>
<path opacity="0.15" d="M53.5753 396.67L36.7832 386.983L83.4948 212.31L100.299 222.008L53.5753 396.67Z" fill="black"/>
<path d="M168.363 111.262C169.046 108.034 155.884 115.634 155.2 118.863L159.442 130.282C159.585 130.625 159.832 130.913 160.149 131.107C161.08 131.684 164.51 133.617 164.804 133.793C165.041 133.941 165.308 134.033 165.586 134.061C165.863 134.09 166.143 134.054 166.405 133.958C166.667 133.861 166.903 133.705 167.095 133.503C167.287 133.301 167.431 133.058 167.514 132.792L173.018 113.937C173.359 112.358 168.363 111.262 168.363 111.262Z" fill="#BA68C8"/>
<path opacity="0.25" d="M168.363 111.262C169.046 108.034 155.884 115.634 155.2 118.863L159.442 130.282C159.585 130.625 159.832 130.913 160.149 131.107C161.08 131.684 164.51 133.617 164.804 133.793C165.041 133.941 165.308 134.033 165.586 134.061C165.863 134.09 166.143 134.054 166.405 133.958C166.667 133.861 166.903 133.705 167.095 133.503C167.287 133.301 167.431 133.058 167.514 132.792L173.018 113.937C173.359 112.358 168.363 111.262 168.363 111.262Z" fill="black"/>
<path d="M213.118 48.2657L103.292 111.616C102.78 111.954 102.355 112.407 102.05 112.939C101.745 113.472 101.569 114.068 101.536 114.68V150.515C101.568 151.127 101.744 151.724 102.052 152.254C102.359 152.785 102.788 153.235 103.304 153.567L104.4 154.203C104.948 154.479 105.553 154.623 106.167 154.623C106.781 154.623 107.386 154.479 107.935 154.203L217.761 90.6879C218.276 90.3552 218.705 89.9051 219.012 89.3745C219.319 88.844 219.496 88.2481 219.529 87.6359V51.8952C219.497 51.2827 219.321 50.6865 219.013 50.1558C218.706 49.6251 218.277 49.1751 217.761 48.8431L216.654 48.2068C216.1 47.9402 215.493 47.8067 214.879 47.817C214.265 47.8272 213.662 47.9809 213.118 48.2657Z" fill="#BA68C8"/>
<path opacity="0.25" d="M213.118 48.2657L103.292 111.616C102.78 111.954 102.355 112.407 102.05 112.939C101.745 113.472 101.569 114.068 101.536 114.68V150.515C101.568 151.127 101.744 151.724 102.052 152.254C102.359 152.785 102.788 153.235 103.304 153.567L104.4 154.203C104.948 154.479 105.553 154.623 106.167 154.623C106.781 154.623 107.386 154.479 107.935 154.203L217.761 90.6879C218.276 90.3552 218.705 89.9051 219.012 89.3745C219.319 88.844 219.496 88.2481 219.529 87.6359V51.8952C219.497 51.2827 219.321 50.6865 219.013 50.1558C218.706 49.6251 218.277 49.1751 217.761 48.8431L216.654 48.2068C216.1 47.9402 215.493 47.8067 214.879 47.817C214.265 47.8272 213.662 47.9809 213.118 48.2657Z" fill="black"/>
<path d="M219.529 51.8949V52.5901C219.53 52.3042 219.455 52.023 219.313 51.775C219.17 51.527 218.965 51.3209 218.718 51.1775C218.471 51.0341 218.19 50.9584 217.904 50.9582C217.618 50.9579 217.337 51.0331 217.089 51.1761L108.606 113.843C107.865 114.266 107.25 114.881 106.827 115.622L102.113 112.865C102.411 112.312 102.85 111.848 103.386 111.522L213.118 48.2654C213.666 47.9898 214.272 47.8462 214.886 47.8462C215.499 47.8462 216.105 47.9898 216.653 48.2654L217.761 48.9018C218.269 49.228 218.693 49.6686 219 50.1884C219.307 50.7082 219.488 51.2926 219.529 51.8949Z" fill="#BA68C8"/>
<path opacity="0.45" d="M219.529 51.8949V52.5901C219.53 52.3042 219.455 52.023 219.313 51.775C219.17 51.527 218.965 51.3209 218.718 51.1775C218.471 51.0341 218.19 50.9584 217.904 50.9582C217.618 50.9579 217.337 51.0331 217.089 51.1761L108.606 113.843C107.865 114.266 107.25 114.881 106.827 115.622L102.113 112.865C102.411 112.312 102.85 111.848 103.386 111.522L213.118 48.2654C213.666 47.9898 214.272 47.8462 214.886 47.8462C215.499 47.8462 216.105 47.9898 216.653 48.2654L217.761 48.9018C218.269 49.228 218.693 49.6686 219 50.1884C219.307 50.7082 219.488 51.2926 219.529 51.8949Z" fill="white"/>
<path d="M217.903 51.5889C217.728 51.5886 217.556 51.6376 217.408 51.7303L108.925 114.397C108.283 114.769 107.75 115.304 107.379 115.947C107.009 116.591 106.815 117.32 106.815 118.062V152.33C106.815 152.672 106.815 153.438 107.522 153.438C107.799 153.424 108.067 153.338 108.3 153.19L160.998 122.752L164.533 132.509C164.683 132.85 164.932 133.137 165.249 133.333C165.565 133.528 165.933 133.624 166.304 133.606C166.676 133.588 167.033 133.458 167.329 133.233C167.625 133.007 167.846 132.698 167.962 132.344L172.676 115.988L216.748 90.5466C218.221 89.7099 218.869 88.8497 218.869 87.7774V52.5905C218.869 52.3309 218.768 52.0813 218.588 51.8945C218.408 51.7076 218.162 51.598 217.903 51.5889Z" fill="#263238"/>
<path d="M107.522 154.073C106.709 154.073 106.179 153.39 106.179 152.329V118.062C106.179 117.209 106.404 116.372 106.83 115.634C107.256 114.895 107.869 114.282 108.606 113.855L217.089 51.1878C217.335 51.0403 217.616 50.9628 217.902 50.9639C218.333 50.967 218.744 51.1393 219.049 51.4436C219.353 51.7479 219.525 52.1597 219.528 52.5901V87.7769C219.459 88.4991 219.195 89.1891 218.766 89.7739C218.337 90.3588 217.757 90.817 217.089 91.1L173.241 116.412L168.528 132.521C168.38 133.002 168.086 133.426 167.687 133.734C167.288 134.042 166.804 134.219 166.3 134.241C165.805 134.261 165.315 134.132 164.894 133.869C164.474 133.606 164.142 133.222 163.944 132.768L160.656 123.683L108.618 153.743C108.288 153.948 107.91 154.062 107.522 154.073ZM217.902 52.2248C217.844 52.2087 217.783 52.2087 217.726 52.2248L109.243 114.939C108.696 115.257 108.242 115.713 107.926 116.261C107.61 116.808 107.442 117.429 107.44 118.062V152.329C107.43 152.5 107.462 152.67 107.534 152.824C107.693 152.793 107.844 152.733 107.982 152.648L161.328 121.833L165.098 132.297C165.191 132.529 165.354 132.725 165.566 132.858C165.777 132.991 166.025 133.054 166.274 133.037C166.523 133.02 166.76 132.924 166.951 132.763C167.142 132.603 167.278 132.386 167.337 132.143L172.169 115.575L172.381 115.446L216.453 90.0041C218.044 89.0849 218.268 88.3661 218.268 87.7769V52.5901C218.265 52.4941 218.225 52.4029 218.157 52.335C218.089 52.2671 217.998 52.2277 217.902 52.2248Z" fill="#BA68C8"/>
<path opacity="0.3" d="M116.95 140.18C116.254 140.18 115.429 139.697 115.429 138.319V121.232C115.403 120.725 115.517 120.22 115.758 119.773C115.999 119.327 116.358 118.955 116.796 118.698L117.197 118.463C117.498 118.286 117.838 118.188 118.187 118.18C118.536 118.186 118.875 118.304 119.152 118.516C119.43 118.728 119.633 119.023 119.731 119.358L121.734 124.366V117.614C121.709 117.107 121.823 116.603 122.064 116.157C122.305 115.71 122.664 115.338 123.101 115.081L123.325 114.951C123.616 114.773 123.95 114.675 124.291 114.668C124.63 114.667 124.959 114.784 125.221 114.999C125.484 115.214 125.663 115.514 125.729 115.847C125.827 115.527 125.949 115.216 126.094 114.916L126.742 113.737C127.054 113.094 127.545 112.554 128.156 112.182L132.057 109.931C132.387 109.729 132.765 109.619 133.153 109.613C133.583 109.61 134.001 109.76 134.331 110.037C134.359 109.585 134.496 109.147 134.733 108.761C134.969 108.374 135.296 108.052 135.686 107.822L142.026 104.169C142.315 103.984 142.649 103.882 142.992 103.874C143.699 103.874 144.512 104.369 144.512 105.771V106.007C144.533 106.505 144.416 106.999 144.175 107.436C143.934 107.872 143.578 108.234 143.145 108.482L141.708 109.318C141.613 109.318 141.46 109.46 141.46 109.907V124.543C141.486 125.049 141.374 125.552 141.135 125.998C140.896 126.445 140.54 126.818 140.105 127.077L139.881 127.206C139.588 127.381 139.256 127.479 138.915 127.489C138.173 127.489 137.395 126.994 137.395 125.604V111.828L136.806 112.17C136.512 112.355 136.174 112.457 135.828 112.465H135.757V126.228C135.749 126.951 135.571 127.661 135.238 128.302L134.59 129.551C134.278 130.192 133.787 130.728 133.176 131.095L129.299 133.334C128.946 133.554 128.537 133.669 128.121 133.664C127.724 133.665 127.337 133.532 127.025 133.287L126.353 132.792C126.093 132.59 125.886 132.327 125.752 132.026V133.64C125.776 134.142 125.661 134.641 125.42 135.081C125.179 135.522 124.821 135.888 124.385 136.139L124.161 136.268C123.865 136.455 123.522 136.557 123.172 136.563C122.824 136.554 122.489 136.435 122.213 136.224C121.938 136.012 121.737 135.718 121.64 135.384L119.448 129.964V137.211C119.471 137.714 119.356 138.214 119.115 138.657C118.874 139.099 118.516 139.467 118.081 139.721L117.857 139.85C117.587 140.035 117.275 140.149 116.95 140.18ZM129.912 116.153C129.829 116.153 129.676 116.294 129.676 116.719V128.102L131.491 127.065C131.574 127.065 131.727 126.923 131.727 126.499V115.116L129.912 116.153ZM148.236 122.139C147.541 122.139 146.716 121.656 146.716 120.277V103.214C146.695 102.711 146.812 102.212 147.052 101.77C147.293 101.328 147.649 100.96 148.083 100.704L154.411 97.063C154.699 96.8765 155.034 96.7744 155.377 96.7684C155.671 96.7664 155.959 96.8546 156.201 97.021C156.443 97.1875 156.629 97.4242 156.732 97.6993C156.803 97.5019 156.885 97.309 156.98 97.1219L157.628 95.9435C157.937 95.2977 158.428 94.7568 159.042 94.388L162.942 92.1373C163.272 91.9337 163.651 91.8237 164.038 91.8191C164.468 91.8119 164.886 91.9581 165.217 92.2316L165.818 92.6911C166.083 92.8961 166.293 93.1632 166.43 93.4689V91.7956C166.407 91.2922 166.522 90.7922 166.763 90.3496C167.004 89.9071 167.362 89.5391 167.797 89.2856L168.021 89.156C168.313 88.978 168.646 88.8804 168.988 88.8731C169.683 88.8731 170.508 89.3563 170.508 90.735V104.558L172.311 103.509C172.405 103.509 172.558 103.367 172.558 102.92V88.2604C172.524 87.7674 172.623 87.2744 172.845 86.8328C173.067 86.3912 173.403 86.0174 173.819 85.7504L174.043 85.6208C174.334 85.4428 174.668 85.3452 175.009 85.338C175.271 85.335 175.529 85.4051 175.754 85.5404C175.979 85.6756 176.162 85.8708 176.282 86.1039C176.256 85.5969 176.369 85.0924 176.61 84.6456C176.851 84.1987 177.211 83.8268 177.649 83.5704L178.049 83.3465C178.342 83.1596 178.68 83.0576 179.027 83.0519C179.379 83.0555 179.72 83.172 180 83.3841C180.28 83.5963 180.484 83.893 180.583 84.2303L182.586 89.2384V82.4391C182.562 81.934 182.677 81.432 182.918 80.9874C183.159 80.5429 183.517 80.1728 183.953 79.9173L184.165 79.7877C184.455 79.604 184.789 79.5022 185.132 79.4931C185.398 79.4915 185.66 79.5647 185.887 79.7042C186.114 79.8438 186.297 80.0442 186.416 80.2826C186.388 79.7667 186.506 79.2535 186.756 78.8014C187.006 78.3493 187.378 77.9765 187.83 77.7255L192.944 74.7795C193.278 74.574 193.66 74.4602 194.052 74.4496C194.482 74.4487 194.899 74.5988 195.23 74.8738L195.831 75.3334C196.118 75.571 196.345 75.8733 196.492 76.2153C196.64 76.5574 196.704 76.9296 196.68 77.3013V91.065C196.67 91.7909 196.492 92.5047 196.161 93.1507L195.513 94.3291C195.196 94.9731 194.701 95.5129 194.087 95.8846L188.95 98.9366C188.657 99.1116 188.324 99.209 187.983 99.2194C187.719 99.2246 187.459 99.1555 187.232 99.0202C187.004 98.8848 186.82 98.6884 186.699 98.4535C186.722 98.9554 186.608 99.4542 186.369 99.8964C186.131 100.339 185.776 100.707 185.344 100.963L185.12 101.081C184.819 101.27 184.473 101.372 184.118 101.376C183.782 101.37 183.455 101.26 183.183 101.062C182.911 100.864 182.707 100.587 182.598 100.268L180.394 94.8358V102.095C180.417 102.595 180.302 103.092 180.063 103.532C179.825 103.972 179.471 104.339 179.039 104.593L178.815 104.723C178.522 104.908 178.184 105.01 177.837 105.017C177.498 105.018 177.169 104.901 176.907 104.686C176.645 104.471 176.465 104.171 176.4 103.839C176.313 104.152 176.194 104.456 176.046 104.746L175.398 105.925C175.093 106.579 174.601 107.129 173.984 107.504L170.107 109.743C169.772 109.943 169.39 110.053 168.999 110.061C168.57 110.066 168.153 109.92 167.821 109.648L167.196 109.177C166.935 108.969 166.725 108.702 166.584 108.399C166.574 109.118 166.396 109.824 166.065 110.461L165.417 111.64C165.105 112.283 164.614 112.823 164.003 113.195L160.126 115.434C159.769 115.646 159.363 115.76 158.948 115.764C158.547 115.763 158.158 115.631 157.84 115.387L157.18 114.88C156.893 114.643 156.667 114.34 156.519 113.998C156.372 113.656 156.307 113.284 156.332 112.912V109.589C156.101 109.951 155.786 110.25 155.412 110.461L150.911 113.066C150.817 113.124 150.675 113.207 150.675 113.631V119.134C150.699 119.638 150.583 120.138 150.342 120.58C150.101 121.023 149.744 121.391 149.308 121.644L149.084 121.774C148.826 121.972 148.522 122.102 148.201 122.151L148.236 122.139ZM160.762 98.3474C160.668 98.3474 160.527 98.4888 160.527 98.9131V110.296L162.33 109.248C162.424 109.248 162.577 109.106 162.577 108.682V97.2987L160.762 98.3474ZM156.449 100.539C156.223 100.907 155.907 101.211 155.53 101.423L151.029 104.016C150.935 104.074 150.793 104.157 150.793 104.581V108.258L154.411 106.172C154.699 105.985 155.034 105.883 155.377 105.877C155.58 105.875 155.781 105.918 155.966 106.001C156.152 106.084 156.316 106.207 156.449 106.361V100.539ZM190.811 81.0486C190.705 81.0486 190.576 81.19 190.576 81.6142V92.9386L192.379 91.9016C192.473 91.9016 192.626 91.7602 192.626 91.336V80.0823L190.811 81.0486ZM207.651 90.2165C207.296 90.2142 206.952 90.0986 206.668 89.8866C206.384 89.6746 206.175 89.3773 206.072 89.0381L204.964 86.1511C204.797 85.715 204.686 85.2597 204.634 84.7959L203.951 79.4224C203.951 78.9864 203.951 78.7389 203.951 78.6329C203.951 78.5268 203.951 78.2322 203.951 77.8552L204.634 71.645C204.694 71.1084 204.793 70.5768 204.929 70.0542L206.048 65.8591C206.147 65.4482 206.326 65.0609 206.575 64.7191C206.823 64.3774 207.137 64.0881 207.497 63.8676L207.898 63.6437C208.191 63.4585 208.529 63.3567 208.876 63.3491H209.124H209.324C209.623 63.4587 209.878 63.663 210.051 63.9311C210.223 64.1992 210.303 64.5162 210.278 64.8339C210.279 65.1247 210.239 65.4142 210.161 65.6941L208.982 69.6771C208.863 70.0892 208.78 70.5112 208.735 70.938L208.134 76.8299C208.134 77.101 208.134 77.3013 208.134 77.4074C208.134 77.5134 208.134 77.702 208.134 77.9612L208.735 83.1108C208.759 83.3905 208.827 83.6648 208.935 83.9239L210.114 86.5871C210.223 86.8728 210.279 87.1765 210.278 87.4826C210.27 87.8955 210.161 88.3 209.96 88.661C209.745 89.0638 209.418 89.3954 209.018 89.6155L208.617 89.8512C208.326 90.0308 207.992 90.1285 207.651 90.134V90.2165ZM201.37 87.3648C200.675 87.3648 199.873 86.8934 199.873 85.5501V84.3717C199.843 83.8621 199.953 83.354 200.192 82.903C200.431 82.4519 200.79 82.0754 201.228 81.8146L201.653 81.5671C201.945 81.3906 202.278 81.2932 202.619 81.2843C203.35 81.2843 204.139 81.7792 204.139 83.1933V84.3717C204.157 84.8661 204.038 85.3558 203.798 85.7879C203.557 86.22 203.202 86.5778 202.772 86.8227L202.348 87.0584C202.047 87.2582 201.696 87.3685 201.334 87.3766L201.37 87.3648ZM201.37 77.5488C200.675 77.5488 199.873 77.0656 199.873 75.7223V74.5439C199.844 74.0345 199.955 73.5269 200.194 73.0761C200.433 72.6253 200.791 72.2485 201.228 71.9867L201.653 71.7393C201.944 71.5613 202.278 71.4637 202.619 71.4565C203.35 71.4565 204.139 71.9632 204.139 73.3773V74.5556C204.158 75.0503 204.04 75.5406 203.799 75.9729C203.558 76.4052 203.203 76.7628 202.772 77.0067L202.348 77.2542C202.046 77.4498 201.694 77.556 201.334 77.5606L201.37 77.5488Z" fill="#BA68C8"/>
<path opacity="0.3" d="M116.949 139.638C116.725 139.638 115.995 139.544 115.995 138.33V121.232C115.966 120.823 116.052 120.414 116.243 120.052C116.435 119.689 116.725 119.388 117.079 119.182L117.48 118.946C117.693 118.814 117.936 118.741 118.187 118.734C118.42 118.742 118.645 118.824 118.829 118.968C119.013 119.112 119.147 119.31 119.212 119.535L122.287 127.218C122.294 127.148 122.294 127.077 122.287 127.006V117.579C122.258 117.17 122.344 116.761 122.536 116.399C122.728 116.036 123.017 115.735 123.372 115.528L123.595 115.399C123.801 115.27 124.036 115.197 124.279 115.187C124.503 115.187 125.233 115.293 125.233 116.518V133.629C125.257 134.032 125.168 134.434 124.977 134.79C124.786 135.146 124.499 135.441 124.149 135.644L123.925 135.773C123.712 135.905 123.469 135.978 123.218 135.985C122.99 135.982 122.768 135.906 122.586 135.769C122.404 135.631 122.27 135.438 122.205 135.219L118.953 127.218C118.953 127.289 118.953 127.371 118.953 127.442V137.317C118.977 137.722 118.889 138.126 118.698 138.484C118.506 138.842 118.219 139.139 117.868 139.344L117.656 139.473C117.438 139.587 117.195 139.644 116.949 139.638ZM128.179 133.098C127.901 133.105 127.63 133.013 127.413 132.839L126.754 132.344C126.535 132.157 126.365 131.92 126.257 131.654C126.148 131.387 126.104 131.099 126.129 130.812V117.013C126.134 116.376 126.292 115.75 126.589 115.187L127.237 113.949C127.498 113.405 127.906 112.944 128.415 112.618L132.304 110.379C132.552 110.225 132.837 110.14 133.129 110.131C133.423 110.126 133.709 110.231 133.93 110.426L134.555 110.897C134.772 111.083 134.943 111.317 135.051 111.582C135.16 111.846 135.204 112.133 135.179 112.418V126.228C135.171 126.865 135.014 127.49 134.719 128.055L134.071 129.233C133.813 129.777 133.404 130.235 132.893 130.553L129.016 132.792C128.764 132.948 128.475 133.033 128.179 133.039V133.098ZM129.605 115.682C129.424 115.786 129.278 115.941 129.184 116.127C129.089 116.313 129.052 116.523 129.075 116.73C129.075 116.73 129.075 129.056 129.075 129.08L131.715 127.56C131.895 127.456 132.042 127.301 132.136 127.115C132.23 126.928 132.268 126.719 132.245 126.511C132.245 126.511 132.245 114.185 132.245 114.15L129.605 115.682ZM138.915 126.959C138.62 126.959 137.948 126.829 137.948 125.627V110.862L136.522 111.687C136.313 111.817 136.073 111.89 135.827 111.899C135.603 111.899 134.884 111.805 134.884 110.615V110.32C134.858 109.913 134.945 109.506 135.136 109.146C135.328 108.786 135.616 108.487 135.969 108.281L142.308 104.617C142.514 104.487 142.749 104.414 142.992 104.404C143.216 104.404 143.946 104.499 143.946 105.736V106.007C143.97 106.406 143.882 106.803 143.692 107.155C143.503 107.506 143.22 107.798 142.874 107.999L141.425 108.835C141.243 108.944 141.097 109.103 141.005 109.294C140.913 109.484 140.878 109.698 140.906 109.908V124.543C140.935 124.952 140.849 125.361 140.657 125.724C140.466 126.086 140.176 126.387 139.822 126.594L139.598 126.723C139.393 126.852 139.157 126.925 138.915 126.935V126.959ZM148.2 121.597C147.976 121.597 147.246 121.503 147.246 120.289V103.214C147.221 102.809 147.309 102.405 147.501 102.047C147.692 101.689 147.979 101.392 148.33 101.187L154.646 97.5462C154.854 97.4129 155.095 97.3395 155.341 97.3341C155.565 97.3341 156.296 97.4283 156.296 98.6303V98.9367C156.322 99.342 156.234 99.7465 156.043 100.105C155.851 100.463 155.563 100.76 155.212 100.964L150.722 103.556C150.539 103.658 150.391 103.812 150.296 103.999C150.202 104.186 150.165 104.397 150.192 104.605V109.248L154.646 106.679C154.856 106.551 155.095 106.478 155.341 106.467C155.565 106.467 156.296 106.561 156.296 107.775V108.069C156.322 108.473 156.235 108.876 156.043 109.232C155.851 109.589 155.563 109.884 155.212 110.084L150.722 112.677C150.538 112.781 150.389 112.937 150.295 113.126C150.2 113.315 150.165 113.528 150.192 113.737V119.24C150.218 119.646 150.13 120.05 149.939 120.408C149.747 120.766 149.459 121.064 149.108 121.267L148.896 121.385C148.687 121.517 148.447 121.591 148.2 121.597ZM159.03 115.293C158.753 115.292 158.484 115.201 158.264 115.034L157.604 114.539C157.386 114.351 157.216 114.114 157.107 113.848C156.998 113.582 156.955 113.293 156.979 113.007V99.1959C156.986 98.5631 157.144 97.941 157.439 97.3812L158.087 96.1439C158.345 95.5971 158.754 95.1352 159.265 94.8123L163.154 92.5616C163.403 92.408 163.687 92.3227 163.979 92.3141C164.272 92.3171 164.555 92.4212 164.78 92.6087L165.405 93.0801C165.623 93.2676 165.793 93.5044 165.902 93.7707C166.01 94.0371 166.054 94.3254 166.029 94.612V108.423C166.023 109.056 165.865 109.678 165.57 110.237L164.922 111.416C164.66 111.961 164.252 112.422 163.743 112.747L159.866 114.986C159.614 115.14 159.325 115.226 159.03 115.234V115.293ZM160.444 97.8761C160.264 97.9808 160.119 98.1361 160.027 98.3226C159.935 98.509 159.899 98.7185 159.925 98.9249V111.274L162.577 109.743C162.758 109.638 162.904 109.484 162.998 109.297C163.093 109.111 163.13 108.901 163.107 108.694C163.107 108.694 163.107 96.3678 163.107 96.3442L160.444 97.8761ZM168.999 109.542C168.706 109.539 168.423 109.435 168.198 109.248L167.561 108.764C167.344 108.576 167.174 108.339 167.066 108.073C166.957 107.807 166.913 107.519 166.937 107.233V91.7956C166.911 91.3903 166.998 90.9858 167.19 90.6277C167.382 90.2696 167.669 89.9721 168.021 89.7688L168.245 89.6392C168.45 89.51 168.686 89.4369 168.928 89.4271C169.152 89.4271 169.883 89.5213 169.883 90.7351V105.524L172.534 103.992C172.716 103.883 172.862 103.724 172.954 103.533C173.046 103.343 173.08 103.13 173.053 102.92V88.2604C173.028 87.8554 173.116 87.4514 173.308 87.0935C173.499 86.7356 173.786 86.438 174.137 86.2336L174.361 86.104C174.57 85.9744 174.81 85.9013 175.056 85.8919C175.28 85.8919 176.01 85.9861 176.01 87.1999V102.649C175.999 103.282 175.838 103.904 175.539 104.463L174.903 105.642C174.648 106.197 174.239 106.668 173.724 106.997L169.847 109.236C169.6 109.391 169.315 109.476 169.023 109.483L168.999 109.542ZM177.837 104.475C177.613 104.475 176.894 104.381 176.894 103.167V86.0686C176.867 85.6616 176.955 85.2551 177.146 84.895C177.338 84.5348 177.626 84.2353 177.978 84.03L178.379 83.7943C178.588 83.6632 178.828 83.59 179.074 83.5822C179.308 83.5822 179.536 83.6597 179.721 83.8025C179.907 83.9453 180.04 84.1455 180.099 84.3717L183.246 92.0667C183.246 91.9959 183.246 91.9252 183.246 91.8545V82.4392C183.219 82.0321 183.306 81.6257 183.498 81.2655C183.689 80.9054 183.977 80.6058 184.33 80.4005L184.542 80.2709C184.747 80.1418 184.983 80.0687 185.225 80.0588C185.449 80.0588 186.192 80.1531 186.192 81.3904V98.4889C186.218 98.8927 186.131 99.2957 185.939 99.6521C185.747 100.008 185.459 100.304 185.108 100.504L184.884 100.634C184.67 100.775 184.421 100.853 184.165 100.857C183.938 100.852 183.72 100.775 183.54 100.637C183.36 100.5 183.228 100.309 183.163 100.092L179.899 92.0195C179.893 92.098 179.893 92.1768 179.899 92.2552V102.13C179.926 102.534 179.838 102.937 179.646 103.293C179.455 103.65 179.167 103.945 178.815 104.145L178.591 104.275C178.364 104.412 178.102 104.482 177.837 104.475ZM187.983 98.5832C187.759 98.5832 187.028 98.4889 187.028 97.2752V80.2474C187.004 79.8423 187.092 79.4383 187.283 79.0804C187.475 78.7226 187.762 78.4249 188.113 78.2205L193.227 75.2745C193.475 75.1194 193.759 75.0339 194.052 75.0271C194.346 75.0217 194.632 75.1268 194.853 75.3217L195.466 75.793C195.688 75.975 195.862 76.2088 195.973 76.4738C196.084 76.7388 196.128 77.0271 196.102 77.3132V91.065C196.092 91.7026 195.931 92.3287 195.631 92.8915L194.983 94.0699C194.722 94.6153 194.314 95.0767 193.804 95.4015L188.678 98.3475C188.476 98.4851 188.239 98.5627 187.995 98.5714L187.983 98.5832ZM190.493 80.5302C190.314 80.636 190.17 80.7914 190.078 80.9776C189.986 81.1638 189.95 81.3727 189.974 81.5789V93.9285L192.626 92.3966C192.806 92.2919 192.951 92.1367 193.043 91.9502C193.135 91.7637 193.17 91.5542 193.144 91.3478V79.0454L190.493 80.5302ZM207.615 89.6156C207.37 89.6135 207.133 89.5284 206.943 89.3744C206.752 89.2203 206.619 89.0063 206.566 88.7672L205.447 85.9744C205.309 85.5926 205.21 85.1977 205.152 84.796L204.457 79.3164C204.457 78.9276 204.457 78.7037 204.457 78.5976C204.457 78.4915 204.457 78.2205 204.457 77.867L205.14 71.6686C205.196 71.1633 205.291 70.663 205.423 70.1721L206.543 65.977C206.619 65.6372 206.762 65.3161 206.965 65.0327C207.167 64.7494 207.424 64.5095 207.721 64.3272L208.122 64.0916C208.331 63.9588 208.57 63.8817 208.817 63.8677H208.923L209.123 63.9266C209.303 64.0041 209.453 64.1378 209.551 64.3078C209.649 64.4777 209.689 64.6747 209.665 64.8693C209.664 65.1088 209.628 65.3469 209.559 65.5764L208.381 69.5593C208.252 70.0018 208.165 70.4556 208.122 70.9145L207.509 76.8064C207.509 77.1128 207.509 77.3249 207.509 77.4428C207.497 77.6429 207.497 77.8436 207.509 78.0438L208.11 83.2169C208.135 83.5497 208.215 83.8762 208.346 84.1832L209.524 86.8464C209.611 87.0595 209.655 87.2878 209.654 87.518C209.647 87.8512 209.562 88.1781 209.406 88.4726C209.228 88.7806 208.972 89.0365 208.664 89.2149L208.263 89.4506C208.055 89.5732 207.821 89.6421 207.58 89.6509L207.615 89.6156ZM201.334 86.7757C201.11 86.7757 200.391 86.6814 200.391 85.5148V84.3364C200.361 83.924 200.446 83.5111 200.637 83.1446C200.829 82.778 201.119 82.4725 201.476 82.2624L201.9 82.0149C202.105 81.8858 202.341 81.8127 202.583 81.8028C202.866 81.8028 203.538 81.9442 203.538 83.158V84.3364C203.559 84.7313 203.468 85.1241 203.276 85.47C203.085 85.8158 202.8 86.1009 202.454 86.2925L202.029 86.54C201.823 86.678 201.582 86.7555 201.334 86.7639V86.7757ZM201.334 76.9479C201.11 76.9479 200.391 76.8654 200.391 75.687V74.5086C200.363 74.0965 200.45 73.6847 200.641 73.3187C200.832 72.9526 201.121 72.6467 201.476 72.4346L201.9 72.1989C202.105 72.0698 202.341 71.9967 202.583 71.9868C202.866 71.9868 203.538 72.1164 203.538 73.342V74.5204C203.571 74.9267 203.486 75.3339 203.294 75.6934C203.102 76.0528 202.81 76.3493 202.454 76.5472L202.029 76.7947C201.82 76.9242 201.58 76.9973 201.334 77.0068V76.9479Z" fill="#BA68C8"/>
<path d="M117.586 138.813L117.362 138.931C116.82 139.249 116.56 139.037 116.56 138.33V121.232C116.532 120.921 116.593 120.61 116.735 120.332C116.876 120.055 117.094 119.823 117.362 119.664L117.762 119.44C118.198 119.181 118.505 119.275 118.682 119.735L121.91 127.795C121.961 127.926 122.052 128.038 122.17 128.113C122.211 128.142 122.26 128.158 122.311 128.158C122.362 128.158 122.411 128.142 122.452 128.113C122.595 128.024 122.7 127.886 122.747 127.725C122.829 127.494 122.869 127.251 122.865 127.006V117.579C122.838 117.269 122.899 116.957 123.041 116.68C123.183 116.403 123.399 116.171 123.666 116.011L123.878 115.893C124.42 115.575 124.691 115.787 124.691 116.518V133.628C124.714 133.934 124.65 134.241 124.506 134.512C124.362 134.783 124.145 135.008 123.878 135.16L123.666 135.29C123.218 135.537 122.912 135.455 122.735 135.019L119.33 126.57C119.188 126.216 119.023 126.098 118.799 126.216C118.658 126.322 118.554 126.471 118.505 126.64C118.42 126.879 118.38 127.13 118.387 127.383V137.258C118.411 137.566 118.349 137.875 118.208 138.15C118.066 138.424 117.851 138.654 117.586 138.813Z" fill="#BA68C8"/>
<path d="M134.236 127.796L133.6 128.974C133.383 129.431 133.039 129.815 132.61 130.082L128.733 132.321C128.59 132.423 128.419 132.478 128.244 132.478C128.068 132.478 127.897 132.423 127.755 132.321L127.095 131.814C126.947 131.678 126.834 131.508 126.764 131.32C126.695 131.131 126.671 130.929 126.694 130.73V117.013C126.7 116.462 126.837 115.921 127.095 115.434L127.731 114.256C127.951 113.804 128.294 113.425 128.721 113.16L132.61 110.909C132.753 110.802 132.926 110.744 133.105 110.744C133.283 110.744 133.457 110.802 133.6 110.909L134.236 111.404C134.383 111.538 134.497 111.705 134.566 111.892C134.636 112.078 134.66 112.279 134.637 112.476V126.287C134.622 126.814 134.485 127.331 134.236 127.796ZM132.81 126.511V114.256C132.81 113.537 132.551 113.337 132.009 113.643L129.322 115.198C129.056 115.351 128.839 115.576 128.697 115.847C128.555 116.119 128.494 116.425 128.521 116.73V128.986C128.521 129.705 128.78 129.905 129.322 129.598L132.009 128.043C132.274 127.89 132.49 127.665 132.632 127.393C132.774 127.122 132.836 126.816 132.81 126.511Z" fill="#BA68C8"/>
<path d="M136.24 108.764L142.591 105.1C143.121 104.793 143.392 105.005 143.392 105.736V106.007C143.413 106.308 143.349 106.609 143.208 106.876C143.066 107.142 142.852 107.364 142.591 107.515L141.142 108.352C140.876 108.51 140.66 108.74 140.518 109.015C140.376 109.29 140.315 109.599 140.34 109.907V124.543C140.366 124.853 140.304 125.164 140.163 125.441C140.021 125.717 139.805 125.949 139.539 126.11L139.315 126.24C138.785 126.546 138.514 126.334 138.514 125.604V110.992C138.514 110.249 138.243 110.049 137.713 110.355L136.24 111.204C135.709 111.51 135.438 111.31 135.438 110.615V110.32C135.413 110.012 135.474 109.702 135.616 109.427C135.757 109.152 135.974 108.922 136.24 108.764Z" fill="#BA68C8"/>
<path d="M148.613 101.683L154.929 98.0296C155.471 97.7232 155.73 97.9235 155.73 98.6305V98.9369C155.755 99.2435 155.693 99.5509 155.552 99.8239C155.41 100.097 155.194 100.325 154.929 100.481L150.439 103.073C150.173 103.225 149.956 103.45 149.814 103.722C149.672 103.993 149.611 104.3 149.638 104.605V109.154C149.638 109.872 149.897 110.073 150.439 109.766L154.964 107.186C155.506 106.879 155.766 107.08 155.766 107.798V108.093C155.775 108.384 155.706 108.673 155.565 108.928C155.424 109.184 155.216 109.396 154.964 109.542L150.475 112.135C150.211 112.289 149.995 112.515 149.854 112.786C149.712 113.057 149.649 113.362 149.673 113.667V119.182C149.698 119.488 149.634 119.795 149.49 120.066C149.346 120.338 149.128 120.562 148.86 120.714L148.648 120.843C148.106 121.161 147.847 120.949 147.847 120.242V103.214C147.817 102.913 147.872 102.609 148.008 102.338C148.144 102.066 148.353 101.839 148.613 101.683Z" fill="#BA68C8"/>
<path d="M165.087 109.99L164.45 111.168C164.23 111.623 163.888 112.007 163.46 112.276L159.584 114.503C159.441 114.606 159.27 114.661 159.094 114.661C158.919 114.661 158.748 114.606 158.605 114.503L157.946 114.008C157.798 113.872 157.685 113.703 157.615 113.514C157.545 113.326 157.521 113.124 157.545 112.924V99.1959C157.551 98.6489 157.688 98.1113 157.946 97.6286L158.582 96.4502C158.798 95.9935 159.142 95.6089 159.572 95.3425L163.46 93.0918C163.602 92.9829 163.776 92.9238 163.955 92.9238C164.134 92.9238 164.308 92.9829 164.45 93.0918L165.087 93.575C165.234 93.7112 165.347 93.8805 165.417 94.0689C165.487 94.2573 165.511 94.4596 165.487 94.6591V108.47C165.474 109.001 165.337 109.521 165.087 109.99ZM163.661 108.694V96.4385C163.661 95.7314 163.39 95.5193 162.859 95.8375L160.173 97.3812C159.908 97.5373 159.692 97.7649 159.55 98.0379C159.409 98.3109 159.347 98.6183 159.371 98.9249V111.18C159.371 111.887 159.631 112.088 160.173 111.781L162.859 110.226C163.124 110.071 163.339 109.846 163.481 109.575C163.622 109.304 163.685 108.999 163.661 108.694Z" fill="#BA68C8"/>
<path d="M174.419 86.7166L174.643 86.5987C175.173 86.2806 175.445 86.4927 175.445 87.1997V102.648C175.439 103.195 175.301 103.733 175.044 104.216L174.396 105.394C174.198 105.878 173.857 106.289 173.418 106.573L169.541 108.811C169.401 108.921 169.229 108.981 169.052 108.981C168.874 108.981 168.702 108.921 168.563 108.811L167.926 108.364C167.777 108.228 167.662 108.059 167.591 107.871C167.519 107.682 167.493 107.48 167.514 107.28V91.7955C167.492 91.4879 167.556 91.1802 167.7 90.9073C167.843 90.6345 168.061 90.4073 168.327 90.2518L168.539 90.1339C169.081 89.8158 169.34 90.0279 169.34 90.7349V105.406C169.34 106.137 169.611 106.349 170.154 106.03L172.84 104.487C173.105 104.325 173.32 104.093 173.462 103.816C173.603 103.539 173.665 103.229 173.642 102.919V88.2603C173.617 87.9564 173.677 87.6516 173.814 87.3793C173.951 87.107 174.161 86.8778 174.419 86.7166Z" fill="#BA68C8"/>
<path d="M178.532 103.65L178.308 103.78C177.778 104.086 177.507 103.886 177.507 103.167V86.0685C177.481 85.7602 177.542 85.4508 177.684 85.1758C177.826 84.9007 178.042 84.6711 178.308 84.513L178.709 84.2773C179.156 84.0181 179.463 84.1242 179.64 84.5719L182.868 92.6322C182.912 92.7635 182.999 92.8759 183.116 92.9503C183.16 92.9787 183.211 92.9938 183.263 92.9938C183.315 92.9938 183.367 92.9787 183.41 92.9503C183.555 92.8631 183.66 92.724 183.705 92.5615C183.782 92.3339 183.818 92.0945 183.811 91.8544V82.4391C183.785 82.1307 183.847 81.8214 183.989 81.5463C184.13 81.2713 184.346 81.0416 184.612 80.8836L184.836 80.7539C185.367 80.4476 185.638 80.6597 185.638 81.3903V98.4888C185.662 98.7936 185.599 99.0991 185.457 99.37C185.316 99.641 185.1 99.8665 184.836 100.021L184.612 100.15C184.176 100.41 183.87 100.315 183.693 99.8793L180.276 91.442C180.146 91.0767 179.97 90.9588 179.757 91.0885C179.612 91.1879 179.504 91.3331 179.451 91.5009C179.371 91.7442 179.331 91.999 179.333 92.2551V102.13C179.356 102.433 179.293 102.737 179.152 103.006C179.01 103.274 178.795 103.498 178.532 103.65Z" fill="#BA68C8"/>
<path d="M195.136 92.6437L194.488 93.822C194.272 94.2758 193.933 94.6597 193.51 94.9297L188.395 97.8757C187.853 98.1821 187.582 97.9818 187.582 97.2747V80.2469C187.558 79.9407 187.622 79.6339 187.766 79.3625C187.91 79.0912 188.128 78.8665 188.395 78.715L193.51 75.7573C193.65 75.6511 193.822 75.5938 193.999 75.5938C194.175 75.5938 194.347 75.6511 194.488 75.7573L195.136 76.2522C195.283 76.386 195.396 76.5532 195.466 76.7398C195.536 76.9263 195.56 77.1268 195.536 77.3245V91.0646C195.531 91.6154 195.393 92.1568 195.136 92.6437ZM190.222 94.4348L192.909 92.8793C193.173 92.7252 193.388 92.4996 193.53 92.2287C193.671 91.9577 193.734 91.6523 193.71 91.3474V79.151C193.71 78.4322 193.439 78.2319 192.909 78.5383L190.222 80.082C189.955 80.2335 189.736 80.4581 189.592 80.7295C189.448 81.0008 189.384 81.3076 189.409 81.6139V93.8338C189.409 94.5409 189.68 94.7412 190.222 94.4348Z" fill="#BA68C8"/>
<path d="M202.183 76.052L201.759 76.2877C201.217 76.6058 200.957 76.4173 200.957 75.7338V74.5554C200.928 74.2435 200.988 73.9297 201.13 73.6503C201.272 73.3709 201.49 73.1373 201.759 72.9764L202.183 72.7289C202.713 72.4225 202.984 72.6347 202.984 73.3888V74.5672C203.003 74.865 202.938 75.1621 202.797 75.4246C202.655 75.6871 202.442 75.9046 202.183 76.052ZM202.183 85.868L201.759 86.1155C201.217 86.4219 200.957 86.2333 200.957 85.5616V84.3833C200.926 84.0694 200.985 83.7531 201.127 83.4714C201.269 83.1897 201.488 82.9542 201.759 82.7924L202.183 82.545C202.713 82.2386 202.984 82.4625 202.984 83.2049V84.3833C203.005 84.6812 202.94 84.9788 202.798 85.2416C202.657 85.5044 202.443 85.7216 202.183 85.868Z" fill="#BA68C8"/>
<path d="M209.17 87.53C209.169 87.7689 209.108 88.0039 208.994 88.2134C208.87 88.4366 208.686 88.6204 208.463 88.7437L208.063 88.9794C207.623 89.2308 207.316 89.113 207.144 88.6259L205.965 85.7152C205.826 85.3596 205.735 84.9872 205.694 84.6076L205.022 79.2459C205.022 78.9041 205.022 78.692 205.022 78.5977C205.022 78.5035 205.022 78.2442 205.022 77.9143L205.694 71.7395C205.745 71.2614 205.836 70.7884 205.965 70.3254L207.144 66.1186C207.239 65.5735 207.543 65.0872 207.992 64.7634L208.393 64.5277C208.546 64.4176 208.736 64.3712 208.923 64.3981C209.041 64.4452 209.1 64.5866 209.1 64.8223C209.1 65.01 209.072 65.1968 209.017 65.3762L207.839 69.3591C207.707 69.8303 207.613 70.311 207.556 70.7968L206.955 76.6888C206.955 77.0305 206.955 77.2544 206.955 77.384C206.955 77.5136 206.955 77.7257 206.955 78.0321L207.556 83.2171C207.599 83.6204 207.694 84.0165 207.839 84.3955L209.017 87.0468C209.105 87.1939 209.157 87.3593 209.17 87.53Z" fill="#BA68C8"/>
<path opacity="0.6" d="M154.964 98.0289L148.648 101.682C148.382 101.834 148.165 102.059 148.023 102.331C147.881 102.602 147.82 102.909 147.847 103.214V120.289C147.847 120.996 148.106 121.208 148.648 120.89L148.86 120.76C149.127 120.609 149.346 120.384 149.49 120.113C149.634 119.841 149.698 119.534 149.673 119.228V113.713C149.649 113.408 149.712 113.103 149.853 112.832C149.995 112.561 150.211 112.336 150.475 112.181L154.964 109.542C155.229 109.389 155.445 109.163 155.587 108.892C155.729 108.621 155.791 108.315 155.766 108.01V107.715C155.766 106.996 155.506 106.796 154.964 107.103L150.475 109.707C149.933 110.013 149.673 109.813 149.673 109.094V104.593C149.646 104.287 149.708 103.981 149.85 103.709C149.992 103.438 150.209 103.213 150.475 103.061L154.964 100.468C155.229 100.312 155.445 100.084 155.587 99.8114C155.728 99.5384 155.79 99.231 155.766 98.9244V98.6298C155.73 97.9228 155.471 97.7578 154.964 98.0289ZM123.878 115.905L123.666 116.023C123.398 116.182 123.18 116.414 123.036 116.691C122.892 116.968 122.829 117.279 122.853 117.59V127.017C122.86 127.261 122.825 127.505 122.747 127.736C122.7 127.898 122.595 128.036 122.452 128.125C122.411 128.154 122.362 128.169 122.311 128.169C122.26 128.169 122.211 128.154 122.17 128.125C122.052 128.049 121.961 127.938 121.91 127.807L118.682 119.747C118.505 119.287 118.198 119.193 117.762 119.452L117.362 119.676C117.094 119.835 116.876 120.066 116.735 120.344C116.593 120.621 116.532 120.933 116.56 121.243V138.342C116.56 139.049 116.82 139.261 117.362 138.943L117.586 138.825C117.849 138.667 118.063 138.439 118.204 138.166C118.346 137.894 118.409 137.587 118.387 137.281V127.406C118.38 127.154 118.42 126.902 118.505 126.664C118.554 126.494 118.658 126.345 118.799 126.24C119.023 126.122 119.188 126.24 119.33 126.593L122.735 135.042C122.912 135.478 123.218 135.561 123.666 135.313L123.878 135.184C124.145 135.031 124.362 134.806 124.506 134.535C124.65 134.264 124.714 133.958 124.691 133.652V116.53C124.691 115.799 124.42 115.587 123.878 115.905ZM164.45 93.0443C164.308 92.9353 164.134 92.8763 163.955 92.8763C163.776 92.8763 163.602 92.9353 163.461 93.0443L159.572 95.295C159.142 95.5613 158.798 95.9459 158.582 96.4027L157.946 97.5811C157.688 98.0637 157.551 98.6013 157.545 99.1483V112.959C157.521 113.159 157.545 113.361 157.615 113.549C157.685 113.738 157.798 113.907 157.946 114.043L158.606 114.538C158.748 114.641 158.919 114.696 159.095 114.696C159.27 114.696 159.441 114.641 159.584 114.538L163.461 112.311C163.888 112.042 164.231 111.658 164.45 111.203L165.087 110.025C165.344 109.542 165.482 109.005 165.487 108.458V94.6115C165.511 94.412 165.487 94.2098 165.417 94.0214C165.348 93.8329 165.234 93.6637 165.087 93.5274L164.45 93.0443ZM163.661 108.693C163.685 108.998 163.622 109.304 163.481 109.575C163.339 109.846 163.124 110.071 162.86 110.225L160.173 111.781C159.631 112.087 159.371 111.887 159.371 111.18V98.9362C159.347 98.6296 159.409 98.3222 159.55 98.0492C159.692 97.7762 159.908 97.5486 160.173 97.3925L162.86 95.8488C163.39 95.5307 163.661 95.7428 163.661 96.4498V108.693ZM133.6 110.85C133.457 110.743 133.284 110.685 133.105 110.685C132.927 110.685 132.753 110.743 132.61 110.85L128.721 113.101C128.295 113.365 127.952 113.745 127.732 114.196L127.095 115.375C126.838 115.862 126.7 116.403 126.695 116.954V130.753C126.671 130.952 126.695 131.155 126.765 131.343C126.834 131.531 126.948 131.701 127.095 131.837L127.755 132.344C127.898 132.446 128.069 132.502 128.244 132.502C128.42 132.502 128.591 132.446 128.733 132.344L132.61 130.105C133.04 129.838 133.383 129.454 133.6 128.997L134.236 127.819C134.494 127.336 134.631 126.798 134.637 126.251V112.417C134.66 112.219 134.636 112.019 134.567 111.832C134.497 111.646 134.384 111.479 134.236 111.345L133.6 110.85ZM132.81 126.511C132.836 126.816 132.774 127.122 132.632 127.393C132.49 127.664 132.274 127.889 132.009 128.043L129.322 129.574C128.78 129.881 128.521 129.681 128.521 128.962V116.73C128.494 116.425 128.555 116.118 128.697 115.847C128.839 115.575 129.056 115.35 129.322 115.198L132.009 113.643C132.551 113.336 132.81 113.537 132.81 114.255V126.511ZM142.591 105.099L136.24 108.764C135.974 108.922 135.757 109.152 135.616 109.427C135.474 109.702 135.413 110.011 135.438 110.32V110.614C135.438 111.309 135.709 111.51 136.24 111.203L137.713 110.355C138.243 110.048 138.514 110.249 138.514 110.991V125.627C138.514 126.357 138.785 126.57 139.315 126.263L139.539 126.134C139.805 125.973 140.021 125.741 140.162 125.464C140.304 125.187 140.366 124.876 140.34 124.566V109.931C140.315 109.622 140.376 109.313 140.518 109.038C140.66 108.763 140.876 108.533 141.142 108.375L142.591 107.539C142.852 107.387 143.066 107.166 143.208 106.899C143.349 106.632 143.413 106.331 143.392 106.03V105.736C143.392 105.005 143.18 104.828 142.591 105.099ZM174.643 86.5984L174.42 86.7163C174.156 86.8744 173.942 87.1024 173.801 87.3749C173.659 87.6474 173.596 87.9538 173.618 88.26V102.919C173.642 103.229 173.58 103.539 173.439 103.816C173.297 104.092 173.082 104.324 172.817 104.486L170.13 106.007C169.588 106.325 169.317 106.113 169.317 105.382V90.6875C169.317 89.9804 169.058 89.7683 168.516 90.0865L168.304 90.2043C168.037 90.3599 167.82 90.587 167.676 90.8599C167.533 91.1328 167.468 91.4404 167.491 91.748V107.185C167.47 107.385 167.496 107.588 167.567 107.776C167.639 107.965 167.754 108.133 167.903 108.269L168.563 108.764C168.702 108.874 168.875 108.934 169.052 108.934C169.229 108.934 169.402 108.874 169.541 108.764L173.418 106.525C173.857 106.242 174.199 105.831 174.396 105.347L175.044 104.168C175.302 103.686 175.439 103.148 175.445 102.601V87.1523C175.445 86.4924 175.174 86.2803 174.643 86.5984ZM202.183 82.5212L201.758 82.7687C201.488 82.9304 201.268 83.1659 201.126 83.4476C200.985 83.7293 200.926 84.0456 200.957 84.3595V85.5379C200.957 86.2096 201.216 86.3981 201.758 86.0917L202.183 85.8443C202.441 85.6988 202.653 85.4834 202.795 85.2229C202.937 84.9624 203.002 84.6673 202.984 84.3713V83.1929C202.984 82.4387 202.713 82.2148 202.183 82.5212ZM207.898 84.4184C207.753 84.0394 207.658 83.6433 207.615 83.24L207.014 78.0551C207.014 77.7487 207.014 77.5366 207.014 77.407C207.014 77.2773 207.014 77.0534 207.014 76.7117L207.615 70.8197C207.672 70.3339 207.766 69.8532 207.898 69.3821L209.076 65.3991C209.131 65.2197 209.159 65.033 209.159 64.8453C209.159 64.6096 209.1 64.4682 208.982 64.421C208.795 64.3941 208.605 64.4406 208.452 64.5507L207.992 64.7628C207.527 65.0622 207.197 65.5316 207.073 66.0708L205.894 70.2777C205.771 70.742 205.68 71.2145 205.623 71.6917L204.952 77.8665C204.952 78.1965 204.952 78.4322 204.952 78.55C204.952 78.6678 204.952 78.8564 204.952 79.1981L205.623 84.5598C205.67 84.9384 205.761 85.3101 205.894 85.6675L207.073 88.5781C207.246 89.0574 207.552 89.1752 207.992 88.9317L208.393 88.696C208.616 88.5726 208.8 88.3888 208.923 88.1657C209.038 87.9561 209.099 87.7212 209.1 87.4822C209.105 87.3249 209.077 87.1682 209.017 87.0227L207.898 84.4184ZM202.183 72.7052L201.758 72.9526C201.489 73.1135 201.272 73.3471 201.13 73.6265C200.988 73.9059 200.928 74.2197 200.957 74.5317V75.7101C200.957 76.3935 201.216 76.5821 201.758 76.2639L202.183 76.0282C202.442 75.8808 202.655 75.6634 202.796 75.4008C202.938 75.1383 203.003 74.8412 202.984 74.5435V73.3651C202.984 72.6109 202.713 72.3988 202.183 72.7052ZM184.778 80.7418L184.554 80.8714C184.288 81.0295 184.072 81.2591 183.93 81.5342C183.788 81.8092 183.727 82.1186 183.752 82.4269V91.8541C183.759 92.0942 183.723 92.3336 183.646 92.5611C183.597 92.7216 183.493 92.8594 183.352 92.95C183.308 92.9784 183.257 92.9935 183.204 92.9935C183.152 92.9935 183.101 92.9784 183.057 92.95C182.941 92.8756 182.853 92.7632 182.81 92.6318L179.581 84.5716C179.404 84.1238 179.098 84.0177 178.65 84.277L178.249 84.5127C177.983 84.6707 177.767 84.9004 177.625 85.1754C177.484 85.4505 177.422 85.7598 177.448 86.0682V103.167C177.448 103.885 177.719 104.086 178.249 103.779L178.532 103.65C178.797 103.497 179.013 103.271 179.155 103C179.297 102.729 179.359 102.423 179.333 102.118V92.2429C179.331 91.9868 179.371 91.7321 179.451 91.4888C179.505 91.321 179.612 91.1758 179.758 91.0763C179.97 90.9467 180.147 91.0763 180.276 91.4298L183.694 99.8672C183.87 100.303 184.177 100.397 184.613 100.138L184.837 100.009C185.101 99.8544 185.316 99.6289 185.458 99.3579C185.599 99.0869 185.662 98.7815 185.638 98.4767V81.3781C185.603 80.6475 185.308 80.4354 184.778 80.7418ZM194.488 75.7454C194.347 75.6393 194.175 75.5819 193.999 75.5819C193.822 75.5819 193.651 75.6393 193.51 75.7454L188.395 78.7032C188.128 78.8547 187.91 79.0793 187.766 79.3507C187.622 79.622 187.558 79.9289 187.582 80.2351V97.31C187.582 98.0171 187.853 98.2174 188.395 97.911L193.51 94.965C193.933 94.695 194.272 94.3111 194.488 93.8573L195.136 92.679C195.393 92.1921 195.531 91.6507 195.536 91.0999V77.3127C195.56 77.115 195.536 76.9144 195.466 76.7279C195.396 76.5414 195.283 76.3742 195.136 76.2403L194.488 75.7454ZM193.71 91.3474C193.734 91.6522 193.671 91.9577 193.53 92.2286C193.388 92.4996 193.173 92.7251 192.909 92.8793L190.222 94.4348C189.68 94.7411 189.409 94.5408 189.409 93.8338V81.6256C189.384 81.3194 189.448 81.0126 189.592 80.7412C189.736 80.4698 189.955 80.2452 190.222 80.0937L192.909 78.5382C193.439 78.2318 193.71 78.4322 193.71 79.151V91.3474Z" fill="white"/>
<path d="M384.468 423.726C379.769 421.581 374.796 420.094 369.691 419.307C366.567 418.789 363.378 418.817 360.264 419.389C358.046 419.843 355.899 420.587 353.877 421.605C346.948 425.045 345.946 428.875 345.722 432.116C345.499 435.356 347.29 439.693 353.017 443.699L451.307 512.553C469.197 503.022 485.824 491.288 500.799 477.625C458.094 457.781 388.404 425.411 384.468 423.726Z" fill="#263238"/>
<path d="M415.92 278.818C421.953 279.997 424.31 280.409 427.197 285.406C430.084 290.402 434.986 308.973 436.33 312.827C437.673 316.68 438.074 318.082 437.508 322.372C436.931 326.85 434.291 334.804 433.183 339.164C432.665 341.179 432.323 343.147 431.946 345.209C431.425 347.32 430.755 349.391 429.943 351.407C429.595 352.391 428.988 353.262 428.187 353.929C427.692 354.365 427.009 354.412 426.537 354.813C426.066 355.214 425.936 355.921 425.276 356.251C424.616 356.581 423.697 356.392 423.049 356.769C422.41 357.238 421.745 357.671 421.058 358.065C420.425 358.25 419.846 358.585 419.373 359.043C418.948 359.503 418.548 360.54 417.782 360.458C417.016 360.375 416.792 359.55 416.757 358.843C416.784 357.456 417.254 356.114 418.1 355.013C418.852 353.788 419.674 352.608 420.563 351.478C421.428 350.43 422.048 349.202 422.378 347.884C422.649 347 422.566 345.881 421.423 346.387C420.091 347 418.677 348.273 417.075 347.99C415.967 347.802 415.896 346.93 416.544 346.199C417.61 344.995 418.587 343.715 419.467 342.369C420.362 340.99 421.105 339.541 422.036 338.198C422.539 337.5 423.086 336.834 423.674 336.206C425.3 334.439 425.229 332.023 425.418 329.772C425.677 326.649 425.901 318.636 425.901 318.636L418.595 300.642L415.92 278.818Z" fill="#FFBDA7"/>
<path d="M425.429 329.772C425.5 326.06 425.653 322.348 425.795 318.636C423.438 312.909 420.916 306.605 418.606 300.642C421.152 306.605 423.626 312.595 426.03 318.613C425.842 322.336 425.677 326.06 425.429 329.772Z" fill="white"/>
<path d="M375.184 418.564C377.258 417.833 378.801 417.763 378.778 418.788C378.497 420.051 378.049 421.272 377.446 422.417L375.796 424.692L375.007 426.93C375.007 426.93 374.041 428.109 373.982 428.227C373.923 428.345 373.605 424.043 373.605 424.043C373.605 424.043 372.438 419.094 375.184 418.564Z" fill="#263238"/>
<path d="M397.455 331.08C397.455 331.08 392.741 336.677 389.949 347.165C387.372 356.912 385.404 366.81 384.057 376.802C383.385 381.268 382.301 386.9 380.698 395.656C379.461 402.396 375.572 423.065 375.572 423.065C375.572 423.065 377.811 426.789 380.522 427.92C384.41 429.547 388.158 428.804 388.652 425.328C388.652 425.328 391.221 421.227 395.122 410.645C396.997 405.787 398.494 400.792 399.6 395.703C399.986 392.509 400.1 389.289 399.941 386.076L415.591 358.866C417.32 355.886 419.393 353.117 421.765 350.618C423.231 349.117 424.381 347.338 425.147 345.386C427.74 338.315 423.969 328.806 423.969 328.806L397.455 331.08Z" fill="#263238"/>
<path d="M384.115 376.79C381.594 392.286 378.706 407.723 375.631 423.113C378.341 407.652 381.24 392.227 384.115 376.79Z" fill="white"/>
<path d="M378.011 435.026L377.175 434.861C377.234 434.543 383.503 402.279 387.886 388.727C392.27 375.176 403.759 348.261 403.877 347.99L404.667 348.332C404.549 348.591 393.083 375.494 388.711 388.998C384.339 402.503 378.082 434.708 378.011 435.026Z" fill="black"/>
<path d="M418.054 340.142H392.353C391.412 342.424 390.625 344.767 389.996 347.154C387.62 356.128 385.79 365.238 384.517 374.433C385.141 378.64 385.848 382.965 386.496 385.934C388.229 393.783 389.313 399.321 390.68 402.562C391.999 405.301 393.557 407.919 395.334 410.386C397.164 405.627 398.626 400.734 399.706 395.751C400.092 392.557 400.206 389.336 400.048 386.123L415.367 359.55L416.463 355.367C420.269 349.039 419.833 344.29 418.054 340.142Z" fill="black"/>
<path d="M354.114 429.016C353.654 428.804 353.088 430.607 353.041 431.255C352.994 431.903 354.22 434.543 357.437 436.487C360.654 438.432 366.18 439.516 368.254 440.164C370.328 440.812 371.99 442.521 374.724 443.852C377.151 445.031 380.816 445.655 382.419 444.936C382.728 444.752 382.994 444.503 383.197 444.206C383.4 443.909 383.537 443.571 383.597 443.216C384.033 441.884 383.998 441.578 383.833 441.531L354.114 429.016Z" fill="#37474F"/>
<path d="M384.976 438.585C384.764 439.946 384.313 441.258 383.644 442.462C383.175 442.815 382.641 443.07 382.073 443.214C381.504 443.358 380.913 443.387 380.333 443.299C377.837 443.12 375.434 442.282 373.368 440.871C371.791 439.845 370.088 439.025 368.301 438.432C365.843 437.839 363.429 437.075 361.078 436.146C359.323 435.405 357.691 434.404 356.234 433.176C355.056 432.069 353.96 430.819 354.078 429.264C354.343 428.285 354.904 427.411 355.684 426.764C356.465 426.116 357.427 425.726 358.438 425.646C360.374 425.548 362.31 425.841 364.13 426.507C365.898 427.105 367.728 427.5 369.586 427.685C370.858 427.791 372.355 428.863 373.345 427.744C374.523 426.448 374.983 423.384 375.772 421.852C375.902 421.604 376.079 421.333 376.35 421.274C376.621 421.216 377.069 421.545 377.316 421.875C378.47 423.315 379.948 424.462 381.629 425.222C386.178 427.473 388.287 426.283 388.287 426.283L388.711 425.34C388.711 425.34 389.618 425.847 388.464 427.968C387.489 429.712 386.669 431.537 386.013 433.424C385.439 435.091 385.091 436.826 384.976 438.585Z" fill="#455A64"/>
<path d="M354.114 429.264C355.54 423.985 361.526 425.399 365.392 426.731C366.761 427.213 368.18 427.541 369.622 427.709C368.165 427.643 366.722 427.386 365.333 426.943C361.515 425.764 355.776 424.256 354.114 429.299V429.264Z" fill="white"/>
<path d="M364.979 426.742C363.034 426.919 362.504 430.065 362.504 430.065C364.246 431.001 366.142 431.615 368.101 431.88C369.464 432.116 370.865 431.835 372.032 431.091C373.198 430.348 374.044 429.196 374.406 427.862C375.231 425.234 374.476 421.557 374.323 420.367C374.234 419.958 374.307 419.531 374.527 419.174C374.746 418.818 375.096 418.561 375.502 418.458C375.168 418.489 374.844 418.589 374.551 418.75C374.258 418.912 374.001 419.132 373.796 419.398C373.591 419.663 373.444 419.968 373.362 420.292C373.281 420.617 373.267 420.956 373.322 421.286C373.38 422.7 373.322 425.493 372.721 426.424C372.12 427.355 369.115 427.767 364.979 426.742Z" fill="#455A64"/>
<path d="M413.693 331.08C416.524 334.425 418.179 338.606 418.407 342.982C418.601 347.233 417.267 351.413 414.647 354.766C413.669 369.095 410.841 396.681 410.841 396.681C414.624 400.57 415.555 403.092 417.794 410.068C419.125 414.31 424.122 427.944 425.359 431.739C418.736 432.552 415.131 439.139 415.131 439.139C415.131 439.139 403.464 421.911 397.855 411.777C393.696 404.282 391.775 401.548 390.537 397.117C389.006 391.591 388.593 388.739 387.226 379.441C385.859 370.144 384.551 358.313 383.88 349.145C383.208 339.977 382.701 330.291 382.701 330.291L413.693 331.08Z" fill="#263238"/>
<path d="M415.179 439.103C408.379 429.087 401.71 418.953 395.865 408.347C393.942 405.255 392.29 402.002 390.927 398.626C389.837 395.156 389.002 391.611 388.429 388.02C385.421 368.875 383.517 349.572 382.726 330.208L383.715 344.702C384.611 359.208 386.414 373.644 388.724 387.973C389.56 392.686 390.432 397.553 392.577 401.89C399.455 414.688 407 427.118 415.179 439.127V439.103Z" fill="white"/>
<path d="M398.693 401.147C395.264 392.404 391.151 344.808 391.363 328.358H390.503C390.432 333.861 390.845 342.829 391.552 352.668C388.759 351.254 386.956 348.662 386.956 335.629H386.096C386.096 348.732 387.804 351.902 391.622 353.658C393.06 373.149 395.629 395.691 397.891 401.477C401.25 410.032 418.773 438.938 418.938 439.186L419.68 438.738C419.503 438.479 402.028 409.644 398.693 401.147Z" fill="black"/>
<path d="M414.212 437.643C413.163 439.127 411.973 440.176 414.954 442.156C417.311 443.676 417.394 444.901 418.113 446.528C418.581 448.113 418.772 449.768 418.678 451.418C418.678 451.418 422.638 445.444 421.483 441.59C420.328 437.737 414.212 437.643 414.212 437.643Z" fill="#455A64"/>
<path d="M426.903 434.225C428.018 435.402 429.33 436.375 430.78 437.1C431.782 437.725 432.819 438.279 433.137 439.457C433.137 439.587 432.548 440.294 432.559 440.423C432.61 440.985 432.591 441.552 432.5 442.109C432.276 444.053 431.216 445.491 430.98 447.423C430.903 448.195 430.765 448.959 430.568 449.709C430.398 450.622 430.323 451.55 430.344 452.478C430.285 453.445 430.214 454.411 430.167 455.377C430.114 455.788 430.114 456.204 430.167 456.615C430.25 457.027 423.674 460.338 421.023 461.611C420.866 461.687 420.704 461.754 420.54 461.811C418.922 462.251 417.199 462.084 415.697 461.34C410.417 459.419 410.747 457.51 410.747 457.51C410.774 456.72 411.024 455.953 411.468 455.298C411.912 454.643 412.533 454.127 413.257 453.81C413.579 453.623 413.918 453.469 414.271 453.35C415.584 452.863 417.017 452.793 418.371 453.15C418.639 452.366 418.763 451.539 418.737 450.711C418.845 449.473 418.865 448.228 418.796 446.987C418.562 445.585 418.018 444.252 417.205 443.087C416.085 441.543 414.848 439.551 414.106 438.467C413.363 437.383 413.163 434.767 417.558 431.621C421.777 428.616 424.864 429.264 425.465 430.501C425.8 431.794 426.282 433.043 426.903 434.225Z" fill="#455A64"/>
<path d="M410.677 457.522C410.677 453.881 415.32 452.054 418.348 453.127C415.249 452.549 411.125 453.987 410.677 457.522Z" fill="white"/>
<path opacity="0.1" d="M415.556 455.035C415.908 454.137 416.573 453.396 417.429 452.95C417.74 452.985 418.047 453.044 418.348 453.126C417.818 453.633 415.921 454.387 415.556 455.035Z" fill="black"/>
<path d="M433.75 440.6C434.928 441.095 433.95 442.957 432.571 445.844C431.325 447.977 430.828 450.466 431.157 452.914C431.44 455.472 430.839 456.721 429.731 457.628C428.624 458.535 420.398 462.129 420.398 462.129C422.354 459.659 423.487 456.639 423.639 453.492C424.087 447.859 424.629 444.241 427.433 441.779C428.306 441.073 429.34 440.596 430.442 440.39C431.545 440.184 432.682 440.256 433.75 440.6Z" fill="black"/>
<path d="M410.677 457.51C410.806 458.618 413.953 460.856 417.665 460.809C421.377 460.762 421.695 459.973 422.272 455.624C422.85 451.276 423.25 445.231 425.136 442.662C427.021 440.093 429.496 438.538 433.113 439.48C433.526 439.681 434.645 440.8 434.233 441.837C434.233 441.837 434.233 441.012 432.748 440.576C431.476 440.211 429.955 440.246 427.834 442.085C425.348 444.218 424.794 449.249 424.511 453.562C424.228 457.875 422.885 462.011 419.314 462.4C417.773 462.609 416.205 462.479 414.719 462.019C413.233 461.559 411.866 460.78 410.712 459.737C410.489 459.013 410.477 458.24 410.677 457.51Z" fill="#37474F"/>
<path d="M389.394 251.763C388.914 251.085 388.617 250.295 388.534 249.468C388.452 248.642 388.586 247.808 388.923 247.049C389.524 245.517 390.773 243.903 394.414 242.017C398.751 239.778 410.653 238.176 416.545 245.965C417.393 247.143 405.68 269.12 406.257 273.681C403.217 270.487 393.189 259.257 393.189 259.257C390.832 258.244 389.371 257.384 388.864 255.145C388.681 253.99 388.867 252.806 389.394 251.763Z" fill="#263238"/>
<path d="M393.188 259.198C389.653 258.267 387.402 255.168 389.394 251.727C387.885 255.262 389.9 257.831 393.188 259.198Z" fill="white"/>
<path d="M389.394 251.763C387.91 250.136 388.275 247.52 389.394 245.776C390.694 244.084 392.429 242.777 394.414 241.994C393.509 242.515 392.636 243.089 391.798 243.714C389.336 245.423 387.497 249.017 389.442 251.763H389.394Z" fill="white"/>
<path d="M391.185 258.02C391.185 258.02 387.968 263.264 388.334 263.7C389.073 264.288 389.862 264.813 390.69 265.267L391.185 258.02Z" fill="#F0997A"/>
<path d="M391.185 258.02C390.384 259.705 389.418 261.296 388.628 262.969C388.522 263.24 388.298 263.558 388.451 263.747C388.654 263.98 388.892 264.179 389.158 264.336C388.84 264.159 388.31 264.018 388.239 263.594C388.888 261.578 389.885 259.691 391.185 258.02Z" fill="white"/>
<path d="M395.168 248.427C393.012 249.453 391.15 251.102 390.455 255.828C390.278 257.065 391.244 258.75 390.808 260.388C388.935 267.458 391.162 273.35 392.529 274.588C393.448 275.46 398.279 275.849 400.778 275.142C403.948 274.258 410.841 271.147 414.129 266.186C417.994 260.294 418.842 252.516 414.588 249.37C408.59 244.939 397.466 247.343 395.168 248.427Z" fill="#FFBDA7"/>
<path d="M390.479 255.828C390.479 257.431 391.421 258.998 390.879 260.636C389.878 265.196 389.807 270.617 392.553 274.588C389.536 270.747 389.536 265.161 390.691 260.589C391.233 259.033 390.337 257.443 390.479 255.875V255.828Z" fill="white"/>
<path d="M411.654 269.521L412.903 278.206C414.847 278.618 415.024 280.916 414.081 282.648L414.541 285.099L401.248 287.48L399.764 275.33L411.654 269.521Z" fill="#FFBDA7"/>
<path d="M392.812 274.765C393.99 275.389 396.406 275.849 399.776 275.378L399.575 273.657C398.506 274.058 397.407 274.374 396.288 274.6C395.144 274.827 393.972 274.882 392.812 274.765Z" fill="#F0997A"/>
<path d="M391.987 250.949C391.897 251.969 392.164 252.988 392.742 253.833C393.32 254.677 394.174 255.295 395.157 255.58C394.632 256.709 394.436 257.963 394.591 259.198C394.635 259.928 394.887 260.629 395.317 261.22C395.748 261.811 396.338 262.267 397.018 262.533C397.949 262.851 398.197 262.439 398.562 261.696C399.034 260.648 399.635 259.045 401.885 259.339C404.466 259.693 405.149 263.582 403.641 266.127C403.351 266.665 402.935 267.124 402.428 267.465C401.921 267.806 401.338 268.018 400.73 268.083C400.396 268.078 400.066 268.002 399.764 267.86C399.461 267.718 399.192 267.513 398.975 267.258C398.975 267.258 399.14 270.652 403.511 272.667C406.246 274.122 409.414 274.54 412.432 273.846C414.464 271.588 416.38 269.228 418.171 266.775C422.884 259.893 423.886 247.296 415.814 245.034C415.425 244.928 408.084 243.855 404.501 244.68C393.46 247.037 392.01 250.419 391.987 250.949Z" fill="#263238"/>
<path d="M411.913 244.15C410.937 244.853 410.266 245.903 410.039 247.084C409.938 247.673 409.994 248.278 410.201 248.839C410.408 249.399 410.758 249.896 411.218 250.278C413.574 252.128 417.251 249.971 417.687 247.238C418.182 244.009 414.293 242.383 411.913 244.15Z" fill="#BA68C8"/>
<path d="M413.834 245.175C411.419 246.66 409.91 250.16 411.195 252.682C411.548 253.365 412.043 253.978 412.373 254.697C413.304 256.995 411.949 259.528 411.654 261.991C411.453 263.946 411.791 265.919 412.632 267.695C413.434 269.003 415.201 269.332 415.908 270.699C416.391 271.642 416.062 272.797 416.25 273.846C416.663 276.096 419.326 277.181 421.624 277.228C422.595 277.314 423.574 277.185 424.49 276.851C425.406 276.517 426.238 275.986 426.926 275.295C427.453 274.477 428.028 273.69 428.647 272.938C430.014 271.654 432.182 271.76 433.69 270.582C434.248 270.089 434.685 269.475 434.967 268.786C435.249 268.097 435.369 267.353 435.316 266.61C435.177 265.123 434.779 263.671 434.138 262.321C433.16 259.964 433.938 258.444 434.433 256.052C434.665 254.76 434.451 253.427 433.825 252.273C433.2 251.119 432.201 250.212 430.992 249.7C429.33 249.041 427.303 249.147 425.96 247.956C425.323 247.202 424.725 246.415 424.169 245.6C421.647 242.83 416.674 243.443 413.834 245.175Z" fill="#263238"/>
<path d="M423.32 285.311C422.79 283.871 421.951 282.564 420.862 281.483C419.773 280.402 418.46 279.573 417.016 279.054C415.837 278.7 412.903 278.206 412.903 278.206C413.575 279.737 412.443 280.751 410.452 281.21C407.895 281.811 403.994 281.87 401.343 280.115L400.259 279.443C397.365 280.154 394.51 281.011 391.704 282.012C391.126 282.283 387.933 283.355 382.913 294.632C380.768 299.452 381.404 304.342 385.352 307.819C385.576 310.871 383.608 317.741 383.608 317.741C382.607 323.474 382.378 329.316 382.925 335.11C382.925 335.11 385.281 341.356 403.971 341.285C418.43 341.285 425.7 334.215 425.7 334.215C425.524 330.679 419.962 318.271 420.515 314.099C421.376 308.019 426.949 297.119 423.32 285.311Z" fill="#BA68C8"/>
<path d="M391.704 282.012C395.51 285.111 395.805 289.365 395.239 295.104C394.674 300.843 388.911 318.778 387.733 322.679C386.554 326.579 384.869 327.934 381.9 331.092C378.93 334.25 371.989 339.27 368.537 342.146C366.934 343.477 365.508 344.868 363.988 346.317C362.327 347.718 360.571 349.002 358.732 350.159C357.873 350.747 356.872 351.097 355.834 351.172C355.174 351.172 354.596 350.866 353.972 350.913C353.347 350.96 352.793 351.455 352.11 351.337C351.426 351.219 350.743 350.524 350.001 350.442C349.214 350.453 348.427 350.417 347.644 350.336C347.023 350.105 346.354 350.036 345.699 350.135C345.087 350.253 344.156 350.854 343.578 350.347C343.001 349.841 343.319 349.028 343.696 348.427C344.53 347.302 345.703 346.476 347.043 346.07C348.369 345.522 349.726 345.053 351.108 344.667C352.408 344.319 353.616 343.687 354.643 342.817C355.374 342.264 355.963 341.297 354.75 341.05C353.312 340.755 351.415 340.956 350.272 339.789C349.494 338.988 349.953 338.245 350.908 338.033C352.477 337.687 354.017 337.222 355.515 336.643C357.047 336.053 358.497 335.311 360.04 334.769C360.864 334.503 361.702 334.287 362.55 334.121C364.907 333.638 366.262 331.646 367.724 329.938C369.774 327.581 373.297 323.079 375.69 319.85L379.307 302.351C381.593 292.853 382.395 284.887 391.704 282.012Z" fill="#FFBDA7"/>
<path d="M395.215 295.104C394.296 300.289 393.032 305.406 391.433 310.423C391.315 310.836 391.185 311.236 391.067 311.601C389.618 316.515 388.216 320.946 387.697 322.667C386.637 326.202 385.14 327.663 382.654 330.255L381.864 331.08C378.765 334.368 371.954 339.258 368.501 342.145C366.91 343.477 365.473 344.856 363.964 346.305C362.3 347.71 360.54 348.997 358.697 350.159C357.836 350.742 356.836 351.088 355.798 351.16C355.138 351.219 354.561 350.854 353.936 350.901C353.312 350.948 352.758 351.443 352.074 351.325C351.391 351.207 350.707 350.512 349.965 350.441C349.178 350.448 348.391 350.409 347.608 350.323C346.986 350.099 346.319 350.03 345.664 350.123C345.475 350.123 345.251 350.253 345.016 350.335L344.721 350.43C344.588 350.479 344.45 350.511 344.309 350.524C344.177 350.55 344.041 350.547 343.91 350.514C343.78 350.482 343.658 350.421 343.554 350.335C342.906 349.77 343.283 349.027 343.661 348.426C344.493 347.301 345.667 346.474 347.007 346.069C348.333 345.518 349.691 345.045 351.073 344.655C352.373 344.306 353.58 343.675 354.608 342.805C355.338 342.252 355.928 341.297 354.714 341.038C353.276 340.743 351.379 340.943 350.248 339.789C349.458 338.976 349.918 338.233 350.872 338.021C352.441 337.676 353.982 337.211 355.48 336.631C357.012 336.041 358.473 335.299 360.005 334.769C360.825 334.495 361.664 334.278 362.515 334.121C364.872 333.637 366.227 331.634 367.688 329.937C369.738 327.58 373.262 323.067 375.666 319.838L379.272 302.339C381.558 292.794 382.394 284.828 391.668 281.965C392.626 282.741 393.426 283.693 394.025 284.769C395.604 287.55 395.639 290.932 395.215 295.104Z" fill="#FFBDA7"/>
<path d="M343.508 350.347C343.288 350.124 343.157 349.829 343.14 349.516C343.122 349.204 343.22 348.896 343.413 348.65C344.297 346.941 346.218 346.211 347.915 345.633C349.043 345.103 350.229 344.708 351.45 344.455C352.608 344.097 353.696 343.543 354.667 342.817C353.748 343.641 352.675 344.274 351.509 344.679C349.155 345.256 346.894 346.16 344.792 347.366C344.014 347.99 342.659 349.298 343.555 350.3L343.508 350.347Z" fill="white"/>
<path d="M350.272 339.836C348.811 338.163 351.639 337.951 352.699 337.597C355.504 336.878 357.979 335.335 360.736 334.557C362.15 334.34 363.502 333.831 364.707 333.06C366.628 331.54 368.69 328.488 370.281 326.567L375.584 319.815C376.762 313.923 378.636 304.743 380.038 298.757C381.535 291.687 383.833 284.133 391.704 282.012C383.95 284.216 381.688 291.722 380.25 298.804C378.836 304.885 377.139 313.782 375.808 320.015L370.458 326.756C368.82 328.688 366.805 331.682 364.813 333.249C363.592 334.022 362.224 334.531 360.795 334.745C358.037 335.511 355.527 337.02 352.723 337.691C351.651 338.033 348.846 338.186 350.272 339.871V339.836Z" fill="white"/>
<path opacity="0.3" d="M418.347 358.667C418.347 359.124 418.473 359.573 418.713 359.963C418.96 359.657 419.172 359.28 419.384 359.044C419.858 358.586 420.437 358.25 421.069 358.066C421.757 357.671 422.422 357.238 423.061 356.77C423.697 356.393 424.546 356.616 425.288 356.251C426.03 355.886 426.054 355.238 426.549 354.814C427.044 354.389 427.727 354.366 428.199 353.93C429 353.262 429.607 352.391 429.955 351.408C430.767 349.391 431.436 347.32 431.958 345.21C432.335 343.147 432.677 341.18 433.195 339.164C434.303 334.804 436.942 326.85 437.52 322.372C438.074 318.083 437.673 316.669 436.341 312.827C435.01 308.986 430.096 290.438 427.209 285.406C424.475 280.693 422.201 280.056 416.827 278.996L416.509 278.913L415.967 278.795L415.543 278.701L415.001 278.595L414.683 278.536L413.905 278.383L413.316 278.277H413.162H412.915L412.29 273.929H412.444C413.398 272.75 414.447 271.631 415.543 270.311C415.677 270.465 415.791 270.636 415.885 270.818C416.379 271.76 416.038 272.903 416.226 273.952C416.639 276.215 419.302 277.287 421.6 277.346C422.572 277.427 423.55 277.295 424.466 276.959C425.382 276.623 426.213 276.092 426.902 275.402C427.433 274.586 428.008 273.799 428.623 273.045C429.99 271.76 432.158 271.866 433.678 270.688C434.235 270.193 434.67 269.576 434.95 268.885C435.23 268.194 435.347 267.448 435.293 266.705C435.159 265.216 434.76 263.764 434.114 262.416C433.136 260.059 433.914 258.539 434.409 256.158C434.642 254.866 434.43 253.533 433.807 252.377C433.184 251.221 432.187 250.311 430.98 249.795C429.306 249.135 427.28 249.253 425.936 248.051C425.303 247.297 424.709 246.51 424.157 245.694C422.271 243.632 419.031 243.455 416.321 244.209C415.651 243.745 414.849 243.51 414.034 243.538C410.358 240.686 405.562 240.003 401.449 240.333C399.901 240.983 398.502 241.941 397.337 243.149C393.636 246.814 391.445 252.199 392.411 257.29C392.599 258.244 392.894 259.163 393.047 260.118C393.436 262.557 392.894 265.043 392.906 267.518C392.918 269.993 393.695 272.727 395.84 273.94C397.466 274.848 399.458 274.671 401.308 274.907C404.348 275.295 403.994 277.169 404.112 279.75C404.164 280.145 404.131 280.546 404.018 280.928C403.971 281.066 403.899 281.194 403.806 281.305C403.016 282.283 400.777 282.672 399.788 283.002C397.826 283.477 395.909 284.124 394.061 284.935C393.212 285.366 392.477 285.992 391.916 286.761C389.665 289.919 388.711 293.678 387.756 297.367C386.872 300.784 385.941 304.202 384.963 307.595C384.084 310.675 383.164 313.739 382.206 316.787C381.46 319.56 380.342 322.22 378.883 324.694C377.056 327.487 374.44 329.655 372.084 332.035C366.745 337.432 362.279 344.338 355.138 346.93C352.393 347.92 349.447 348.191 346.63 348.945C345.652 349.204 344.544 349.723 344.273 350.63C344.414 350.617 344.553 350.585 344.686 350.536L344.98 350.442C345.216 350.359 345.44 350.277 345.629 350.23C346.283 350.136 346.951 350.205 347.573 350.43C348.356 350.515 349.143 350.555 349.93 350.548C350.672 350.618 351.226 351.302 352.039 351.432C352.852 351.561 353.217 351.054 353.901 351.007C354.584 350.96 355.079 351.326 355.763 351.267C356.801 351.194 357.801 350.849 358.662 350.265C360.504 349.104 362.264 347.816 363.929 346.412C365.437 344.962 366.875 343.583 368.466 342.252C371.919 339.365 378.73 334.474 381.829 331.187L382.618 330.362C385.093 327.781 386.59 326.332 387.65 322.785C388.169 321.064 389.571 316.634 391.02 311.72L391.386 310.541C391.93 311.204 392.214 312.041 392.187 312.898C392.623 318.625 393.99 324.423 394.921 330.126C395.581 334.192 396.252 338.257 396.559 342.358C396.794 345.327 396.83 348.25 396.877 351.267L397.16 372.478C397.16 373.656 397.16 374.834 397.219 376.084C397.234 379.422 397.462 382.756 397.902 386.065C398.286 388.981 398.921 391.859 399.799 394.667C400.012 395.35 400.235 396.034 400.483 396.717C402.922 403.493 406.752 409.68 410.44 415.784C414.182 422.306 417.539 429.042 420.492 435.958C421.097 437.167 421.541 438.451 421.812 439.776C422.189 442.062 421.564 444.383 421.388 446.693C421.211 449.003 421.47 451.218 421.388 453.481C421.438 455.757 420.78 457.994 419.502 459.879C418.581 461.066 417.306 461.929 415.861 462.342C416.993 462.539 418.148 462.575 419.29 462.448C419.949 462.387 420.583 462.169 421.14 461.812C424.056 460.582 426.904 459.197 429.672 457.664C430.779 456.78 431.38 455.519 431.109 452.95C430.769 450.503 431.263 448.012 432.512 445.88C433.268 444.584 433.846 443.193 434.232 441.744C434.527 440.742 433.49 439.705 433.054 439.505C432.759 438.326 431.722 437.761 430.697 437.148C429.251 436.422 427.943 435.449 426.832 434.273C426.194 433.086 425.699 431.829 425.359 430.525C425.208 430.239 424.974 430.005 424.687 429.854C422.872 424.633 418.925 413.78 417.758 410.092C415.566 403.104 414.588 400.582 410.806 396.694C410.806 396.694 412.891 376.331 414.105 361.519L415.566 358.962C415.72 358.69 415.873 358.431 416.038 358.172C417.674 355.505 419.585 353.016 421.741 350.748C421.953 350.524 422.165 350.265 422.377 350.017C422.059 350.548 421.753 351.078 421.399 351.597C419.997 353.741 418.241 356.039 418.347 358.667ZM425.559 334.368L425.701 334.239C425.629 333.472 425.483 332.714 425.265 331.976C424.993 330.975 424.616 329.784 424.204 328.5C424.074 328.099 423.933 327.687 423.792 327.322C423.308 325.884 422.79 324.352 422.319 322.867C422.165 322.408 422.024 321.948 421.894 321.5C421.765 321.053 421.588 320.51 421.458 320.039C421.329 319.568 421.27 319.367 421.187 319.037C421.187 318.931 421.128 318.814 421.105 318.708C421.081 318.601 420.999 318.272 420.952 318.071C420.857 317.682 420.775 317.317 420.716 316.964L420.645 316.575C420.639 316.484 420.639 316.394 420.645 316.304C420.611 316.132 420.587 315.959 420.574 315.785V315.432C420.563 315.22 420.563 315.007 420.574 314.795C420.562 314.591 420.562 314.387 420.574 314.183C420.893 312.353 421.33 310.546 421.883 308.774C422.26 307.407 422.684 305.946 423.061 304.39C424.18 306.476 425.264 308.562 426.349 310.659C427.28 312.317 428.068 314.052 428.705 315.844C430.002 319.921 429.683 324.34 429.189 328.594C428.671 333.447 427.596 338.223 425.983 342.829C426.328 340.006 426.185 337.144 425.559 334.368Z" fill="black"/>
</svg>
