<svg width="365" height="355" viewBox="0 0 365 355" fill="none" xmlns="http://www.w3.org/2000/svg">
<path d="M179.915 354.813C277.665 354.813 356.907 311.719 356.907 258.561C356.907 205.402 277.665 162.309 179.915 162.309C82.1656 162.309 2.92383 205.402 2.92383 258.561C2.92383 311.719 82.1656 354.813 179.915 354.813Z" fill="#F5F5F5"/>
<path d="M179.916 253.521C194.644 253.521 206.583 246.626 206.583 238.12C206.583 229.614 194.644 222.718 179.916 222.718C165.188 222.718 153.248 229.614 153.248 238.12C153.248 246.626 165.188 253.521 179.916 253.521Z" fill="#E0E0E0"/>
<path d="M279.368 294.68C302.65 294.68 321.524 283.783 321.524 270.341C321.524 256.9 302.65 246.003 279.368 246.003C256.086 246.003 237.212 256.9 237.212 270.341C237.212 283.783 256.086 294.68 279.368 294.68Z" fill="#E0E0E0"/>
<path d="M72.5 297.31C95.7823 297.31 114.656 286.413 114.656 272.972C114.656 259.53 95.7823 248.633 72.5 248.633C49.2178 248.633 30.3438 259.53 30.3438 272.972C30.3438 286.413 49.2178 297.31 72.5 297.31Z" fill="#E0E0E0"/>
<path d="M342.329 253.046L334.367 249.79C333.366 242.907 332.79 235.97 332.64 229.017C332.64 216.008 340.745 200.099 351.028 202.761C361.312 205.423 348.128 219.977 345.989 231.219C343.85 242.461 342.329 253.046 342.329 253.046Z" fill="#BA68C8"/>
<path opacity="0.3" d="M342.329 253.046L334.367 249.79C333.366 242.907 332.79 235.97 332.64 229.017C332.64 216.008 340.745 200.099 351.028 202.761C361.312 205.423 348.128 219.977 345.989 231.219C343.85 242.461 342.329 253.046 342.329 253.046Z" fill="black"/>
<path d="M338.471 252.04C338.558 252.028 338.637 251.982 338.69 251.912C338.743 251.842 338.767 251.754 338.756 251.667C334.961 223.146 347.788 207.301 347.914 207.166C347.971 207.098 347.998 207.01 347.99 206.921C347.982 206.833 347.939 206.751 347.871 206.694C347.803 206.638 347.715 206.61 347.626 206.619C347.538 206.627 347.456 206.67 347.399 206.738C347.273 206.896 334.256 222.932 338.09 251.754C338.096 251.798 338.111 251.841 338.133 251.879C338.155 251.917 338.185 251.95 338.221 251.977C338.256 252.003 338.296 252.023 338.339 252.033C338.382 252.044 338.427 252.046 338.471 252.04Z" fill="white"/>
<path d="M346.418 254.947L342.258 253.062C341.013 246.653 341.202 240.049 342.813 233.722C345.483 223.471 354.372 217.148 358.848 218.194C364.323 219.47 364.854 224.532 363.253 228.058C361.344 232.233 348.176 243.539 346.418 254.947Z" fill="#BA68C8"/>
<path opacity="0.1" d="M346.418 254.947L342.258 253.062C341.013 246.653 341.202 240.049 342.813 233.722C345.483 223.471 354.372 217.148 358.848 218.194C364.323 219.47 364.854 224.532 363.253 228.058C361.344 232.233 348.176 243.539 346.418 254.947Z" fill="black"/>
<path d="M344.254 254.29C344.343 254.28 344.424 254.235 344.481 254.166C344.537 254.096 344.564 254.007 344.555 253.918C342.685 235.822 358.475 221.91 358.641 221.775C358.701 221.711 358.735 221.626 358.735 221.538C358.735 221.45 358.701 221.365 358.641 221.3C358.61 221.268 358.573 221.243 358.532 221.226C358.492 221.209 358.448 221.2 358.403 221.2C358.359 221.2 358.315 221.209 358.275 221.226C358.234 221.243 358.197 221.268 358.166 221.3C357.999 221.443 341.956 235.561 343.85 254.021C343.869 254.109 343.922 254.187 343.997 254.237C344.072 254.287 344.165 254.306 344.254 254.29Z" fill="white"/>
<path d="M26.2161 245.757L31.6828 242.636C31.6828 242.636 34.2972 228.209 32.3403 215.802C29.5833 198.372 17.7072 192.343 13.3973 194.078C9.08743 195.813 8.07333 200.979 15.8613 211.056C20.4564 216.998 26.3667 229.571 26.2161 245.757Z" fill="#BA68C8"/>
<g opacity="0.15">
<path d="M26.2161 245.757L31.6828 242.636C31.6828 242.636 34.2972 228.209 32.3403 215.802C29.5833 198.372 17.7072 192.343 13.3973 194.078C9.08743 195.813 8.07333 200.979 15.8613 211.056C20.4564 216.998 26.3667 229.571 26.2161 245.757Z" fill="black"/>
</g>
<path d="M28.1968 238.833H28.1414C28.0912 238.826 28.0429 238.809 27.9993 238.784C27.9556 238.758 27.9176 238.724 27.8873 238.683C27.8571 238.643 27.8352 238.596 27.8231 238.547C27.8109 238.498 27.8087 238.447 27.8165 238.397C30.0666 222.069 23.5066 204.179 16.1227 196.97C16.0769 196.936 16.0388 196.893 16.0109 196.844C15.9831 196.794 15.9662 196.74 15.9614 196.683C15.9566 196.627 15.964 196.57 15.9831 196.516C16.0021 196.463 16.0325 196.414 16.072 196.373C16.1116 196.333 16.1594 196.301 16.2122 196.28C16.2651 196.26 16.3217 196.251 16.3784 196.254C16.435 196.257 16.4903 196.273 16.5405 196.299C16.5907 196.325 16.6347 196.362 16.6694 196.407C24.18 203.712 30.8747 221.934 28.593 238.492C28.5795 238.587 28.5319 238.674 28.459 238.737C28.3861 238.8 28.2929 238.834 28.1968 238.833Z" fill="white"/>
<path d="M11.0679 254.512C10.2044 255.003 8.4297 253.925 7.74836 253.466C6.57966 252.66 5.6361 251.569 5.00713 250.297C4.30473 248.86 4.06662 247.24 4.32579 245.662C4.46293 244.828 4.65885 244.005 4.91206 243.198L5.60133 240.821C5.87289 240.06 5.99135 239.252 5.94992 238.445C5.74394 236.805 4.28617 235.664 2.97102 234.673C1.50533 233.58 -0.00789165 232.138 3.09755e-05 230.166C0.102255 228.637 0.713041 227.187 1.73509 226.046C2.66996 224.849 3.78705 223.796 4.64269 222.536C5.31337 221.652 5.65766 220.563 5.61717 219.454C5.52642 218.779 5.30004 218.13 4.95167 217.545C4.15019 216.326 3.45062 215.044 2.8601 213.71C2.37682 212.332 2.44812 210.62 3.5256 209.63C4.00509 209.272 4.55136 209.013 5.13231 208.869C5.71325 208.724 6.31717 208.698 6.90856 208.79C8.03352 208.923 9.11548 209.302 10.0776 209.899C13.2071 211.634 14.9896 215.342 18.3092 216.681C19.6235 217.091 20.9625 217.416 22.3181 217.656C22.9985 217.782 23.6448 218.049 24.2153 218.441C24.7857 218.833 25.2676 219.34 25.6297 219.929C26.8498 222.362 24.5919 225.356 25.4475 227.939C26.2398 230.221 28.4264 231.108 29.6703 233.16C30.1802 234.068 30.3857 235.114 30.2565 236.147C30.1459 237.894 29.7191 239.607 28.9968 241.202C28.1841 242.787 27.2546 244.31 26.216 245.757C26.1685 245.813 11.2026 254.417 11.0679 254.512Z" fill="#BA68C8"/>
<path d="M19.9331 249.79C19.8811 249.788 19.8299 249.775 19.7826 249.753C19.7354 249.732 19.6928 249.701 19.6575 249.662C19.6222 249.624 19.5948 249.579 19.5768 249.53C19.5588 249.482 19.5507 249.43 19.5528 249.378C20.1945 233.928 12.9136 216.895 7.62132 211.904C7.54923 211.831 7.50879 211.733 7.50879 211.63C7.50879 211.528 7.54923 211.43 7.62132 211.357C7.69537 211.284 7.79493 211.244 7.89862 211.244C8.0023 211.244 8.10186 211.284 8.17591 211.357C13.5395 216.388 20.9789 233.738 20.3213 249.417C20.3172 249.517 20.2745 249.612 20.2021 249.681C20.1298 249.751 20.0334 249.79 19.9331 249.79Z" fill="white"/>
<path d="M17.62 231.528H17.5012C13.8406 230.522 10.0819 229.913 6.29066 229.714C6.1856 229.714 6.08484 229.672 6.01056 229.598C5.93627 229.524 5.89453 229.423 5.89453 229.318C5.89453 229.213 5.93627 229.112 6.01056 229.038C6.08484 228.964 6.1856 228.922 6.29066 228.922C10.1491 229.122 13.9744 229.741 17.6992 230.768C17.7482 230.782 17.7937 230.806 17.8334 230.839C17.873 230.871 17.9059 230.91 17.9302 230.955C17.9545 231 17.9697 231.049 17.9749 231.1C17.9801 231.151 17.9753 231.202 17.9607 231.251C17.9376 231.326 17.8929 231.392 17.8323 231.441C17.7717 231.491 17.6978 231.521 17.62 231.528Z" fill="white"/>
<path d="M300.204 265.318L292.82 264.47L290.911 249.592L299.935 252.27L300.204 265.318Z" fill="#B16668"/>
<path d="M284.027 277.456C283.92 277.749 283.876 278.061 283.898 278.372C283.92 278.683 284.007 278.986 284.153 279.262C284.946 280.181 286.99 281.258 289.778 281.456C292.448 281.647 294.825 281.29 296.386 280.3C297.065 279.949 297.646 279.435 298.077 278.805C298.508 278.174 298.777 277.447 298.858 276.687C299.008 275.174 298.858 273.708 299.563 272.543C300.268 271.379 301.29 270.246 301.52 269.66C301.794 268.648 301.794 267.581 301.52 266.57L284.027 277.456Z" fill="#263238"/>
<path d="M291.323 264.209C291.299 264.783 291.195 265.351 291.014 265.897C290.605 267.07 290.058 268.19 289.382 269.232C289.05 269.786 288.679 270.315 288.273 270.817C287.48 271.775 286.466 272.568 285.611 273.487C284.703 274.353 284.121 275.506 283.963 276.751C283.852 278.842 287.179 279.555 288.93 279.864C290.819 280.194 292.757 280.097 294.603 279.579C295.572 279.327 296.448 278.8 297.125 278.062C297.802 277.324 298.253 276.407 298.421 275.42C298.524 274.833 298.485 274.239 298.556 273.661C298.787 272.325 299.345 271.068 300.18 270.001C300.666 269.385 301.083 268.718 301.424 268.012C301.971 266.721 301.535 265.263 301.186 263.979C300.885 262.862 300.521 261.603 300.125 261.69C300.125 262.268 300.125 262.347 299.737 262.736C299.348 263.124 299.198 263.979 298.643 264.415C298.82 263.932 298.95 263.434 299.032 262.926C299.066 262.722 299.024 262.513 298.913 262.339C298.729 262.175 298.509 262.056 298.271 261.991C297.447 261.715 296.598 261.521 295.736 261.413C294.559 261.278 293.371 261.278 292.194 261.413C291.949 261.456 291.727 261.585 291.568 261.777C291.426 261.988 291.349 262.236 291.347 262.49C291.307 262.791 291.339 263.655 291.323 264.209Z" fill="#455A64"/>
<path d="M289.097 269.676C289.889 269.089 292.686 269.081 293.637 269.184C294.606 269.267 295.538 269.594 296.346 270.135C296.465 270.219 296.609 270.259 296.754 270.248C296.899 270.236 297.035 270.174 297.138 270.072C297.198 270.012 297.245 269.94 297.275 269.861C297.304 269.782 297.317 269.698 297.311 269.613C297.305 269.529 297.28 269.447 297.24 269.373C297.199 269.299 297.143 269.235 297.075 269.184C296.187 268.529 295.133 268.136 294.033 268.051C292.66 267.951 291.281 268.031 289.929 268.289C289.929 268.289 288.867 268.978 289.097 269.676Z" fill="#F5F5F5"/>
<path d="M287.306 271.847C288.288 271.268 291.267 271.347 292.226 271.45C293.176 271.548 294.083 271.895 294.856 272.457C294.975 272.539 295.119 272.578 295.263 272.567C295.408 272.555 295.544 272.494 295.648 272.393C295.708 272.334 295.755 272.262 295.784 272.183C295.814 272.104 295.826 272.019 295.82 271.935C295.814 271.851 295.79 271.769 295.749 271.695C295.709 271.621 295.653 271.556 295.585 271.506C294.285 270.833 292.867 270.418 291.41 270.286C289.033 270.119 288.454 270.595 288.454 270.595C288.182 270.705 287.937 270.874 287.738 271.091C287.54 271.307 287.392 271.566 287.306 271.847Z" fill="#F5F5F5"/>
<path d="M294.967 265.809C293.627 265.656 292.27 265.739 290.958 266.055C290.546 266.285 290.269 266.942 290.538 267.109C291.735 266.786 292.977 266.663 294.215 266.744C295.093 266.832 295.95 267.068 296.75 267.442C296.956 267.537 297.193 267.655 297.399 267.774C297.466 267.816 297.54 267.844 297.618 267.855C297.696 267.865 297.775 267.859 297.85 267.837C297.925 267.814 297.995 267.776 298.053 267.724C298.112 267.672 298.16 267.608 298.192 267.537C298.248 267.42 298.259 267.286 298.222 267.162C298.186 267.037 298.104 266.931 297.994 266.863C297.072 266.3 296.04 265.941 294.967 265.809Z" fill="#F5F5F5"/>
<path d="M272.673 258.552L265.653 256.595V242.406L274.36 242.786L272.673 258.552Z" fill="#B16668"/>
<path d="M250.823 266.15C250.625 266.762 250.662 267.425 250.926 268.012C251.187 268.551 254.032 270.159 257.866 269.897C260.707 269.694 263.441 268.737 265.789 267.124C267.247 266.158 268.768 265.976 270.669 265.873C272.571 265.77 275.058 264.811 275.478 263.924C275.692 263.129 275.67 262.29 275.415 261.507L250.823 266.15Z" fill="#263238"/>
<path d="M266.272 254.187L265.971 254.124C265.804 254.084 265.63 254.084 265.464 254.124C265.279 254.184 265.115 254.294 264.988 254.441C264.614 254.923 264.288 255.44 264.014 255.985C263.221 257.293 261.518 258.362 259.68 259.368C258.428 260.042 257.2 260.565 255.909 261.143C254.618 261.721 252.835 262.102 251.805 262.799C250.3 263.813 250.102 266.356 251.805 267.362C253.279 268.234 257.177 269.177 261.257 268.02C263.475 267.386 265.947 265.017 268.862 264.788C270.716 264.637 274.226 264.122 275.422 262.712C275.866 262.086 275.272 260.105 274.789 258.394C274.258 256.524 273.759 253.64 273.141 253.775C273.146 253.909 273.119 254.042 273.063 254.163C273.006 254.284 272.922 254.39 272.816 254.472C272.586 254.71 272.277 254.86 272.024 255.074C271.591 255.5 271.242 256.002 270.994 256.556C270.893 256.802 270.707 257.005 270.471 257.126C270.154 257.237 269.924 257.047 269.678 256.92C269.33 256.761 268.936 256.733 268.569 256.841C268.608 256.47 268.674 256.101 268.767 255.74C268.803 255.626 268.803 255.505 268.767 255.391C268.722 255.276 268.638 255.181 268.53 255.122C267.851 254.656 267.081 254.337 266.272 254.187Z" fill="#455A64"/>
<path d="M261.438 258.33C261.571 258.074 261.766 257.856 262.006 257.695C262.245 257.534 262.522 257.437 262.809 257.411C263.649 257.253 265.138 257.879 266.065 258.639C266.154 258.71 266.223 258.801 266.268 258.905C266.313 259.009 266.331 259.122 266.322 259.235C266.313 259.348 266.276 259.457 266.214 259.552C266.153 259.647 266.069 259.725 265.97 259.78C265.846 259.851 265.702 259.88 265.56 259.865C265.418 259.849 265.284 259.789 265.178 259.693C264.155 258.771 262.815 258.283 261.438 258.33Z" fill="#F5F5F5"/>
<path d="M258.816 259.796C259 259.537 259.244 259.325 259.526 259.179C259.809 259.033 260.122 258.956 260.441 258.957C261.743 259.014 262.994 259.482 264.014 260.295C264.097 260.365 264.162 260.454 264.204 260.554C264.246 260.654 264.263 260.763 264.254 260.871C264.244 260.979 264.209 261.083 264.151 261.175C264.092 261.266 264.013 261.343 263.919 261.397C263.795 261.471 263.651 261.503 263.508 261.487C263.365 261.471 263.231 261.409 263.126 261.31C262.566 260.752 261.888 260.327 261.142 260.066C260.397 259.804 259.602 259.712 258.816 259.796Z" fill="#F5F5F5"/>
<path d="M255.972 261.111C256.181 260.872 256.439 260.681 256.729 260.551C257.019 260.421 257.334 260.355 257.651 260.359C258.906 260.436 260.103 260.907 261.074 261.705C261.157 261.776 261.223 261.865 261.264 261.966C261.306 262.067 261.323 262.176 261.314 262.285C261.304 262.393 261.269 262.498 261.211 262.59C261.153 262.683 261.073 262.759 260.979 262.815C260.855 262.889 260.711 262.92 260.568 262.905C260.425 262.889 260.291 262.827 260.187 262.727C259.657 262.15 259.001 261.704 258.269 261.423C257.538 261.143 256.751 261.036 255.972 261.111Z" fill="#F5F5F5"/>
<path d="M298.588 165.976C299.071 180.609 299.103 212.3 299.103 212.3C299.254 214.122 299.412 217.354 299.547 223.914C299.745 233.422 300.204 256.896 300.204 256.896C300.204 256.896 295.665 259.027 291.489 257.292C291.489 257.292 285.69 224.287 284.502 214.875C283.464 206.659 281.475 187.391 281.475 187.391L278.734 211.848C278.734 211.848 278.734 218.186 278.362 223.78C278.053 228.137 273.822 250.582 273.822 250.582C271.059 251.316 268.141 251.22 265.432 250.305C265.432 250.305 265.052 215.849 264.972 211.848C264.885 207.301 266.058 158.133 266.058 158.133L298.588 165.976Z" fill="#455A64"/>
<path d="M281.491 187.391L280.446 179.096C277.068 178.233 273.875 176.768 271.018 174.771C271.018 174.771 273.03 177.464 278.94 180.316L280.271 187.843L278.766 211.848L281.491 187.391Z" fill="#37474F"/>
<path d="M265.685 124.914C263.546 127.718 252.542 142.819 252.542 142.819L242.377 134.944C240 133.082 239.295 130.642 237.805 128.954C236.316 127.267 234.684 126.863 233.012 125.452C231.341 124.042 230.699 122.973 230.128 124.177C229.558 125.381 231.404 127.481 231.713 127.988C232.022 128.495 233.931 129.707 231.412 129.572C228.893 129.437 224.044 126.562 222.871 126.031C221.699 125.5 221.667 126.95 222.222 127.9C222.776 128.851 222.499 131.497 223.149 133.201C223.798 134.904 224.939 135.95 227.26 137.099C229.423 138.176 234.684 138.85 236.395 139.927C240.151 143.777 247.233 150.963 249.024 152.294C251.488 154.124 253.873 155.812 257.644 152.183C261.415 148.555 272.34 134.318 272.34 134.318L274.598 120.778C270.89 120.643 268.268 121.531 265.685 124.914Z" fill="#B16668"/>
<path d="M252.542 142.818C253.936 143.848 255.386 146.162 255.521 147.2C255.505 146.216 255.285 145.247 254.876 144.353C254.467 143.458 253.877 142.658 253.144 142.002L252.542 142.818Z" fill="#9A4A4D"/>
<path d="M275.47 120.445C275.47 120.445 270.241 120.382 267.944 121.99C265.646 123.598 263.943 125.951 260.211 131.378C256.939 136.132 255.354 138.414 255.354 138.414C257.496 141.582 260.615 143.964 264.236 145.195L273.996 133.106L275.47 120.445Z" fill="#37474F"/>
<path d="M285.587 120.191C288.55 120.477 292.717 120.508 295.648 120.809C297.684 121.649 301.614 125.072 301.321 127.512C300.228 136.631 298.017 151.581 298.017 151.581L298.746 167.426C294.666 171.498 275.572 173.091 265.732 166.578C265.732 166.578 266.049 138.12 266.731 133.303C267.943 124.676 269.004 121.475 273.457 120.714C277.909 119.954 285.587 120.191 285.587 120.191Z" fill="#BA68C8"/>
<path d="M302.367 125.143C304.506 127.948 315.518 143.048 315.518 143.048L325.691 135.173C328.068 133.303 328.773 130.863 330.262 129.184C331.752 127.504 333.384 127.092 335.056 125.682C336.727 124.272 337.369 123.202 337.939 124.398C338.51 125.595 336.664 127.71 336.355 128.217C336.046 128.724 334.137 129.936 336.656 129.802C339.175 129.667 344.016 126.783 345.197 126.252C346.377 125.722 346.393 127.171 345.846 128.122C345.3 129.073 345.561 131.727 344.919 133.43C344.278 135.134 343.129 136.171 340.807 137.328C338.645 138.406 333.384 139.079 331.673 140.157C327.917 143.999 320.834 151.193 319.044 152.516C316.58 154.346 314.195 156.033 310.424 152.413C306.653 148.792 298.033 137.518 298.033 137.518L293.47 121.008C297.17 120.873 299.792 121.76 302.367 125.143Z" fill="#B16668"/>
<path d="M315.519 143.048C314.125 144.078 312.675 146.391 312.54 147.429C312.555 146.445 312.774 145.474 313.183 144.578C313.592 143.682 314.183 142.881 314.917 142.224L315.519 143.048Z" fill="#9A4A4D"/>
<path d="M292.948 120.611C292.948 120.611 297.646 120.318 300.118 122.196C302.344 123.907 304.079 126.157 307.85 131.584C311.122 136.338 312.707 138.619 312.707 138.619C310.56 141.787 307.439 144.168 303.817 145.401L297.17 137.209C293.708 132.82 290.278 126.141 292.948 120.611Z" fill="#37474F"/>
<path d="M286.324 98.7369C286.339 100.554 285.815 102.336 284.819 103.856C283.822 105.376 282.397 106.566 280.723 107.276C279.05 107.986 277.204 108.184 275.418 107.845C273.633 107.505 271.988 106.644 270.691 105.37C269.395 104.096 268.506 102.466 268.136 100.686C267.766 98.9068 267.932 97.0575 268.613 95.3723C269.294 93.687 270.459 92.2416 271.962 91.2188C273.464 90.1959 275.236 89.6416 277.054 89.6258C278.261 89.6154 279.458 89.8428 280.577 90.295C281.696 90.7472 282.715 91.4154 283.576 92.2615C284.437 93.1075 285.122 94.1148 285.594 95.2259C286.065 96.3369 286.313 97.53 286.324 98.7369Z" fill="#263238"/>
<path d="M293.082 105.218C293.082 105.218 291.648 112.229 291.061 113.378C290.671 114.091 290.022 114.628 289.247 114.875L289.303 109.948L293.082 105.218Z" fill="#263238"/>
<path d="M291.125 95.2115C291.645 95.1448 292.172 95.198 292.668 95.3669C293.164 95.5358 293.614 95.816 293.985 96.186C295.221 97.4298 294.571 101.359 293.082 105.218L290.277 105.566L291.125 95.2115Z" fill="#263238"/>
<path d="M289.437 105.574C290 105.907 290.792 104.782 291.481 104.085C292.171 103.388 294.421 102.342 295.577 104.711C296.734 107.079 294.626 110.352 292.852 110.922C289.786 111.92 289.303 109.947 289.303 109.947L289.176 121.372C285.405 126.308 274.796 125.983 279.169 120.833V117.458C277.804 117.687 276.417 117.77 275.034 117.704C272.768 117.379 271.334 115.604 270.621 113.164C269.488 109.25 269.036 106.081 269.908 98.3408C270.859 89.8636 280.706 89.6893 286.054 92.9931C291.402 96.2968 289.437 105.574 289.437 105.574Z" fill="#B16668"/>
<path d="M289.445 106.517C289.723 106.517 290.784 104.727 291.481 104.085C292.44 103.19 291.125 95.2116 291.125 95.2116C291.454 94.5036 291.562 93.7129 291.435 92.9426C291.308 92.1723 290.951 91.4583 290.412 90.8937C289.073 89.4439 287.203 87.6772 281.182 88.4377C276.88 88.9844 272.213 90.3708 268.419 88.5486C268.081 89.7841 268.119 91.0922 268.528 92.3058C268.937 93.5195 269.699 94.5835 270.716 95.3621C270.716 95.3621 272.095 96.2336 275.699 96.6377C279.023 96.8563 282.36 96.7635 285.666 96.3604C286.712 96.2098 286.942 97.216 287.528 99.981C288.043 102.397 288.494 106.509 289.445 106.517Z" fill="#263238"/>
<path d="M291.125 95.8295L294.508 93.9756C294.398 93.7467 294.243 93.5425 294.052 93.3756C293.86 93.2087 293.637 93.0824 293.396 93.0046C293.154 92.9268 292.899 92.8989 292.646 92.9229C292.393 92.9468 292.148 93.022 291.925 93.1437C291.472 93.4024 291.136 93.826 290.987 94.3262C290.838 94.8264 290.887 95.3649 291.125 95.8295Z" fill="#263238"/>
<path d="M279.146 117.458C279.146 117.458 284.184 116.397 285.935 115.446C286.967 114.897 287.81 114.049 288.352 113.014C288.096 114.046 287.635 115.016 286.997 115.866C285.721 117.53 279.161 118.797 279.161 118.797L279.146 117.458Z" fill="#9A4A4D"/>
<path d="M278.742 104.766C278.74 104.901 278.765 105.035 278.815 105.16C278.865 105.286 278.939 105.4 279.033 105.496C279.127 105.593 279.24 105.67 279.364 105.722C279.488 105.775 279.622 105.803 279.756 105.804C279.967 105.812 280.175 105.756 280.354 105.645C280.533 105.533 280.674 105.371 280.759 105.178C280.845 104.985 280.87 104.772 280.833 104.564C280.796 104.357 280.697 104.165 280.55 104.015C280.402 103.864 280.213 103.761 280.007 103.719C279.8 103.676 279.586 103.697 279.391 103.778C279.197 103.859 279.031 103.996 278.915 104.172C278.8 104.349 278.739 104.555 278.742 104.766Z" fill="#263238"/>
<path d="M281.744 101.288L279.494 100.266C279.363 100.574 279.356 100.92 279.474 101.233C279.592 101.546 279.826 101.801 280.128 101.946C280.277 102.012 280.437 102.047 280.6 102.049C280.763 102.052 280.925 102.022 281.076 101.96C281.227 101.899 281.363 101.808 281.478 101.692C281.593 101.577 281.684 101.439 281.744 101.288Z" fill="#263238"/>
<path d="M272.119 100.044L270.162 101.581C270.255 101.714 270.374 101.827 270.512 101.912C270.65 101.998 270.804 102.053 270.964 102.076C271.125 102.1 271.288 102.089 271.445 102.046C271.601 102.003 271.747 101.928 271.873 101.827C272.133 101.616 272.303 101.315 272.349 100.984C272.394 100.653 272.312 100.317 272.119 100.044Z" fill="#263238"/>
<path d="M270.938 104.52C270.947 104.71 271.012 104.892 271.124 105.045C271.236 105.197 271.391 105.314 271.568 105.38C271.746 105.445 271.939 105.457 272.124 105.414C272.308 105.371 272.476 105.275 272.606 105.137C272.736 104.999 272.823 104.826 272.855 104.64C272.888 104.453 272.865 104.261 272.79 104.087C272.714 103.914 272.589 103.766 272.431 103.663C272.272 103.559 272.086 103.505 271.897 103.506C271.767 103.509 271.639 103.538 271.521 103.591C271.402 103.644 271.295 103.719 271.206 103.814C271.117 103.908 271.047 104.019 271.001 104.14C270.955 104.262 270.934 104.391 270.938 104.52Z" fill="#263238"/>
<path d="M276.182 103.705L275.612 109.765L272.482 108.561L276.182 103.705Z" fill="#9A4A4D"/>
<path d="M277.902 112.039C277.901 112.232 277.957 112.421 278.063 112.582C278.169 112.744 278.321 112.87 278.498 112.945C278.676 113.02 278.873 113.04 279.062 113.003C279.252 112.967 279.426 112.875 279.563 112.739C279.7 112.603 279.794 112.429 279.832 112.24C279.87 112.051 279.851 111.854 279.778 111.676C279.704 111.497 279.58 111.344 279.419 111.237C279.259 111.13 279.07 111.072 278.877 111.072C278.62 111.072 278.373 111.174 278.191 111.355C278.008 111.536 277.904 111.782 277.902 112.039Z" fill="#9A4A4D"/>
<path d="M302.637 47.4936C304.147 47.8301 305.604 48.3768 306.962 49.1178C308.262 49.8173 309.426 50.7428 310.401 51.8511C311.339 52.9248 312.031 54.1901 312.429 55.5589C312.846 57.0098 312.879 58.544 312.524 60.0114C312.29 61.1762 311.826 62.2829 311.161 63.2676C310.564 64.1148 309.846 64.8701 309.03 65.5097C308.232 66.1293 307.381 66.678 306.487 67.1497L303.968 68.4807C303.208 68.8776 302.486 69.3444 301.813 69.8751C301.204 70.3367 300.738 70.9598 300.466 71.6735C300.329 71.9917 300.107 72.2659 299.824 72.4657C299.688 72.5695 299.531 72.6412 299.364 72.6755C299.196 72.7098 299.023 72.7058 298.858 72.6638L295.15 71.8716C294.972 71.834 294.803 71.7615 294.654 71.6581C294.504 71.5547 294.376 71.4226 294.278 71.2694C294.175 71.126 294.106 70.9601 294.079 70.7853C294.051 70.6105 294.065 70.4316 294.12 70.2633C294.429 69.1107 294.968 68.0327 295.704 67.0942C296.368 66.2659 297.135 65.5258 297.986 64.8917C298.808 64.2902 299.68 63.7601 300.593 63.3072C301.496 62.8556 302.336 62.4199 303.112 61.992C303.822 61.617 304.489 61.1653 305.101 60.6452C305.634 60.196 306.004 59.5833 306.154 58.9022C306.291 58.3074 306.282 57.6882 306.128 57.0977C305.973 56.5072 305.678 55.9629 305.267 55.5113C304.243 54.3918 302.873 53.6472 301.377 53.396C298.609 52.778 296.27 53.7103 294.358 56.1927C294.174 56.4645 293.94 56.6985 293.668 56.8819C293.521 56.9568 293.361 57.0017 293.196 57.0139C293.032 57.0262 292.866 57.0056 292.71 56.9533L288.748 56.0738C288.609 56.0469 288.476 55.9924 288.357 55.9135C288.239 55.8346 288.138 55.7329 288.059 55.6143C287.973 55.493 287.915 55.354 287.889 55.2074C287.863 55.0608 287.869 54.9102 287.909 54.7666C288.242 53.549 288.867 52.4312 289.731 51.5104C290.7 50.4404 291.851 49.55 293.13 48.8801C294.531 48.1443 296.043 47.6412 297.606 47.3906C299.274 47.0972 300.982 47.1322 302.637 47.4936ZM298.454 75.6506C298.627 75.6878 298.792 75.7604 298.936 75.864C299.081 75.9677 299.202 76.1 299.293 76.2528C299.391 76.4006 299.457 76.5668 299.489 76.7411C299.52 76.9154 299.515 77.0943 299.476 77.2669L298.525 81.5609C298.445 81.9037 298.235 82.2021 297.94 82.3928C297.644 82.5836 297.285 82.6518 296.94 82.5829L292.741 81.656C292.568 81.6189 292.405 81.5471 292.261 81.445C292.116 81.3429 291.994 81.2125 291.902 81.0618C291.803 80.9145 291.736 80.7484 291.704 80.5738C291.673 80.3993 291.678 80.2202 291.719 80.0477L292.67 75.7457C292.75 75.4029 292.96 75.1046 293.255 74.9138C293.551 74.7231 293.909 74.6549 294.255 74.7237L298.454 75.6506Z" fill="#BA68C8"/>
<path d="M315.09 87.8913C316.138 87.7186 317.205 87.6973 318.259 87.828C319.273 87.943 320.257 88.2382 321.167 88.6995C322.035 89.1439 322.798 89.7709 323.401 90.5375C324.041 91.3592 324.453 92.3346 324.597 93.3659C324.762 94.1683 324.762 94.9957 324.597 95.7981C324.432 96.4963 324.166 97.1664 323.805 97.7867C323.452 98.3847 323.049 98.9519 322.601 99.4822L321.325 100.987C320.941 101.438 320.597 101.92 320.295 102.429C320.027 102.882 319.89 103.401 319.899 103.927C319.898 104.174 319.826 104.416 319.693 104.624C319.633 104.724 319.551 104.809 319.454 104.873C319.356 104.937 319.246 104.979 319.131 104.996L316.54 105.424C316.29 105.463 316.034 105.404 315.827 105.258C315.725 105.191 315.641 105.103 315.579 104.998C315.517 104.894 315.48 104.777 315.471 104.656C315.362 103.844 315.424 103.018 315.653 102.231C315.858 101.525 316.159 100.851 316.548 100.227C316.919 99.6294 317.34 99.0648 317.808 98.5394C318.275 98.0165 318.695 97.5253 319.091 97.0499C319.448 96.6275 319.759 96.168 320.018 95.6793C320.245 95.255 320.326 94.7677 320.248 94.2928C320.183 93.8755 320.018 93.48 319.767 93.1405C319.516 92.801 319.186 92.5276 318.806 92.3439C317.867 91.8852 316.801 91.7568 315.78 91.9794C314.856 92.1156 313.997 92.5333 313.319 93.1755C312.641 93.8178 312.178 94.6533 311.992 95.5684C311.942 95.7919 311.851 96.0041 311.723 96.1943C311.57 96.3628 311.356 96.465 311.129 96.4795L308.372 96.9311C308.176 96.9633 307.975 96.9209 307.809 96.8122C307.723 96.7561 307.649 96.6816 307.594 96.594C307.54 96.5063 307.505 96.4077 307.492 96.3052C307.397 95.4398 307.514 94.564 307.833 93.7541C308.177 92.8176 308.687 91.9507 309.338 91.1951C310.049 90.3658 310.889 89.6568 311.826 89.0956C312.826 88.4861 313.934 88.077 315.09 87.8913ZM319.614 107.056C319.735 107.036 319.86 107.04 319.98 107.069C320.099 107.097 320.212 107.15 320.311 107.223C320.41 107.293 320.494 107.383 320.558 107.486C320.622 107.589 320.665 107.705 320.684 107.825L321.175 110.819C321.195 110.941 321.191 111.065 321.162 111.185C321.134 111.305 321.081 111.417 321.008 111.517C320.939 111.617 320.85 111.701 320.746 111.765C320.643 111.83 320.527 111.872 320.406 111.889L317.475 112.372C317.355 112.392 317.232 112.387 317.113 112.359C316.995 112.33 316.884 112.278 316.786 112.206C316.684 112.137 316.598 112.048 316.532 111.945C316.467 111.841 316.424 111.725 316.405 111.604L315.914 108.601C315.878 108.354 315.941 108.103 316.089 107.903C316.238 107.702 316.46 107.569 316.706 107.532L319.614 107.056Z" fill="#BA68C8"/>
<g opacity="0.2">
<path d="M315.09 87.8913C316.138 87.7186 317.205 87.6973 318.259 87.828C319.273 87.943 320.257 88.2382 321.167 88.6995C322.035 89.1439 322.798 89.7709 323.401 90.5375C324.041 91.3592 324.453 92.3346 324.597 93.3659C324.762 94.1683 324.762 94.9957 324.597 95.7981C324.432 96.4963 324.166 97.1664 323.805 97.7867C323.452 98.3847 323.049 98.9519 322.601 99.4822L321.325 100.987C320.941 101.438 320.597 101.92 320.295 102.429C320.027 102.882 319.89 103.401 319.899 103.927C319.898 104.174 319.826 104.416 319.693 104.624C319.633 104.724 319.551 104.809 319.454 104.873C319.356 104.937 319.246 104.979 319.131 104.996L316.54 105.424C316.29 105.463 316.034 105.404 315.827 105.258C315.725 105.191 315.641 105.103 315.579 104.998C315.517 104.894 315.48 104.777 315.471 104.656C315.362 103.844 315.424 103.018 315.653 102.231C315.858 101.525 316.159 100.851 316.548 100.227C316.919 99.6294 317.34 99.0648 317.808 98.5394C318.275 98.0165 318.695 97.5253 319.091 97.0499C319.448 96.6275 319.759 96.168 320.018 95.6793C320.245 95.255 320.326 94.7677 320.248 94.2928C320.183 93.8755 320.018 93.48 319.767 93.1405C319.516 92.801 319.186 92.5276 318.806 92.3439C317.867 91.8852 316.801 91.7568 315.78 91.9794C314.856 92.1156 313.997 92.5333 313.319 93.1755C312.641 93.8178 312.178 94.6533 311.992 95.5684C311.942 95.7919 311.851 96.0041 311.723 96.1943C311.57 96.3628 311.356 96.465 311.129 96.4795L308.372 96.9311C308.176 96.9633 307.975 96.9209 307.809 96.8122C307.723 96.7561 307.649 96.6816 307.594 96.594C307.54 96.5063 307.505 96.4077 307.492 96.3052C307.397 95.4398 307.514 94.564 307.833 93.7541C308.177 92.8176 308.687 91.9507 309.338 91.1951C310.049 90.3658 310.889 89.6568 311.826 89.0956C312.826 88.4861 313.934 88.077 315.09 87.8913ZM319.614 107.056C319.735 107.036 319.86 107.04 319.98 107.069C320.099 107.097 320.212 107.15 320.311 107.223C320.41 107.293 320.494 107.383 320.558 107.486C320.622 107.589 320.665 107.705 320.684 107.825L321.175 110.819C321.195 110.941 321.191 111.065 321.162 111.185C321.134 111.305 321.081 111.417 321.008 111.517C320.939 111.617 320.85 111.701 320.746 111.765C320.643 111.83 320.527 111.872 320.406 111.889L317.475 112.372C317.355 112.392 317.232 112.387 317.113 112.359C316.995 112.33 316.884 112.278 316.786 112.206C316.684 112.137 316.598 112.048 316.532 111.945C316.467 111.841 316.424 111.725 316.405 111.604L315.914 108.601C315.878 108.354 315.941 108.103 316.089 107.903C316.238 107.702 316.46 107.569 316.706 107.532L319.614 107.056Z" fill="black"/>
</g>
<path d="M342.107 96.392C342.342 96.5636 342.501 96.8203 342.55 97.1074C342.599 97.3945 342.534 97.6893 342.369 97.929L340.277 100.86C340.105 101.096 339.849 101.255 339.562 101.304C339.275 101.352 338.98 101.287 338.74 101.122L335.872 99.0857C335.754 99.003 335.653 98.8971 335.577 98.7746C335.501 98.652 335.45 98.5153 335.428 98.3727C335.387 98.0951 335.452 97.8119 335.611 97.5804L337.702 94.6411C337.872 94.4049 338.128 94.2454 338.415 94.1975C338.694 94.1556 338.978 94.2238 339.207 94.3876L342.107 96.392ZM354.213 76.5142C355.247 77.2438 356.17 78.119 356.954 79.1128C357.711 80.0584 358.293 81.1316 358.673 82.2818C359.037 83.3811 359.158 84.5459 359.03 85.6965C358.881 86.9217 358.417 88.0874 357.683 89.0795C357.136 89.8816 356.436 90.5681 355.623 91.0997C354.901 91.5483 354.116 91.8874 353.294 92.1059C352.497 92.3186 351.683 92.4617 350.862 92.5337L348.532 92.7318C347.837 92.7956 347.148 92.9175 346.472 93.0962C345.868 93.2559 345.32 93.5794 344.888 94.0311C344.68 94.2332 344.424 94.3779 344.143 94.451C344.007 94.4833 343.865 94.4851 343.728 94.4563C343.592 94.4276 343.463 94.369 343.351 94.2846L340.816 92.4862C340.574 92.312 340.409 92.0507 340.356 91.7573C340.326 91.6189 340.328 91.4754 340.362 91.338C340.397 91.2005 340.462 91.0729 340.554 90.965C341.144 90.1919 341.885 89.5476 342.733 89.0715C343.496 88.6533 344.311 88.3388 345.157 88.1367C345.969 87.9405 346.796 87.8132 347.629 87.7564C348.421 87.7088 349.214 87.6455 349.943 87.5742C350.597 87.5177 351.243 87.3875 351.868 87.1859C352.413 87.0201 352.887 86.6771 353.215 86.2115C353.509 85.808 353.701 85.3387 353.772 84.8444C353.844 84.3501 353.794 83.8457 353.627 83.3752C353.213 82.2076 352.421 81.2119 351.377 80.5468C349.491 79.1999 347.431 79.155 345.197 80.4121C344.971 80.5561 344.722 80.658 344.46 80.7132C344.324 80.7228 344.188 80.7054 344.058 80.6619C343.929 80.6183 343.81 80.5496 343.707 80.4596L341.014 78.5424C340.818 78.409 340.681 78.2043 340.633 77.9719C340.61 77.8531 340.613 77.7307 340.642 77.6131C340.671 77.4955 340.725 77.3855 340.8 77.2906C341.427 76.4802 342.243 75.8356 343.177 75.4129C344.248 74.9172 345.399 74.6142 346.575 74.5177C347.864 74.4126 349.161 74.5142 350.418 74.8187C351.783 75.1267 353.073 75.703 354.213 76.5142Z" fill="#BA68C8"/>
<g opacity="0.6">
<path d="M342.107 96.392C342.342 96.5636 342.501 96.8203 342.55 97.1074C342.599 97.3945 342.534 97.6893 342.369 97.929L340.277 100.86C340.105 101.096 339.849 101.255 339.562 101.304C339.275 101.352 338.98 101.287 338.74 101.122L335.872 99.0857C335.754 99.003 335.653 98.8971 335.577 98.7746C335.501 98.652 335.45 98.5153 335.428 98.3727C335.387 98.0951 335.452 97.8119 335.611 97.5804L337.702 94.6411C337.872 94.4049 338.128 94.2454 338.415 94.1975C338.694 94.1556 338.978 94.2238 339.207 94.3876L342.107 96.392ZM354.213 76.5142C355.247 77.2438 356.17 78.119 356.954 79.1128C357.711 80.0584 358.293 81.1316 358.673 82.2818C359.037 83.3811 359.158 84.5459 359.03 85.6965C358.881 86.9217 358.417 88.0874 357.683 89.0795C357.136 89.8816 356.436 90.5681 355.623 91.0997C354.901 91.5483 354.116 91.8874 353.294 92.1059C352.497 92.3186 351.683 92.4617 350.862 92.5337L348.532 92.7318C347.837 92.7956 347.148 92.9175 346.472 93.0962C345.868 93.2559 345.32 93.5794 344.888 94.0311C344.68 94.2332 344.424 94.3779 344.143 94.451C344.007 94.4833 343.865 94.4851 343.728 94.4563C343.592 94.4276 343.463 94.369 343.351 94.2846L340.816 92.4862C340.574 92.312 340.409 92.0507 340.356 91.7573C340.326 91.6189 340.328 91.4754 340.362 91.338C340.397 91.2005 340.462 91.0729 340.554 90.965C341.144 90.1919 341.885 89.5476 342.733 89.0715C343.496 88.6533 344.311 88.3388 345.157 88.1367C345.969 87.9405 346.796 87.8132 347.629 87.7564C348.421 87.7088 349.214 87.6455 349.943 87.5742C350.597 87.5177 351.243 87.3875 351.868 87.1859C352.413 87.0201 352.887 86.6771 353.215 86.2115C353.509 85.808 353.701 85.3387 353.772 84.8444C353.844 84.3501 353.794 83.8457 353.627 83.3752C353.213 82.2076 352.421 81.2119 351.377 80.5468C349.491 79.1999 347.431 79.155 345.197 80.4121C344.971 80.5561 344.722 80.658 344.46 80.7132C344.324 80.7228 344.188 80.7054 344.058 80.6619C343.929 80.6183 343.81 80.5496 343.707 80.4596L341.014 78.5424C340.818 78.409 340.681 78.2043 340.633 77.9719C340.61 77.8531 340.613 77.7307 340.642 77.6131C340.671 77.4955 340.725 77.3855 340.8 77.2906C341.427 76.4802 342.243 75.8356 343.177 75.4129C344.248 74.9172 345.399 74.6142 346.575 74.5177C347.864 74.4126 349.161 74.5142 350.418 74.8187C351.783 75.1267 353.073 75.703 354.213 76.5142Z" fill="white"/>
</g>
<path d="M86.8084 253.245C86.7292 250.868 88.4405 227.639 88.4405 227.639L77.127 235.847C79.4483 249.695 79.9474 252.967 79.987 255.233C79.9392 255.422 79.9178 255.617 79.9236 255.812C79.9236 258.505 82.9739 259.955 85.3427 261.754C87.3561 263.328 89.5004 264.727 91.7521 265.937C93.4713 266.8 96.9731 266.879 97.401 265.77C94.5171 263.568 90.3261 260.272 88.0285 257.76C86.9352 256.556 86.8955 255.606 86.8084 253.245Z" fill="#FFA8A7"/>
<path d="M102.321 268.678C102.449 269.048 102.472 269.446 102.386 269.828C102.301 270.21 102.111 270.56 101.837 270.841C99.7597 272.339 97.1735 272.954 94.6437 272.552C91.0469 272.084 89.0979 271.062 87.6639 269.858C86.2299 268.654 84.2096 266.958 82.5776 266.602C81.2801 266.355 80.0459 265.848 78.949 265.112C78.4657 264.645 78.5291 262.569 78.5291 262.569L102.321 268.678Z" fill="#263238"/>
<path d="M79.9628 254.575C79.8296 254.579 79.7019 254.63 79.6021 254.718C79.5022 254.806 79.4364 254.927 79.4161 255.058C79.3052 255.629 79.1864 257.293 78.9487 258.228C78.581 259.88 78.4635 261.579 78.6001 263.266C78.7982 264.336 81.2542 265.073 82.8308 265.643C84.6849 266.45 86.4053 267.535 87.9329 268.86C90.1376 270.508 92.769 271.49 95.5149 271.688C98.2878 271.688 101.409 270.769 102.13 269.486C103.01 267.901 102.32 266.974 98.2086 265.065C97.4163 264.708 94.6989 263.084 93.764 262.498C91.2446 260.913 88.749 258.703 87.5844 255.898C87.4905 255.555 87.284 255.254 86.9981 255.043C86.7485 254.935 86.4717 254.907 86.2058 254.963C85.5191 255.063 84.8514 255.266 84.2252 255.566C83.6785 255.827 82.8942 256.136 82.9021 256.841C82.9189 257.085 82.9724 257.326 83.0605 257.554C83.1081 257.705 83.1477 257.895 83.0605 257.982C82.9734 258.069 82.7832 257.982 82.6723 257.871C82.2691 257.458 81.9008 257.013 81.5711 256.54C81.3763 256.298 81.1558 256.077 80.9135 255.882C80.6711 255.745 80.4382 255.591 80.2163 255.423C79.9153 255.209 79.9786 254.908 79.9628 254.575Z" fill="#455A64"/>
<path d="M87.9325 268.9C87.2116 268.313 86.451 267.735 85.6904 267.228C85.6904 267.228 90.5232 270.167 92.4722 268.812C92.8339 268.583 93.0985 268.228 93.2154 267.816C93.3323 267.404 93.2933 266.964 93.106 266.578C93.106 266.246 96.18 264.812 97.4001 264.669C97.7407 264.859 98.026 265.01 98.1923 265.089C102.304 266.998 102.993 267.917 102.114 269.51C101.393 270.793 99.1351 271.799 95.5541 271.799C93.2248 271.847 89.5963 270.262 87.9325 268.9Z" fill="#37474F"/>
<path d="M92.7661 265.62C95.3251 266.642 94.2318 267.117 93.5188 267.204C92.8057 267.291 88.5037 264.827 85.8734 262.72C83.2431 260.612 81.413 258.18 80.3989 257.388C80.0186 257.095 79.6066 256.73 79.2422 256.39C79.3135 255.827 79.369 255.312 79.4165 255.043C79.4368 254.911 79.5026 254.791 79.6024 254.702C79.7023 254.614 79.8299 254.564 79.9631 254.56C79.9631 254.892 79.9156 255.201 80.1691 255.447C80.391 255.615 80.6239 255.769 80.8663 255.906C81.1086 256.101 81.3291 256.322 81.5239 256.564C81.8536 257.037 82.222 257.483 82.6251 257.895C85.476 261.099 88.9196 263.722 92.7661 265.62Z" fill="#263238"/>
<path d="M93.3361 266.847C93.2775 266.845 93.2215 266.823 93.1776 266.784C93.1519 266.764 93.1304 266.739 93.1144 266.71C93.0984 266.682 93.0883 266.65 93.0846 266.618C93.0809 266.585 93.0837 266.553 93.0929 266.521C93.1021 266.49 93.1174 266.461 93.138 266.435C93.7406 265.81 94.4704 265.32 95.2781 265C96.0858 264.681 96.9527 264.538 97.8203 264.581C97.8883 264.589 97.9505 264.624 97.9934 264.677C98.0364 264.73 98.0567 264.798 98.05 264.867C98.0421 264.933 98.0086 264.993 97.9567 265.034C97.9049 265.076 97.8388 265.095 97.7728 265.088C96.9894 265.056 96.2079 265.187 95.4781 265.474C94.7483 265.76 94.0862 266.196 93.5341 266.752C93.51 266.781 93.4798 266.805 93.4456 266.822C93.4114 266.838 93.374 266.847 93.3361 266.847Z" fill="#F5F5F5"/>
<path d="M91.1096 265.508C91.0492 265.511 90.99 265.491 90.9432 265.453C90.8981 265.404 90.873 265.341 90.873 265.275C90.873 265.208 90.8981 265.145 90.9432 265.096C91.5472 264.473 92.2773 263.986 93.0848 263.667C93.8924 263.349 94.7586 263.207 95.6255 263.25C95.6927 263.258 95.7543 263.291 95.7967 263.344C95.839 263.397 95.8587 263.464 95.8513 263.532C95.844 263.599 95.8102 263.66 95.7574 263.703C95.7047 263.745 95.6373 263.765 95.57 263.757C94.7865 263.723 94.0044 263.853 93.2743 264.14C92.5442 264.426 91.8824 264.863 91.3314 265.421C91.3044 265.453 91.2701 265.477 91.2314 265.492C91.1927 265.508 91.1509 265.513 91.1096 265.508Z" fill="#F5F5F5"/>
<path d="M88.8762 264.17C88.8185 264.17 88.7624 264.151 88.7178 264.114C88.6708 264.067 88.6445 264.003 88.6445 263.936C88.6445 263.869 88.6708 263.805 88.7178 263.758C89.322 263.135 90.0522 262.648 90.8597 262.329C91.6671 262.011 92.5332 261.869 93.4001 261.912C93.4334 261.915 93.4658 261.924 93.4955 261.94C93.5251 261.956 93.5514 261.977 93.5727 262.003C93.5941 262.028 93.6101 262.058 93.6199 262.09C93.6297 262.122 93.6331 262.156 93.6298 262.189C93.6268 262.222 93.6173 262.255 93.6017 262.285C93.5861 262.314 93.5648 262.34 93.539 262.362C93.5133 262.383 93.4835 262.399 93.4515 262.409C93.4195 262.419 93.3858 262.422 93.3525 262.419C92.569 262.384 91.7869 262.515 91.0568 262.801C90.3267 263.088 89.6648 263.524 89.1139 264.083C89.0845 264.116 89.0474 264.141 89.0059 264.156C88.9645 264.171 88.92 264.176 88.8762 264.17Z" fill="#F5F5F5"/>
<path d="M86.8083 262.688C86.7507 262.689 86.6946 262.669 86.6499 262.632C86.6257 262.609 86.6064 262.582 86.5932 262.551C86.58 262.521 86.5732 262.488 86.5732 262.454C86.5732 262.421 86.58 262.388 86.5932 262.357C86.6064 262.326 86.6257 262.299 86.6499 262.276C87.2532 261.652 87.9833 261.164 88.7909 260.845C89.5986 260.527 90.4651 260.385 91.3322 260.43C91.3981 260.438 91.4583 260.471 91.4998 260.523C91.5412 260.575 91.5607 260.641 91.554 260.707C91.546 260.773 91.5125 260.833 91.4607 260.875C91.4088 260.916 91.3428 260.936 91.2767 260.929C90.4935 260.898 89.7125 261.03 88.9829 261.316C88.2533 261.603 87.5911 262.037 87.0381 262.593C87.0112 262.627 86.9759 262.654 86.9357 262.67C86.8954 262.687 86.8516 262.693 86.8083 262.688Z" fill="#F5F5F5"/>
<path d="M84.7874 261.207C84.7303 261.204 84.6752 261.185 84.6289 261.151C84.582 261.104 84.5557 261.04 84.5557 260.973C84.5557 260.906 84.582 260.842 84.6289 260.795C85.2822 260.115 86.0821 259.593 86.9677 259.269C87.8533 258.945 88.8011 258.827 89.739 258.925C89.7725 258.927 89.8052 258.936 89.8351 258.951C89.8649 258.966 89.8912 258.988 89.9121 259.014C89.9331 259.04 89.9483 259.07 89.9567 259.103C89.9651 259.135 89.9665 259.169 89.9608 259.202C89.9529 259.268 89.9194 259.328 89.8675 259.37C89.8157 259.411 89.7496 259.431 89.6836 259.424C88.831 259.34 87.9705 259.447 87.1646 259.738C86.3587 260.028 85.6278 260.495 85.025 261.104C84.9973 261.139 84.9609 261.168 84.9194 261.186C84.8779 261.204 84.8324 261.211 84.7874 261.207Z" fill="#F5F5F5"/>
<path d="M65.4956 238.215L54.0791 238.009C54.2455 245.631 55.4576 254.084 55.6636 261.23C55.6636 262.577 55.6636 271.688 56.139 274.461C56.9312 278.621 61.8433 278.058 62.1047 275.57C62.3662 273.083 61.7878 262.443 61.8037 261.31C61.7561 256.73 63.9032 248.99 65.0361 240.758C65.0836 240.386 65.4402 238.611 65.4956 238.215Z" fill="#FFA8A7"/>
<path d="M63.9595 277.298C64.1715 279.204 63.899 281.133 63.1672 282.907C62.8049 283.611 62.2202 284.176 61.504 284.514C60.7877 284.852 59.9799 284.944 59.2059 284.777C57.5184 284.531 55.2921 283.628 54.6108 281.607C53.9656 279.747 53.7384 277.767 53.9453 275.808L63.9595 277.298Z" fill="#263238"/>
<path d="M55.6326 260.359C54.9591 260.478 55.0859 263.766 55.0225 267.069C54.9512 270.619 54.056 272.172 53.9688 275.079C53.8658 278.407 54.1907 279.833 55.5533 281.718C56.916 283.604 61.1705 285.125 62.8897 282.083C64.292 279.603 64.1019 277.028 63.6186 273.764C63.1353 270.5 62.755 268.028 62.6283 265.445C62.5015 262.862 62.446 260.573 61.836 260.359C61.836 260.723 61.836 261.191 61.836 261.547C61.836 261.904 61.8915 263.132 61.5112 263.211C61.4525 262.905 61.4181 262.595 61.4082 262.284C61.4258 261.996 61.3322 261.713 61.1467 261.492C60.9176 261.323 60.6392 261.234 60.3545 261.238C59.6758 261.162 58.9933 261.125 58.3104 261.127C57.9698 261.127 57.6212 261.127 57.2884 261.183C56.9957 261.205 56.7089 261.277 56.4407 261.397C56.3617 261.43 56.2906 261.48 56.2319 261.543C56.1733 261.606 56.1283 261.68 56.1 261.761C56.0762 261.887 56.0762 262.016 56.1 262.141C56.1278 262.368 56.1278 262.597 56.1 262.823C56.1 262.926 56.0287 263.053 55.9257 263.037C55.8227 263.021 55.8069 262.926 55.7989 262.847C55.7514 262.45 55.7989 262.157 55.7514 261.698C55.7514 261.484 55.7514 261.191 55.7514 260.977C55.7514 260.763 55.6405 260.573 55.6326 260.359Z" fill="#455A64"/>
<path d="M54.0246 274.129C54.0246 274.612 53.9216 277.789 54.8169 278.264C55.7121 278.74 56.0607 276.268 56.0607 276.268C56.0607 276.268 58.1602 275.388 61.456 276.45C61.3451 276.973 61.9948 278.605 62.8266 278.161C63.6585 277.717 63.6189 274.097 63.6189 274.049C64.0705 277.218 64.2131 279.674 62.8266 282.083C61.1074 285.125 56.8371 283.588 55.4903 281.718C54.1434 279.849 53.8186 278.407 53.9058 275.079C53.9454 274.746 54.0008 274.438 54.0246 274.129Z" fill="#37474F"/>
<path d="M56.322 276.45C56.425 277.638 55.2208 277.361 54.999 275.657C54.7771 273.954 55.3 269.921 54.999 267.038C55.0623 263.734 54.9356 260.446 55.609 260.327C55.6051 260.367 55.6051 260.406 55.609 260.446L55.6882 262.118C55.6726 262.355 55.6726 262.593 55.6882 262.831C55.9101 265.255 56.0448 269.961 56.0527 272.195C56.0666 273.617 56.1565 275.037 56.322 276.45Z" fill="#263238"/>
<path d="M61.0751 276.45C61.2304 275.048 61.3071 273.638 61.3049 272.227C61.3049 270.009 61.4475 265.358 61.6693 262.918C61.7552 262.466 61.7897 262.007 61.7723 261.547C61.7723 261.215 61.7723 260.755 61.7723 260.438C61.7723 260.438 61.7723 260.391 61.7723 260.359C62.216 260.525 62.3745 261.832 62.4695 263.48C62.4695 264.439 62.4695 265.627 62.3824 267.069C62.0813 269.953 62.6042 274.041 62.3824 275.713C62.1605 277.385 60.9959 277.638 61.0751 276.45Z" fill="#263238"/>
<path d="M61.5424 276.537H61.4552C59.7434 275.946 57.8827 275.946 56.1708 276.537C56.1396 276.549 56.1064 276.554 56.073 276.554C56.0395 276.553 56.0066 276.545 55.9761 276.532C55.9456 276.518 55.918 276.499 55.895 276.474C55.872 276.45 55.854 276.421 55.8421 276.39C55.8301 276.359 55.8244 276.326 55.8253 276.292C55.8262 276.259 55.8336 276.226 55.8473 276.196C55.8609 276.165 55.8803 276.137 55.9046 276.114C55.9289 276.091 55.9574 276.073 55.9886 276.061C57.8151 275.409 59.811 275.409 61.6375 276.061C61.6686 276.073 61.6971 276.09 61.7213 276.113C61.7455 276.136 61.7648 276.163 61.7781 276.193C61.7914 276.224 61.7985 276.257 61.7988 276.29C61.7991 276.323 61.7928 276.356 61.7801 276.386C61.7606 276.433 61.7274 276.472 61.6849 276.499C61.6424 276.526 61.5927 276.539 61.5424 276.537Z" fill="#F5F5F5"/>
<path d="M61.8677 273.906C61.8391 273.913 61.8092 273.913 61.7806 273.906C59.8558 273.309 57.7951 273.309 55.8703 273.906C55.8386 273.918 55.805 273.922 55.7714 273.92C55.7378 273.919 55.7049 273.91 55.6747 273.895C55.6445 273.88 55.6175 273.86 55.5953 273.835C55.5731 273.809 55.5562 273.78 55.5455 273.748C55.5344 273.717 55.5297 273.684 55.5317 273.651C55.5337 273.618 55.5424 273.585 55.5572 273.556C55.572 273.526 55.5926 273.5 55.6178 273.478C55.643 273.457 55.6723 273.441 55.7039 273.431C57.7373 272.783 59.9215 272.783 61.9549 273.431C62.0105 273.452 62.0572 273.491 62.0867 273.543C62.1162 273.594 62.1267 273.654 62.1163 273.713C62.1059 273.771 62.0754 273.824 62.0299 273.863C61.9845 273.901 61.9271 273.922 61.8677 273.922V273.906Z" fill="#F5F5F5"/>
<path d="M55.7669 271.419C55.7184 271.418 55.6712 271.403 55.6306 271.376C55.59 271.35 55.5577 271.312 55.5371 271.268C55.5103 271.207 55.5085 271.138 55.5322 271.076C55.556 271.014 55.6032 270.963 55.6639 270.936C57.6652 270.149 59.8878 270.135 61.899 270.896C61.9301 270.907 61.9586 270.925 61.9828 270.948C62.007 270.97 62.0263 270.998 62.0396 271.028C62.0529 271.058 62.06 271.091 62.0603 271.124C62.0607 271.157 62.0543 271.19 62.0416 271.221C62.0168 271.282 61.969 271.332 61.9083 271.358C61.8475 271.385 61.7788 271.387 61.7167 271.363C61.7167 271.363 58.6111 270.143 55.8778 271.363C55.8455 271.39 55.8075 271.409 55.7669 271.419Z" fill="#F5F5F5"/>
<path d="M55.7116 269.09C55.6638 269.09 55.6168 269.077 55.5761 269.052C55.5355 269.026 55.5028 268.99 55.4819 268.947C55.4545 268.887 55.4516 268.819 55.4738 268.757C55.4959 268.694 55.5415 268.643 55.6007 268.614C56.5939 268.162 57.6708 267.921 58.7622 267.909C59.8537 267.897 60.9356 268.113 61.9388 268.543C61.9688 268.557 61.9958 268.576 62.0182 268.6C62.0405 268.625 62.0577 268.653 62.0688 268.684C62.0799 268.715 62.0846 268.748 62.0827 268.781C62.0808 268.814 62.0723 268.846 62.0576 268.876C62.044 268.906 62.0245 268.933 62.0003 268.955C61.976 268.978 61.9475 268.995 61.9165 269.006C61.8854 269.017 61.8525 269.022 61.8195 269.02C61.7866 269.018 61.7544 269.009 61.7249 268.995C60.7837 268.605 59.7732 268.41 58.7545 268.422C57.7359 268.435 56.7303 268.654 55.7988 269.066C55.7712 269.079 55.7418 269.087 55.7116 269.09Z" fill="#F5F5F5"/>
<path d="M55.6558 266.483C55.5977 266.484 55.5412 266.465 55.4955 266.429C55.4498 266.393 55.4178 266.343 55.4049 266.286C55.3919 266.229 55.3987 266.17 55.4242 266.118C55.4497 266.066 55.4922 266.024 55.5448 266C58.5634 264.51 61.8196 265.936 61.9543 266C61.9858 266.011 62.0144 266.03 62.0382 266.054C62.0621 266.077 62.0806 266.106 62.0926 266.137C62.1046 266.169 62.1098 266.202 62.1078 266.236C62.1058 266.27 62.0966 266.302 62.081 266.332C62.0533 266.393 62.0029 266.44 61.9406 266.464C61.8784 266.488 61.8093 266.486 61.7483 266.459C61.7483 266.459 58.5792 265.073 55.7746 266.459C55.738 266.478 55.6968 266.486 55.6558 266.483Z" fill="#F5F5F5"/>
<path d="M57.8346 164.099C53.81 175.246 54.5151 182.242 55.2043 193.928C55.8381 204.639 56.8443 214.075 56.8443 214.075C56.6859 215.976 54.0397 219.684 53.6753 228.082C53.5585 233.996 53.8231 239.91 54.4675 245.789C54.4675 245.789 59.7361 247.715 64.1886 245.789C64.1886 245.789 68.7441 225.674 69.988 215.842C71.0654 207.262 72.951 196.297 72.951 196.297L76.9123 215.802C76.138 218.424 75.7405 221.142 75.7319 223.875C75.7319 228.463 77.863 241.218 77.863 241.218C77.863 241.218 83.7654 243.127 87.5049 239.808C87.5049 239.808 88.9864 221.451 89.5093 214.455C90.2065 205.122 89.1924 179.54 86.9503 166.444L57.8346 164.099Z" fill="#455A64"/>
<path d="M72.999 196.265L74.6469 181.592C74.6469 181.592 82.0229 180.61 85.3662 177.464C84.4071 178.964 83.1287 180.234 81.6223 181.183C80.1159 182.132 78.4185 182.737 76.6514 182.955L74.2746 196.613L76.9683 215.77L72.999 196.265Z" fill="#37474F"/>
<path d="M91.2368 153.221C87.6478 149.529 81.1671 141.178 81.1671 141.178L77.5068 128.502C78.325 128.545 79.1447 128.545 79.9628 128.502C83.9242 128.764 85.0888 129.104 87.5527 131.798C89.5096 133.945 96.9727 144.134 99.5634 147.564L106.448 138.794C108.104 136.298 107.835 133.501 108.69 131.465C109.546 129.429 110.932 128.534 112.042 126.712C113.151 124.89 113.412 123.669 114.323 124.612C115.234 125.555 114.181 128.09 114.046 128.669C113.911 129.247 112.517 130.966 114.838 130.071C117.16 129.176 120.741 124.937 121.66 124.074C122.579 123.21 123.07 124.549 122.864 125.611C122.658 126.672 123.656 129.065 123.292 130.816C123.065 132.577 122.189 134.19 120.836 135.34C119.164 137.019 115.076 139.087 113.476 141.297C111.875 143.508 108.461 150.377 106.345 154.512C103.691 159.773 101.433 161.508 98.4226 159.733C95.412 157.959 92.5598 154.591 91.2368 153.221Z" fill="#FFA8A7"/>
<path d="M78.6714 128.368C80.6972 128.165 82.7422 128.437 84.6451 129.16C86.7921 130.127 88.2499 132.202 90.3494 135.015C92.4489 137.827 96.1963 142.747 96.1963 142.747C96.1963 142.747 95.1822 147.018 88.4955 150.852L77.5781 139.61L78.6714 128.368Z" fill="#37474F"/>
<path d="M99.5639 147.556C98.258 148.788 97.383 150.408 97.0682 152.175C97.0682 152.175 96.276 149.632 98.9776 146.772L99.5639 147.556Z" fill="#F28F8F"/>
<path d="M86.5787 150.876C91.4511 146.867 89.8428 141.646 88.0681 138.128C84.5109 131.101 80.811 128.336 79.2661 128.36L69.5767 128.455C64.9499 129.088 61.3689 128.772 60.2518 129.033C57.3996 129.706 57.3362 132.051 57.2253 135.086C57.1065 138.413 55.4031 137.851 56.2667 143.349C57.2852 145.393 58.1794 147.496 58.9445 149.648C59.4674 151.549 60.941 154.576 60.1567 157.649C59.8556 158.838 59.0475 160.026 57.8354 163.282C56.4609 166.943 55.4396 170.726 54.7852 174.58C54.7852 174.58 57.6135 173.923 60.8301 170.5C60.8301 170.5 65.2272 176.386 75.8039 175.792C86.7767 175.174 87.7433 169.454 87.7433 169.454L86.0637 159.155C86.3172 154.995 86.4281 153.49 86.5787 150.876Z" fill="#BA68C8"/>
<path opacity="0.1" d="M80.248 149.838C80.248 149.838 76.2867 153.007 71.6361 151.486C70.3406 151.097 69.1661 150.384 68.2245 149.413C67.2828 148.442 66.6054 147.247 66.2566 145.94C66.2566 145.94 65.8605 151.208 71.7074 152.904C73.2714 153.378 74.9467 153.336 76.485 152.784C78.0233 152.232 79.3428 151.199 80.248 149.838Z" fill="black"/>
<path d="M52.5102 123.836C51.0762 122.79 43.3517 133.129 46.9644 135.72C50.5771 138.311 54.4275 130.967 53.6511 127.496C52.8747 124.026 52.5102 123.836 52.5102 123.836Z" fill="#37474F"/>
<path d="M45.4994 118.702C47.4326 116.024 48.7477 114.004 50.5145 111.707C51.5127 110.399 52.1544 109.472 53.1131 108.133C53.7786 107.214 54.1668 106.438 54.9115 106.145C55.7429 105.779 56.4859 105.239 57.0902 104.56C57.4603 104.132 57.8017 103.679 58.1123 103.206C59.229 101.659 60.5632 100.282 62.0736 99.1175C63.6581 97.8895 65.3932 96.9388 67.0094 95.7662C67.968 95.069 68.9979 93.9203 67.8016 92.8824C67.4298 92.5823 66.9884 92.3806 66.5182 92.2961C63.6343 91.7178 61.1387 92.7556 58.3341 93.5241C57.1145 93.8566 55.9226 94.283 54.7689 94.7997C54.1962 95.0322 53.662 95.35 53.1844 95.7425C52.521 96.4357 51.9846 97.2402 51.5999 98.1192C50.3719 100.377 47.7812 102.39 45.9669 104.156C43.8357 106.232 41.9343 108.118 39.502 110.423C37.3154 112.483 35.1683 114.384 33.1639 116.634C31.5081 118.488 32.1498 119.914 32.3716 120.398C33.7977 123.202 35.3506 124.193 37.2203 125.944C37.8383 126.514 38.4641 127.076 39.09 127.639C41.5144 129.826 43.9387 131.87 46.4581 133.977C49.1518 136.195 50.2609 137.273 52.6615 139.428C54.1763 140.819 55.4388 142.462 56.393 144.284C60.5524 144.974 64.6405 138.612 61.0753 131.172C60.4889 129.969 59.6021 128.938 58.5005 128.178C54.1113 125.048 45.4994 118.702 45.4994 118.702Z" fill="#FFA8A7"/>
<path d="M45.4995 118.702C44.2019 120.35 42.4585 121.59 40.4766 122.275C40.4766 122.275 43.1306 122.909 46.6958 119.589L45.4995 118.702Z" fill="#F28F8F"/>
<path d="M60.5834 128.97C59.6089 128.296 57.24 126.862 52.5102 123.836C52.5102 123.836 53.2391 125.365 52.0903 129.207C50.9416 133.05 48.5172 135.482 46.9961 135.759C46.9961 135.759 49.6422 137.851 52.0824 140.212C54.5226 142.573 56.527 144.245 57.9372 146.986C57.9372 146.986 61.4232 146.091 62.2155 140.18C62.77 136.037 62.4373 131.172 60.5834 128.97Z" fill="#455A64"/>
<path d="M87.0462 109.94C87.7427 108.468 88.0494 106.842 87.9371 105.217C87.8247 103.593 87.297 102.024 86.4044 100.662C83.4018 96.3921 78.3392 94.3243 72.7458 94.3876H71.0108C63.4605 94.5144 56.5995 100.995 56.4648 108.292C56.4648 113.426 56.4648 118.171 59.2932 121.673C61.8998 124.929 65.9641 125.999 69.3946 126.522C75.9545 127.52 83.3225 126.759 86.3015 122.291C86.3015 122.291 82.3401 123.083 82.8393 118.979C82.9106 118.33 82.2926 117.617 81.2072 116.88C81.9675 115.563 82.8622 114.328 83.8771 113.196C84.9942 112.079 86.2856 111.453 87.0462 109.94Z" fill="#263238"/>
<path d="M85.089 113.687C85.0494 121.333 82.6013 123.258 81.3733 123.828C80.1453 124.399 77.7368 124.098 75.3996 123.757L75.4788 128.344C75.4788 128.344 78.2121 131.109 78.0537 133.216C77.8952 135.324 73.8705 135.593 70.8203 133.621C69.1401 132.508 67.616 131.176 66.2886 129.659C66.0353 129.366 65.8923 128.993 65.8845 128.605L65.6944 117.823C65.6944 117.823 64.4426 119.193 62.1609 117.688C61.668 117.387 61.2431 116.986 60.9132 116.512C60.5833 116.038 60.3557 115.5 60.2446 114.933C60.1336 114.366 60.1417 113.782 60.2684 113.219C60.3951 112.655 60.6375 112.124 60.9804 111.659C61.3028 111.346 61.6899 111.107 62.1146 110.959C62.5393 110.812 62.9912 110.759 63.4384 110.805C63.8856 110.851 64.3173 110.995 64.703 111.226C65.0887 111.457 65.419 111.77 65.6706 112.142C66.3678 113.442 66.3044 114.361 67.2551 114.21C68.2059 114.06 68.2455 113.03 68.3089 112.293C68.3722 111.556 68.3089 111.318 68.4039 110.352C70.6619 109.868 72.999 106.723 73.2605 104.426C74.7901 105.178 76.476 105.558 78.1804 105.535C80.7078 105.361 82.015 104.853 83.2589 103.031C83.5552 103.448 83.7925 103.904 83.964 104.386C84.3159 105.362 84.581 106.366 84.7562 107.389C85.0384 109.476 85.1497 111.582 85.089 113.687Z" fill="#FFA8A7"/>
<path d="M75.3995 123.757C72.9356 123.472 67.8572 122.109 67.0332 120.128C67.3662 121.134 67.9994 122.013 68.8475 122.648C70.3845 123.915 75.4233 125.286 75.4233 125.286L75.3995 123.757Z" fill="#F28F8F"/>
<path d="M77.8793 119.637C77.8839 119.836 77.8293 120.032 77.7224 120.2C77.6154 120.369 77.4609 120.501 77.2784 120.582C77.096 120.662 76.8938 120.686 76.6975 120.651C76.5013 120.616 76.3198 120.524 76.1761 120.386C76.0324 120.248 75.933 120.07 75.8904 119.875C75.8478 119.681 75.8641 119.478 75.937 119.292C76.01 119.107 76.1364 118.947 76.3003 118.833C76.4641 118.72 76.6579 118.658 76.8572 118.654C77.1228 118.65 77.3792 118.751 77.5706 118.935C77.7621 119.119 77.873 119.371 77.8793 119.637Z" fill="#B16668"/>
<path d="M76.5872 112.111C76.6003 112.251 76.5854 112.393 76.5434 112.528C76.5014 112.662 76.4331 112.788 76.3425 112.896C76.2519 113.004 76.1408 113.093 76.0156 113.158C75.8903 113.224 75.7534 113.263 75.6127 113.275C75.3961 113.298 75.1774 113.256 74.9849 113.154C74.7924 113.052 74.6347 112.895 74.5321 112.703C74.4295 112.511 74.3867 112.292 74.4091 112.075C74.4316 111.859 74.5183 111.654 74.6581 111.486C74.798 111.319 74.9845 111.198 75.1939 111.137C75.4033 111.077 75.6259 111.081 75.8332 111.148C76.0405 111.215 76.223 111.342 76.3574 111.514C76.4917 111.685 76.5718 111.893 76.5872 112.111Z" fill="#263238"/>
<path d="M83.7338 111.659C83.7535 111.917 83.6706 112.173 83.5029 112.37C83.3353 112.567 83.0965 112.69 82.8385 112.713C82.7086 112.729 82.5767 112.716 82.4519 112.677C82.327 112.637 82.2122 112.571 82.1152 112.483C82.0182 112.395 81.9413 112.287 81.8898 112.167C81.8382 112.047 81.8132 111.917 81.8165 111.786C81.8034 111.657 81.8162 111.528 81.8539 111.404C81.8917 111.281 81.9538 111.167 82.0365 111.068C82.1191 110.969 82.2208 110.888 82.3354 110.828C82.45 110.769 82.5753 110.734 82.7038 110.724C82.9639 110.713 83.2178 110.805 83.4106 110.98C83.6033 111.155 83.7194 111.399 83.7338 111.659Z" fill="#263238"/>
<path d="M78.7988 110.669L79.5594 117.055L82.8314 115.692L78.7988 110.669Z" fill="#F28F8F"/>
<path d="M72.7695 109.354L74.671 107.547C74.9077 107.811 75.0341 108.155 75.0237 108.509C75.0134 108.863 74.8672 109.2 74.6155 109.449C74.4901 109.568 74.3418 109.66 74.1796 109.72C74.0174 109.78 73.8448 109.806 73.6721 109.797C73.4995 109.788 73.3304 109.744 73.1753 109.668C73.0201 109.592 72.8821 109.485 72.7695 109.354Z" fill="#263238"/>
<path d="M82.2843 106.961L84.3917 108.545C84.2947 108.689 84.1694 108.81 84.0236 108.903C83.8778 108.996 83.7146 109.058 83.5439 109.086C83.3732 109.113 83.1988 109.105 83.0312 109.063C82.8636 109.02 82.7065 108.944 82.5695 108.839C82.2935 108.62 82.1107 108.304 82.0578 107.956C82.0049 107.607 82.0858 107.252 82.2843 106.961Z" fill="#263238"/>
<path d="M51.9088 48.9276C53.4279 48.638 54.9809 48.5686 56.5198 48.7217C57.9904 48.8506 59.426 49.2424 60.7584 49.8784C62.0367 50.4886 63.1668 51.3699 64.07 52.4611C65.0224 53.629 65.6557 55.0239 65.9081 56.5096C66.1456 57.6754 66.1456 58.8772 65.9081 60.0431C65.6951 61.0579 65.3319 62.0352 64.8306 62.9428C64.344 63.826 63.7792 64.6639 63.1431 65.4463C62.5093 66.2386 61.9072 66.9675 61.3446 67.6726C60.8067 68.3362 60.3294 69.0468 59.9186 69.7958C59.541 70.4609 59.3571 71.2183 59.3878 71.9825C59.3924 72.3378 59.3021 72.6878 59.1263 72.9966C59.0434 73.1425 58.9295 73.2685 58.7926 73.3657C58.6557 73.4629 58.4992 73.5289 58.3341 73.5591L54.6025 74.2642C54.4253 74.2995 54.2427 74.2987 54.0658 74.262C53.8888 74.2252 53.7211 74.1532 53.5726 74.0503C53.418 73.9618 53.2874 73.8368 53.1921 73.6863C53.0968 73.5358 53.0398 73.3643 53.0259 73.1867C52.844 72.0145 52.9033 70.8175 53.2002 69.6691C53.4819 68.6458 53.8946 67.6632 54.4282 66.7456C54.944 65.8718 55.5352 65.0447 56.1949 64.2738C56.8525 63.4815 57.4467 62.7685 57.9934 62.0713C58.4959 61.4451 58.9314 60.768 59.2927 60.051C59.6034 59.4288 59.7009 58.7217 59.57 58.0387C59.4648 57.4366 59.2142 56.8694 58.84 56.3862C58.4659 55.903 57.9794 55.5183 57.4229 55.2657C56.0425 54.6384 54.492 54.4906 53.018 54.8458C50.2398 55.374 48.4572 57.154 47.6702 60.1857C47.601 60.5053 47.4777 60.8107 47.3058 61.0889C47.086 61.3428 46.7766 61.5018 46.4422 61.5325L42.4809 62.2852C42.2073 62.3339 41.9253 62.2803 41.6886 62.1347C41.5642 62.0525 41.4583 61.9452 41.3778 61.8196C41.2973 61.6941 41.244 61.5531 41.2212 61.4058C41.0501 60.156 41.186 58.8834 41.6173 57.698C42.0658 56.3288 42.7524 55.0495 43.6455 53.9189C44.6469 52.6809 45.8398 51.6111 47.179 50.7498C48.6223 49.8411 50.2289 49.2222 51.9088 48.9276ZM59.1422 76.4588C59.4944 76.3978 59.8566 76.4762 60.1522 76.6772C60.4479 76.8782 60.6538 77.1862 60.7267 77.5362L61.5189 81.862C61.5551 82.0354 61.5547 82.2144 61.5179 82.3876C61.4811 82.5608 61.4086 82.7245 61.305 82.8682C61.2077 83.0156 61.0819 83.142 60.9349 83.2399C60.788 83.3379 60.6229 83.4054 60.4494 83.4386L56.2266 84.2309C56.052 84.2672 55.8717 84.2669 55.6972 84.2301C55.5226 84.1933 55.3576 84.1207 55.2125 84.017C55.0652 83.9196 54.9388 83.7938 54.8408 83.6468C54.7428 83.4999 54.6753 83.3348 54.6421 83.1613L53.8498 78.8356C53.8167 78.6616 53.8193 78.4827 53.8575 78.3097C53.8956 78.1367 53.9685 77.9733 54.0717 77.8294C54.1665 77.6798 54.2917 77.5518 54.4391 77.4535C54.5864 77.3553 54.7528 77.289 54.9273 77.259L59.1422 76.4588Z" fill="#BA68C8"/>
<path d="M92.1718 66.7773C93.1061 67.2954 93.9601 67.9465 94.707 68.7104C95.4331 69.4262 96.0212 70.2694 96.4421 71.1981C96.8458 72.0863 97.0539 73.0508 97.0521 74.0265C97.0511 75.0664 96.778 76.0879 96.2599 76.9895C95.8717 77.7121 95.3471 78.3525 94.7149 78.8751C94.1487 79.3148 93.5215 79.6697 92.8531 79.9288C92.2035 80.1827 91.5328 80.3789 90.8487 80.5151L88.9156 80.8954C88.3357 81.0069 87.7679 81.174 87.2201 81.3945C86.7272 81.5775 86.296 81.8961 85.9763 82.3135C85.8205 82.5054 85.6149 82.6506 85.3821 82.7334C85.2727 82.7744 85.1556 82.7907 85.0392 82.7811C84.9227 82.7715 84.8099 82.7363 84.7087 82.678L82.419 81.3945C82.1964 81.2727 82.0311 81.0676 81.9595 80.8241C81.9206 80.7084 81.9089 80.5853 81.9254 80.4644C81.9419 80.3434 81.9861 80.2279 82.0546 80.1269C82.4764 79.4264 83.0373 78.8198 83.7025 78.3443C84.3054 77.9232 84.9606 77.5823 85.6515 77.3302C86.314 77.0945 86.9951 76.9143 87.6876 76.7915C88.3768 76.6726 89.0186 76.5538 89.6207 76.427C90.1641 76.3135 90.6949 76.1463 91.2052 75.9279C91.6457 75.7336 92.0123 75.4032 92.251 74.9851C92.4591 74.6175 92.575 74.2049 92.5888 73.7827C92.6026 73.3605 92.5139 72.9412 92.3302 72.5608C91.8777 71.6173 91.1217 70.8529 90.1832 70.39C89.3748 69.9228 88.442 69.7163 87.512 69.7985C86.5819 69.8807 85.6998 70.2477 84.9859 70.8495C84.8093 70.993 84.6079 71.1031 84.3918 71.1743C84.1649 71.212 83.9323 71.1609 83.7421 71.0317L81.3019 69.669C81.1293 69.5719 80.9992 69.4136 80.9375 69.2254C80.9066 69.1269 80.8971 69.023 80.9093 68.9206C80.9216 68.8182 80.9555 68.7195 81.0088 68.6312C81.4713 67.8947 82.1045 67.2805 82.8548 66.8406C83.7088 66.3252 84.6478 65.9657 85.6277 65.779C86.7004 65.5687 87.8001 65.5339 88.8839 65.676C90.0405 65.8283 91.1568 66.2022 92.1718 66.7773ZM83.8213 84.5636C83.9289 84.6232 84.0235 84.7036 84.0997 84.8002C84.1759 84.8968 84.2321 85.0076 84.265 85.1261C84.3001 85.2429 84.3111 85.3656 84.2975 85.4867C84.2839 85.6079 84.2459 85.7251 84.1858 85.8312L82.7042 88.4853C82.584 88.7012 82.3832 88.8608 82.1457 88.9291C81.9081 88.9974 81.6532 88.9689 81.4366 88.8497L78.8459 87.3999C78.7369 87.3433 78.6414 87.2637 78.5662 87.1665C78.4909 87.0694 78.4377 86.9571 78.4102 86.8374C78.3725 86.7213 78.3594 86.5987 78.3717 86.4773C78.3839 86.3559 78.4213 86.2384 78.4815 86.1322L79.963 83.4782C80.0231 83.3718 80.1038 83.2785 80.2004 83.2036C80.297 83.1288 80.4075 83.074 80.5255 83.0424C80.642 83.0054 80.765 82.9934 80.8865 83.007C81.008 83.0207 81.1252 83.0597 81.2306 83.1216L83.8213 84.5636Z" fill="#BA68C8"/>
<g opacity="0.2">
<path d="M92.1718 66.7773C93.1061 67.2954 93.9601 67.9465 94.707 68.7104C95.4331 69.4262 96.0212 70.2694 96.4421 71.1981C96.8458 72.0863 97.0539 73.0508 97.0521 74.0265C97.0511 75.0664 96.778 76.0879 96.2599 76.9895C95.8717 77.7121 95.3471 78.3525 94.7149 78.8751C94.1487 79.3148 93.5215 79.6697 92.8531 79.9288C92.2035 80.1827 91.5328 80.3789 90.8487 80.5151L88.9156 80.8954C88.3357 81.0069 87.7679 81.174 87.2201 81.3945C86.7272 81.5775 86.296 81.8961 85.9763 82.3135C85.8205 82.5054 85.6149 82.6506 85.3821 82.7334C85.2727 82.7744 85.1556 82.7907 85.0392 82.7811C84.9227 82.7715 84.8099 82.7363 84.7087 82.678L82.419 81.3945C82.1964 81.2727 82.0311 81.0676 81.9595 80.8241C81.9206 80.7084 81.9089 80.5853 81.9254 80.4644C81.9419 80.3434 81.9861 80.2279 82.0546 80.1269C82.4764 79.4264 83.0373 78.8198 83.7025 78.3443C84.3054 77.9232 84.9606 77.5823 85.6515 77.3302C86.314 77.0945 86.9951 76.9143 87.6876 76.7915C88.3768 76.6726 89.0186 76.5538 89.6207 76.427C90.1641 76.3135 90.6949 76.1463 91.2052 75.9279C91.6457 75.7336 92.0123 75.4032 92.251 74.9851C92.4591 74.6175 92.575 74.2049 92.5888 73.7827C92.6026 73.3605 92.5139 72.9412 92.3302 72.5608C91.8777 71.6173 91.1217 70.8529 90.1832 70.39C89.3748 69.9228 88.442 69.7163 87.512 69.7985C86.5819 69.8807 85.6998 70.2477 84.9859 70.8495C84.8093 70.993 84.6079 71.1031 84.3918 71.1743C84.1649 71.212 83.9323 71.1609 83.7421 71.0317L81.3019 69.669C81.1293 69.5719 80.9992 69.4136 80.9375 69.2254C80.9066 69.1269 80.8971 69.023 80.9093 68.9206C80.9216 68.8182 80.9555 68.7195 81.0088 68.6312C81.4713 67.8947 82.1045 67.2805 82.8548 66.8406C83.7088 66.3252 84.6478 65.9657 85.6277 65.779C86.7004 65.5687 87.8001 65.5339 88.8839 65.676C90.0405 65.8283 91.1568 66.2022 92.1718 66.7773ZM83.8213 84.5636C83.9289 84.6232 84.0235 84.7036 84.0997 84.8002C84.1759 84.8968 84.2321 85.0076 84.265 85.1261C84.3001 85.2429 84.3111 85.3656 84.2975 85.4867C84.2839 85.6079 84.2459 85.7251 84.1858 85.8312L82.7042 88.4853C82.584 88.7012 82.3832 88.8608 82.1457 88.9291C81.9081 88.9974 81.6532 88.9689 81.4366 88.8497L78.8459 87.3999C78.7369 87.3433 78.6414 87.2637 78.5662 87.1665C78.4909 87.0694 78.4377 86.9571 78.4102 86.8374C78.3725 86.7213 78.3594 86.5987 78.3717 86.4773C78.3839 86.3559 78.4213 86.2384 78.4815 86.1322L79.963 83.4782C80.0231 83.3718 80.1038 83.2785 80.2004 83.2036C80.297 83.1288 80.4075 83.074 80.5255 83.0424C80.642 83.0054 80.765 82.9934 80.8865 83.007C81.008 83.0207 81.1252 83.0597 81.2306 83.1216L83.8213 84.5636Z" fill="black"/>
</g>
<path d="M36.3648 95.8693C36.4703 95.7696 36.5948 95.6922 36.731 95.6419C36.8671 95.5915 37.012 95.5692 37.157 95.5762C37.3057 95.5782 37.4525 95.6101 37.5886 95.67C37.7247 95.7299 37.8474 95.8165 37.9493 95.9248L40.3895 98.5709C40.4899 98.6789 40.5679 98.8056 40.6191 98.9439C40.6703 99.0821 40.6936 99.2291 40.6877 99.3764C40.6818 99.5237 40.6468 99.6684 40.5848 99.8021C40.5227 99.9358 40.4348 100.056 40.3261 100.155L37.7433 102.532C37.6354 102.633 37.5086 102.711 37.3704 102.762C37.2322 102.813 37.0851 102.836 36.9379 102.83C36.7906 102.825 36.6459 102.79 36.5122 102.728C36.3785 102.665 36.2584 102.578 36.1588 102.469L33.7186 99.8227C33.6172 99.7153 33.5383 99.5887 33.4865 99.4503C33.4347 99.312 33.4111 99.1647 33.417 99.0171C33.4229 98.8695 33.4582 98.7246 33.5209 98.5908C33.5836 98.4571 33.6724 98.3372 33.782 98.2382L36.3648 95.8693ZM19.4104 79.9052C20.3368 79.0394 21.3827 78.311 22.516 77.7424C23.5922 77.1984 24.7564 76.8497 25.9544 76.7124C27.1045 76.5854 28.2684 76.7043 29.3691 77.061C30.5385 77.4601 31.5841 78.1563 32.4035 79.0813C33.089 79.7779 33.6278 80.6049 33.988 81.5135C34.2785 82.3105 34.4494 83.1462 34.495 83.9933C34.5403 84.818 34.5137 85.6451 34.4158 86.4652C34.3128 87.2574 34.2177 88.0497 34.1306 88.7865C34.0446 89.4802 34.0208 90.1801 34.0593 90.8781C34.0856 91.5053 34.2889 92.1123 34.6456 92.629C34.7991 92.8658 34.8866 93.1393 34.8991 93.4212C34.906 93.5601 34.881 93.6987 34.8261 93.8264C34.7711 93.9541 34.6877 94.0675 34.5822 94.158L32.3005 96.2734C32.084 96.4696 31.8002 96.5746 31.5082 96.5665C31.3633 96.5718 31.2193 96.5422 31.0883 96.4802C30.9573 96.4181 30.8432 96.3255 30.7556 96.21C30.1217 95.473 29.6421 94.6163 29.3453 93.6906C29.0972 92.8592 28.9587 91.9989 28.9334 91.1316C28.9086 90.2945 28.9563 89.4569 29.076 88.628C29.1948 87.8358 29.2899 87.0435 29.3691 86.3305C29.4401 85.6748 29.4401 85.0134 29.3691 84.3578C29.3174 83.7929 29.0807 83.261 28.6957 82.8445C28.3607 82.4733 27.9404 82.1892 27.4711 82.0167C27.0019 81.8441 26.4976 81.7884 26.002 81.8542C24.7795 82.0123 23.6433 82.5693 22.7695 83.4387C21.0688 85.0232 20.6014 87.033 21.3672 89.4678C21.4612 89.7214 21.5095 89.9897 21.5099 90.2601C21.4902 90.3935 21.4444 90.5216 21.3751 90.6372C21.3057 90.7527 21.2142 90.8535 21.1058 90.9335L18.6735 93.1836C18.5036 93.3477 18.276 93.4387 18.0397 93.4371C17.9187 93.435 17.7995 93.4071 17.6902 93.3552C17.5809 93.3033 17.484 93.2285 17.4059 93.136C16.7324 92.3568 16.2616 91.4234 16.0353 90.4186C15.7665 89.2688 15.7048 88.0803 15.8531 86.9088C16.0158 85.6247 16.385 84.3753 16.9464 83.209C17.5444 81.9575 18.3814 80.8352 19.4104 79.9052Z" fill="#BA68C8"/>
<g opacity="0.6">
<path d="M36.3648 95.8693C36.4703 95.7696 36.5948 95.6922 36.731 95.6419C36.8671 95.5915 37.012 95.5692 37.157 95.5762C37.3057 95.5782 37.4525 95.6101 37.5886 95.67C37.7247 95.7299 37.8474 95.8165 37.9493 95.9248L40.3895 98.5709C40.4899 98.6789 40.5679 98.8056 40.6191 98.9439C40.6703 99.0821 40.6936 99.2291 40.6877 99.3764C40.6818 99.5237 40.6468 99.6684 40.5848 99.8021C40.5227 99.9358 40.4348 100.056 40.3261 100.155L37.7433 102.532C37.6354 102.633 37.5086 102.711 37.3704 102.762C37.2322 102.813 37.0851 102.836 36.9379 102.83C36.7906 102.825 36.6459 102.79 36.5122 102.728C36.3785 102.665 36.2584 102.578 36.1588 102.469L33.7186 99.8227C33.6172 99.7153 33.5383 99.5887 33.4865 99.4503C33.4347 99.312 33.4111 99.1647 33.417 99.0171C33.4229 98.8695 33.4582 98.7246 33.5209 98.5908C33.5836 98.4571 33.6724 98.3372 33.782 98.2382L36.3648 95.8693ZM19.4104 79.9052C20.3368 79.0394 21.3827 78.311 22.516 77.7424C23.5922 77.1984 24.7564 76.8497 25.9544 76.7124C27.1045 76.5854 28.2684 76.7043 29.3691 77.061C30.5385 77.4601 31.5841 78.1563 32.4035 79.0813C33.089 79.7779 33.6278 80.6049 33.988 81.5135C34.2785 82.3105 34.4494 83.1462 34.495 83.9933C34.5403 84.818 34.5137 85.6451 34.4158 86.4652C34.3128 87.2574 34.2177 88.0497 34.1306 88.7865C34.0446 89.4802 34.0208 90.1801 34.0593 90.8781C34.0856 91.5053 34.2889 92.1123 34.6456 92.629C34.7991 92.8658 34.8866 93.1393 34.8991 93.4212C34.906 93.5601 34.881 93.6987 34.8261 93.8264C34.7711 93.9541 34.6877 94.0675 34.5822 94.158L32.3005 96.2734C32.084 96.4696 31.8002 96.5746 31.5082 96.5665C31.3633 96.5718 31.2193 96.5422 31.0883 96.4802C30.9573 96.4181 30.8432 96.3255 30.7556 96.21C30.1217 95.473 29.6421 94.6163 29.3453 93.6906C29.0972 92.8592 28.9587 91.9989 28.9334 91.1316C28.9086 90.2945 28.9563 89.4569 29.076 88.628C29.1948 87.8358 29.2899 87.0435 29.3691 86.3305C29.4401 85.6748 29.4401 85.0134 29.3691 84.3578C29.3174 83.7929 29.0807 83.261 28.6957 82.8445C28.3607 82.4733 27.9404 82.1892 27.4711 82.0167C27.0019 81.8441 26.4976 81.7884 26.002 81.8542C24.7795 82.0123 23.6433 82.5693 22.7695 83.4387C21.0688 85.0232 20.6014 87.033 21.3672 89.4678C21.4612 89.7214 21.5095 89.9897 21.5099 90.2601C21.4902 90.3935 21.4444 90.5216 21.3751 90.6372C21.3057 90.7527 21.2142 90.8535 21.1058 90.9335L18.6735 93.1836C18.5036 93.3477 18.276 93.4387 18.0397 93.4371C17.9187 93.435 17.7995 93.4071 17.6902 93.3552C17.5809 93.3033 17.484 93.2285 17.4059 93.136C16.7324 92.3568 16.2616 91.4234 16.0353 90.4186C15.7665 89.2688 15.7048 88.0803 15.8531 86.9088C16.0158 85.6247 16.385 84.3753 16.9464 83.209C17.5444 81.9575 18.3814 80.8352 19.4104 79.9052Z" fill="white"/>
</g>
<path d="M197.693 151.145C195.435 149.854 185.928 144.356 182.696 142.486C182.054 142.121 181.65 141.884 181.618 141.86C180.011 140.964 178.133 140.682 176.334 141.068C174.789 141.381 173.31 141.957 171.96 142.771C171.739 142.898 171.517 143.048 171.303 143.191C167.65 145.496 164.513 149.125 161.899 154.116C159.236 158.978 157.808 164.419 157.739 169.961C157.739 175.211 159.139 178.896 161.938 181.014C162.222 181.225 162.518 181.418 162.826 181.592C165.448 183.081 178.6 190.703 178.893 190.869H178.964C178.64 190.692 178.331 190.491 178.037 190.267C175.232 188.154 173.833 184.473 173.838 179.223C173.907 173.68 175.335 168.24 177.997 163.378C180.76 158.096 184.111 154.312 188.051 152.025C191.801 149.859 195.039 149.577 197.764 151.177L197.693 151.145Z" fill="#BA68C8"/>
<path opacity="0.4" d="M197.764 151.193C195.038 149.608 191.801 149.888 188.051 152.033C184.39 154.145 181.235 157.578 178.583 162.332L162.484 153.007C164.972 148.563 167.911 145.29 171.294 143.159C171.508 143.025 171.73 142.866 171.952 142.739C173.3 141.925 174.78 141.351 176.325 141.044C178.124 140.654 180.004 140.936 181.61 141.836L182.687 142.462C185.92 144.324 195.427 149.822 197.685 151.114L197.764 151.193Z" fill="black"/>
<path opacity="0.3" d="M178.964 190.846H178.893C178.6 190.679 165.424 183.058 162.826 181.568C162.518 181.394 162.222 181.201 161.938 180.99C159.139 178.877 157.739 175.196 157.739 169.946C157.806 164.403 159.235 158.962 161.899 154.101C162.089 153.728 162.287 153.364 162.493 153.015L178.584 162.308C178.386 162.657 178.188 163.021 177.997 163.386C175.335 168.248 173.907 173.689 173.838 179.231C173.838 184.481 175.238 188.163 178.037 190.275C178.332 190.488 178.641 190.679 178.964 190.846Z" fill="black"/>
<path d="M190.674 15.193C198.486 10.6771 205.136 8.75722 210.623 9.43329C212.857 9.7001 215.013 10.417 216.962 11.5407C216.907 11.5119 216.854 11.4802 216.803 11.4456C214.917 10.384 203.556 3.83199 200.958 2.30293C198.975 1.14436 196.774 0.410513 194.493 0.14797C189 -0.522812 182.348 1.39446 174.536 5.8998C162.388 12.9087 152.617 23.2081 145.222 36.798C137.828 50.388 134.17 64.2605 134.249 78.4156L150.34 87.7088C150.229 73.5432 153.887 59.668 161.313 46.0834C168.739 32.4987 178.526 22.2019 190.674 15.193Z" fill="#BA68C8"/>
<path opacity="0.2" d="M216.834 11.4536C214.914 10.3842 212.804 9.69802 210.623 9.43335C205.14 8.75728 198.491 10.6772 190.674 15.1931C178.525 22.1967 168.754 32.4961 161.36 46.0913C161.051 46.6539 160.75 47.2243 160.457 47.7868L144.326 38.4777C144.619 37.9152 144.92 37.3448 145.229 36.7823C152.655 23.2029 162.427 12.9035 174.543 5.88401C182.365 1.37339 189.018 -0.54388 194.5 0.132184C196.782 0.397391 198.983 1.13393 200.965 2.29506C203.587 3.83997 214.948 10.3999 216.834 11.4536Z" fill="black"/>
<path opacity="0.3" d="M160.418 47.7708C153.599 60.8114 150.242 74.1188 150.348 87.6929L134.257 78.3997C134.157 64.8203 137.513 51.5129 144.327 38.4775L160.418 47.7708Z" fill="black"/>
<path d="M201.607 41.5281C198.686 39.9752 194.785 40.5826 189.905 43.3503C189.74 46.2539 189.142 49.1166 188.13 51.8433C186.91 55.1286 183.361 61.9051 177.482 72.1728C171.393 82.7891 166.988 92.9274 164.268 102.588C161.57 112.125 160.199 121.99 160.195 131.901L160.275 136.837L171.255 143.175L176.373 146.131L176.286 141.187V141.123C176.304 131.244 177.674 121.413 180.358 111.905C183.078 102.244 187.486 92.1088 193.581 81.4977C199.455 71.23 203.001 64.4509 204.221 61.1604C205.44 57.9073 206.062 54.4614 206.059 50.9877C206.059 46.2605 204.575 43.1073 201.607 41.5281Z" fill="#BA68C8"/>
<path opacity="0.3" d="M202.645 64.7175C200.828 68.4993 197.807 74.0821 193.581 81.466C187.481 92.0823 183.073 102.221 180.358 111.881C177.671 121.396 176.301 131.236 176.286 141.123V141.25L176.373 146.194L171.255 143.247L160.275 136.909L160.195 131.965C160.2 122.053 161.57 112.189 164.268 102.651C166.988 92.9908 171.393 82.8524 177.482 72.2361C181.708 64.8417 184.734 59.2615 186.562 55.4956L202.645 64.7175Z" fill="black"/>
<path opacity="0.4" d="M206.059 50.9877C206.061 54.4503 205.441 57.8851 204.229 61.1287C203.888 62.0556 203.357 63.2519 202.644 64.7176L186.562 55.4323C187.264 53.964 187.792 52.7676 188.146 51.8433C189.158 49.1166 189.756 46.2539 189.921 43.3503C194.801 40.5826 198.702 39.9752 201.622 41.5281C204.543 43.0809 206.022 46.2341 206.059 50.9877Z" fill="black"/>
<path d="M172.126 75.1117L150.347 87.6929C150.236 73.5272 153.894 59.652 161.32 46.0674C168.746 32.4827 178.517 22.1833 190.634 15.1691C198.445 10.6532 205.095 8.73333 210.583 9.40939C216.071 10.0855 220.462 13.0934 223.758 18.4333C227.059 23.7731 228.71 30.4334 228.71 38.4141C228.677 43.0475 228.146 47.6639 227.125 52.1837C225.891 57.5902 224.224 62.889 222.142 68.0289C220.811 71.3881 217.623 77.5889 212.579 86.6312C207.757 95.2511 204.736 101.116 203.516 104.227C202.162 107.92 201.156 111.732 200.513 115.612C199.554 121.412 199.024 127.275 198.929 133.153L176.405 146.162L176.318 141.218C176.322 131.306 177.692 121.442 180.39 111.904C183.11 102.244 187.518 92.1084 193.613 81.4974C199.486 71.2297 203.033 64.4505 204.253 61.16C205.46 57.9049 206.072 54.4591 206.059 50.9873C206.059 46.2338 204.578 43.0806 201.615 41.5277C198.651 39.9749 194.674 40.6245 189.683 43.4767C184.581 46.4239 180.395 50.8447 177.126 56.7392C173.928 62.3403 172.208 68.6627 172.126 75.1117Z" fill="#BA68C8"/>
<path d="M188.011 152.08C192.052 149.74 195.501 149.595 198.358 151.644C201.216 153.694 202.644 157.341 202.644 162.585C202.558 168.158 201.102 173.624 198.406 178.502C195.585 183.863 192.176 187.697 188.178 190.006C184.179 192.314 180.783 192.409 177.989 190.291C175.19 188.178 173.79 184.494 173.79 179.239C173.859 173.696 175.287 168.255 177.949 163.394C180.722 158.122 184.076 154.351 188.011 152.08Z" fill="#BA68C8"/>
</svg>
