<svg width="96" height="96" viewBox="0 0 96 96" fill="none" xmlns="http://www.w3.org/2000/svg">
<path d="M57.7197 67.68H48.5597C46.9197 67.68 45.5597 66.32 45.5597 64.68C45.5597 63.04 46.9197 61.68 48.5597 61.68H57.7197C59.4397 61.68 60.8397 60.28 60.8397 58.56C60.8397 56.84 59.4397 55.44 57.7197 55.44H48.5597C47.5997 55.44 46.6797 54.96 46.1197 54.2C45.5597 53.44 45.3997 52.4 45.7197 51.48L48.7597 42.32C49.1597 41.08 50.3197 40.28 51.5997 40.28H63.8397C65.4797 40.28 66.8397 41.64 66.8397 43.28C66.8397 44.92 65.4797 46.28 63.8397 46.28H53.7597L52.7197 49.44H57.7197C62.7597 49.44 66.8397 53.52 66.8397 58.56C66.8397 63.6 62.7197 67.68 57.7197 67.68Z" fill="#FDFDFD"/>
<path d="M38.1597 67.68C36.5197 67.68 35.1597 66.32 35.1597 64.68V51.12L34.3997 52C33.2797 53.24 31.3997 53.32 30.1597 52.24C28.9597 51.12 28.8397 49.24 29.9597 48L35.9597 41.32C36.7997 40.4 38.1197 40.08 39.2797 40.52C40.4397 40.96 41.1997 42.08 41.1997 43.32V64.72C41.1597 66.36 39.8397 67.68 38.1597 67.68Z" fill="#FDFDFD"/>
<path d="M48.0004 13.92C47.6804 13.92 47.3604 13.96 47.0404 13.96L50.3204 9.88C51.3604 8.6 51.1604 6.68 49.8404 5.68C48.5204 4.68 46.6804 4.84 45.6404 6.16L37.7604 16C37.7204 16.04 37.7204 16.08 37.6804 16.16C37.5604 16.32 37.4804 16.52 37.4004 16.68C37.3204 16.88 37.2404 17.04 37.2004 17.2C37.1604 17.4 37.1604 17.56 37.1604 17.76C37.1604 17.96 37.1604 18.16 37.1604 18.36C37.1604 18.44 37.1604 18.48 37.1604 18.56C37.2004 18.68 37.2804 18.76 37.3204 18.88C37.4004 19.08 37.4804 19.24 37.5604 19.44C37.6804 19.6 37.8004 19.76 37.9604 19.88C38.0404 20 38.0804 20.12 38.2004 20.2C38.2804 20.24 38.3204 20.28 38.4004 20.32C38.4804 20.4 38.6004 20.44 38.7204 20.48C38.9204 20.6 39.1604 20.68 39.3604 20.72C39.5204 20.8 39.6404 20.8 39.7604 20.8C39.8804 20.8 39.9604 20.84 40.0804 20.84C40.2004 20.84 40.2804 20.8 40.3604 20.76C40.4804 20.76 40.6004 20.8 40.7204 20.76C43.2804 20.16 45.6804 19.88 47.9604 19.88C65.9204 19.88 80.5204 34.48 80.5204 52.44C80.5204 70.4 65.9204 85 47.9604 85C30.0004 85 15.4004 70.4 15.4004 52.44C15.4004 45.48 17.6804 38.76 22.0004 33C23.0004 31.68 22.7204 29.8 21.4004 28.8C20.0804 27.8 18.2004 28.08 17.2004 29.4C12.0804 36.2 9.40039 44.16 9.40039 52.44C9.40039 73.68 26.6804 91 47.9604 91C69.2404 91 86.5204 73.72 86.5204 52.44C86.5204 31.16 69.2404 13.92 48.0004 13.92Z" fill="#FDFDFD"/>
</svg>
