<svg width="42" height="42" viewBox="0 0 42 42" fill="none" xmlns="http://www.w3.org/2000/svg">
<path d="M14 30.5H34.474L38 33.27V12.5H40C40.5304 12.5 41.0391 12.7107 41.4142 13.0858C41.7893 13.4609 42 13.9696 42 14.5V41.5L33.09 34.5H16C15.4696 34.5 14.9609 34.2893 14.5858 33.9142C14.2107 33.5391 14 33.0304 14 32.5V30.5ZM8.91 26.5L0 33.5V2.5C0 1.96957 0.210714 1.46086 0.585786 1.08579C0.960859 0.710714 1.46957 0.5 2 0.5H32C32.5304 0.5 33.0391 0.710714 33.4142 1.08579C33.7893 1.46086 34 1.96957 34 2.5V26.5H8.91Z" fill="#FDFDFD"/>
</svg>
