<svg width="25" height="25" viewBox="0 0 25 25" fill="none" xmlns="http://www.w3.org/2000/svg">
<path d="M16.11 6V16.16C16.11 16.56 15.99 16.95 15.77 17.28L13.04 21.34C12.61 21.99 11.54 22.45 10.63 22.11C9.65002 21.78 9.00002 20.68 9.21002 19.7L9.73002 16.43C9.77002 16.13 9.69002 15.86 9.52002 15.65C9.35002 15.46 9.10002 15.34 8.83002 15.34H4.72002C3.93002 15.34 3.25002 15.02 2.85002 14.46C2.47002 13.92 2.40002 13.22 2.65002 12.51L5.11002 5.02C5.42002 3.78 6.77002 2.77 8.11002 2.77H12.01C12.68 2.77 13.62 3 14.05 3.43L15.33 4.42C15.82 4.8 16.11 5.38 16.11 6Z" fill="#292D32"/>
<path d="M19.2904 18.11H20.3204C21.8704 18.11 22.5004 17.51 22.5004 16.03V5.97999C22.5004 4.49999 21.8704 3.89999 20.3204 3.89999H19.2904C17.7404 3.89999 17.1104 4.49999 17.1104 5.97999V16.04C17.1104 17.51 17.7404 18.11 19.2904 18.11Z" fill="#292D32"/>
</svg>
