<svg width="48" height="48" viewBox="0 0 48 48" fill="none" xmlns="http://www.w3.org/2000/svg">
<path d="M31.22 11V31.32C31.22 32.12 30.98 32.9 30.54 33.56L25.08 41.68C24.22 42.98 22.08 43.9 20.26 43.22C18.3 42.56 17 40.36 17.42 38.4L18.46 31.86C18.54 31.26 18.38 30.72 18.04 30.3C17.7 29.92 17.2 29.68 16.66 29.68H8.44003C6.86003 29.68 5.50003 29.04 4.70003 27.92C3.94003 26.84 3.80003 25.44 4.30003 24.02L9.22003 9.03998C9.84003 6.55998 12.54 4.53998 15.22 4.53998H23.02C24.36 4.53998 26.24 4.99998 27.1 5.85998L29.66 7.83998C30.64 8.59998 31.22 9.75998 31.22 11Z" fill="#FDFDFD"/>
<path d="M37.5797 35.22H39.6397C42.7397 35.22 43.9997 34.02 43.9997 31.06V10.96C43.9997 7.99999 42.7397 6.79999 39.6397 6.79999H37.5797C34.4797 6.79999 33.2197 7.99999 33.2197 10.96V31.08C33.2197 34.02 34.4797 35.22 37.5797 35.22Z" fill="#FDFDFD"/>
</svg>
