<svg width="68" height="68" viewBox="0 0 68 68" fill="none" xmlns="http://www.w3.org/2000/svg">
<rect width="68" height="68" rx="34" fill="#A781F9" fill-opacity="0.4"/>
<rect x="8" y="8" width="52" height="52" rx="26" fill="#A781F9"/>
<path d="M48.3945 18L45.1836 21.364M32.966 34.1639L39.5645 27.251M39.5645 27.251L44.3809 32.2969L50 26.41L45.1836 21.364M39.5645 27.251L45.1836 21.364M32.966 34.1639C33.795 35.0209 34.454 36.0411 34.905 37.166C35.3561 38.2908 35.5903 39.498 35.5942 40.7181C35.5981 41.9381 35.3716 43.1469 34.9278 44.2749C34.4839 45.4029 33.8315 46.4277 33.008 47.2905C32.1845 48.1532 31.2063 48.8367 30.1296 49.3017C29.053 49.7667 27.8992 50.004 26.7346 49.9999C25.5701 49.9959 24.4178 49.7505 23.3441 49.2779C22.2705 48.8054 21.2966 48.115 20.4787 47.2465C18.8702 45.5017 17.9802 43.1649 18.0003 40.7393C18.0205 38.3138 18.9491 35.9935 20.5863 34.2783C22.2234 32.5631 24.4381 31.5902 26.7533 31.5691C29.0685 31.548 31.299 32.4805 32.9644 34.1656L32.966 34.1639Z" stroke="#522CA4" stroke-width="4" stroke-linecap="round" stroke-linejoin="round"/>
</svg>
