<svg width="64" height="64" viewBox="0 0 64 64" fill="none" xmlns="http://www.w3.org/2000/svg">
<rect width="64" height="64" rx="30" fill="#A781F9" fill-opacity="0.4"/>
<rect x="6" y="6" width="52" height="52" rx="26" fill="#A781F9"/>
<path d="M48.0833 30.575V32.0508C48.0814 35.5101 46.9612 38.8761 44.89 41.6467C42.8187 44.4173 39.9073 46.4442 36.5901 47.425C33.2728 48.4058 29.7273 48.2881 26.4824 47.0892C23.2375 45.8904 20.467 43.6748 18.5842 40.7728C16.7014 37.8708 15.8072 34.4379 16.0348 30.9862C16.2624 27.5344 17.5997 24.2487 19.8472 21.6191C22.0948 18.9894 25.1322 17.1568 28.5064 16.3944C31.8806 15.6321 35.4108 15.9808 38.5706 17.3888" stroke="#522CA4" stroke-width="4" stroke-linecap="round" stroke-linejoin="round"/>
<path d="M48.0837 19.2175L32.042 35.2752L27.2295 30.4627" stroke="#522CA4" stroke-width="4" stroke-linecap="round" stroke-linejoin="round"/>
</svg>
