<svg width="96" height="96" viewBox="0 0 96 96" fill="none" xmlns="http://www.w3.org/2000/svg">
<path d="M57.7197 67.68H48.5597C46.9197 67.68 45.5597 66.32 45.5597 64.68C45.5597 63.04 46.9197 61.68 48.5597 61.68H57.7197C59.4397 61.68 60.8397 60.28 60.8397 58.56C60.8397 56.84 59.4397 55.44 57.7197 55.44H48.5597C47.5997 55.44 46.6797 54.96 46.1197 54.2C45.5597 53.44 45.3997 52.4 45.7197 51.48L48.7597 42.32C49.1597 41.08 50.3197 40.28 51.5997 40.28H63.8397C65.4797 40.28 66.8397 41.64 66.8397 43.28C66.8397 44.92 65.4797 46.28 63.8397 46.28H53.7597L52.7197 49.44H57.7197C62.7597 49.44 66.8397 53.52 66.8397 58.56C66.8397 63.6 62.7197 67.68 57.7197 67.68Z" fill="#FDFDFD"/>
<path d="M38.1597 67.68C36.5197 67.68 35.1597 66.32 35.1597 64.68V51.1199L34.3997 52C33.2797 53.24 31.3997 53.32 30.1597 52.24C28.9597 51.12 28.8397 49.24 29.9597 48L35.9597 41.32C36.7997 40.4 38.1197 40.08 39.2797 40.52C40.4397 40.96 41.1997 42.08 41.1997 43.32V64.72C41.1597 66.36 39.8397 67.68 38.1597 67.68Z" fill="#FDFDFD"/>
<path d="M78.7604 29.4C77.7604 28.08 75.8804 27.8 74.5604 28.8C73.2404 29.8 72.9604 31.68 73.9604 33C78.2804 38.76 80.5604 45.48 80.5604 52.44C80.5604 70.4 65.9604 85 48.0004 85C30.0404 85 15.4404 70.4 15.4404 52.44C15.4404 34.48 30.0404 19.92 48.0004 19.92C50.3204 19.92 52.6804 20.2 55.2404 20.8C55.3604 20.84 55.4804 20.8 55.6004 20.8C55.7204 20.8 55.8004 20.88 55.8804 20.88C56.0004 20.88 56.0804 20.84 56.2004 20.84C56.3204 20.84 56.4404 20.8 56.6004 20.76C56.8404 20.72 57.0404 20.6 57.2404 20.52C57.3604 20.44 57.4804 20.4 57.6004 20.32C57.6404 20.28 57.7204 20.28 57.7604 20.24C57.8804 20.16 57.9204 20.04 58.0004 19.96C58.1604 19.8 58.2804 19.68 58.4004 19.48C58.5204 19.32 58.5604 19.12 58.6404 18.92C58.6804 18.8 58.7604 18.68 58.8004 18.56C58.8004 18.48 58.8004 18.44 58.8004 18.36C58.8404 18.16 58.8404 17.96 58.8004 17.76C58.8004 17.56 58.8004 17.4 58.7604 17.2C58.7204 17.04 58.6404 16.88 58.5604 16.68C58.4804 16.48 58.4004 16.28 58.2804 16.12C58.2804 16.08 58.2804 16.04 58.2404 16L50.3204 6.11997C49.2804 4.83997 47.4004 4.59997 46.1204 5.63997C44.8404 6.67997 44.6404 8.55997 45.6404 9.83997L48.9204 13.92C48.6004 13.92 48.2804 13.88 47.9604 13.88C26.7204 13.88 9.40039 31.16 9.40039 52.44C9.40039 73.72 26.6804 91 47.9604 91C69.2404 91 86.5204 73.72 86.5204 52.44C86.5604 44.16 83.8404 36.2 78.7604 29.4Z" fill="#FDFDFD"/>
</svg>
