<svg width="24" height="25" viewBox="0 0 24 25" fill="none" xmlns="http://www.w3.org/2000/svg">
<path d="M20.83 8.28492L14.28 3.04492C13 2.02492 11 2.01492 9.72996 3.03492L3.17996 8.28492C2.23996 9.03492 1.66996 10.5349 1.86996 11.7149L3.12996 19.2549C3.41996 20.9449 4.98996 22.2749 6.69996 22.2749H17.3C18.99 22.2749 20.59 20.9149 20.88 19.2449L22.14 11.7049C22.32 10.5349 21.75 9.03492 20.83 8.28492ZM12.75 18.2749C12.75 18.6849 12.41 19.0249 12 19.0249C11.59 19.0249 11.25 18.6849 11.25 18.2749V15.2749C11.25 14.8649 11.59 14.5249 12 14.5249C12.41 14.5249 12.75 14.8649 12.75 15.2749V18.2749Z" fill="#FDFDFD"/>
</svg>
