<svg width="25" height="25" viewBox="0 0 25 25" fill="none" xmlns="http://www.w3.org/2000/svg">
<path d="M8.88965 18.99V8.83001C8.88965 8.43001 9.00965 8.04001 9.22965 7.71001L11.9596 3.65001C12.3896 3.00001 13.4596 2.54001 14.3696 2.88001C15.3496 3.21001 15.9996 4.31001 15.7896 5.29001L15.2696 8.56001C15.2296 8.86001 15.3096 9.13001 15.4796 9.34001C15.6496 9.53001 15.8996 9.65001 16.1696 9.65001H20.2796C21.0696 9.65001 21.7496 9.97001 22.1496 10.53C22.5296 11.07 22.5996 11.77 22.3496 12.48L19.8896 19.97C19.5796 21.21 18.2296 22.22 16.8896 22.22H12.9896C12.3196 22.22 11.3796 21.99 10.9496 21.56L9.66965 20.57C9.17965 20.2 8.88965 19.61 8.88965 18.99Z" fill="#292D32"/>
<path d="M5.71 6.88H4.68C3.13 6.88 2.5 7.48 2.5 8.96V19.02C2.5 20.5 3.13 21.1 4.68 21.1H5.71C7.26 21.1 7.89 20.5 7.89 19.02V8.96C7.89 7.48 7.26 6.88 5.71 6.88Z" fill="#292D32"/>
</svg>
