<svg width="48" height="48" viewBox="0 0 48 48" fill="none" xmlns="http://www.w3.org/2000/svg">
<path d="M16.7803 36.98V16.66C16.7803 15.86 17.0203 15.08 17.4603 14.42L22.9203 6.30001C23.7803 5.00001 25.9203 4.08001 27.7403 4.76001C29.7003 5.42001 31.0003 7.62001 30.5803 9.58001L29.5403 16.12C29.4603 16.72 29.6203 17.26 29.9603 17.68C30.3003 18.06 30.8003 18.3 31.3403 18.3H39.5603C41.1403 18.3 42.5003 18.94 43.3003 20.06C44.0603 21.14 44.2003 22.54 43.7003 23.96L38.7803 38.94C38.1603 41.42 35.4603 43.44 32.7803 43.44H24.9803C23.6403 43.44 21.7603 42.98 20.9003 42.12L18.3403 40.14C17.3603 39.4 16.7803 38.22 16.7803 36.98Z" fill="#FDFDFD"/>
<path d="M10.42 12.76H8.36C5.26 12.76 4 13.96 4 16.92V37.04C4 40 5.26 41.2 8.36 41.2H10.42C13.52 41.2 14.78 40 14.78 37.04V16.92C14.78 13.96 13.52 12.76 10.42 12.76Z" fill="#FDFDFD"/>
</svg>
