<svg width="16" height="16" viewBox="0 0 16 16" fill="none" xmlns="http://www.w3.org/2000/svg">
<path d="M8.00043 9.33334C4.66043 9.33334 1.94043 11.5733 1.94043 14.3333C1.94043 14.52 2.0871 14.6667 2.27376 14.6667H13.7271C13.9138 14.6667 14.0604 14.52 14.0604 14.3333C14.0604 11.5733 11.3404 9.33334 8.00043 9.33334Z" fill="#7B42F6"/>
<path d="M11.2331 3.86666C11.1531 3.54 11.0197 3.22 10.8331 2.92666C10.7064 2.71333 10.5397 2.5 10.3597 2.31333C9.75973 1.71333 8.97973 1.38666 8.17973 1.34666C7.27307 1.28666 6.3464 1.62 5.6464 2.31333C4.9864 2.96666 4.65307 3.83999 4.6664 4.72C4.67307 5.55333 5.0064 6.38666 5.63973 7.02666C6.07973 7.46666 6.61973 7.76 7.19973 7.89333C7.51307 7.97333 7.8464 8.01333 8.17973 7.98666C8.97307 7.95333 9.7464 7.64 10.3531 7.02666C11.2131 6.16666 11.5064 4.96 11.2331 3.86666ZM9.33307 5.99999C9.09307 6.24 8.69307 6.24 8.45307 5.99999L7.99307 5.54L7.55307 5.98C7.31307 6.22 6.91307 6.22 6.67307 5.98C6.4264 5.73333 6.4264 5.33999 6.6664 5.1L7.1064 4.65999L6.67973 4.24666C6.43973 3.99999 6.43973 3.60666 6.67973 3.35333C6.9264 3.11333 7.31973 3.11333 7.57307 3.35333L7.9864 3.78L8.43307 3.33333C8.67307 3.09333 9.0664 3.09333 9.31307 3.33333C9.55307 3.57333 9.55307 3.97333 9.31307 4.21333L8.87307 4.65333L9.33307 5.11999C9.57307 5.35999 9.57307 5.75999 9.33307 5.99999Z" fill="#7B42F6"/>
</svg>
