<svg width="32" height="32" viewBox="0 0 32 32" fill="none" xmlns="http://www.w3.org/2000/svg">
<rect width="32" height="32" rx="16" fill="white" fill-opacity="0.01"/>
<rect width="24" height="24" transform="translate(4 4)" fill="white" fill-opacity="0.01"/>
<path fill-rule="evenodd" clip-rule="evenodd" d="M8 9.01C8 8.451 8.443 8 9.01 8H10.99C11.549 8 12 8.443 12 9.01V10.99C12 11.549 11.557 12 10.99 12H9.01C8.451 12 8 11.557 8 10.99V9.01ZM8 15.01C8 14.452 8.443 14 9.01 14H10.99C11.548 14 12 14.443 12 15.01V16.99C12 17.549 11.557 18 10.99 18H9.01C8.451 18 8 17.557 8 16.99V15.01ZM14 9.01C14 8.452 14.443 8 15.01 8H16.99C17.548 8 18 8.443 18 9.01V10.99C18 11.549 17.557 12 16.99 12H15.01C14.451 12 14 11.557 14 10.99V9.01ZM14 15.01C14 14.452 14.443 14 15.01 14H16.99C17.548 14 18 14.443 18 15.01V16.99C18 17.548 17.557 18 16.99 18H15.01C14.452 18 14 17.557 14 16.99V15.01ZM20 9.01C20 8.452 20.443 8 21.01 8H22.99C23.548 8 24 8.443 24 9.01V10.99C24 11.549 23.557 12 22.99 12H21.01C20.451 12 20 11.557 20 10.99V9.01ZM20 15.01C20 14.452 20.443 14 21.01 14H22.99C23.548 14 24 14.443 24 15.01V16.99C24 17.548 23.557 18 22.99 18H21.01C20.452 18 20 17.557 20 16.99V15.01ZM8 21.01C8 20.452 8.443 20 9.01 20H10.99C11.548 20 12 20.443 12 21.01V22.99C12 23.549 11.557 24 10.99 24H9.01C8.451 24 8 23.557 8 22.99V21.01ZM14 21.01C14 20.452 14.443 20 15.01 20H16.99C17.548 20 18 20.443 18 21.01V22.99C18 23.548 17.557 24 16.99 24H15.01C14.452 24 14 23.557 14 22.99V21.01ZM20 21.01C20 20.452 20.443 20 21.01 20H22.99C23.548 20 24 20.443 24 21.01V22.99C24 23.548 23.557 24 22.99 24H21.01C20.452 24 20 23.557 20 22.99V21.01Z" fill="#7B42F6"/>
</svg>
