<svg width="32" height="32" viewBox="0 0 32 32" fill="none" xmlns="http://www.w3.org/2000/svg">
<rect width="24" height="24" transform="translate(4 4)" fill="white" fill-opacity="0.01"/>
<path fill-rule="evenodd" clip-rule="evenodd" d="M15.7006 20.7C15.0378 20.7094 14.3798 20.5869 13.7648 20.3398C13.1497 20.0926 12.59 19.7257 12.118 19.2604C11.646 18.795 11.2712 18.2405 11.0154 17.629C10.7596 17.0175 10.6278 16.3613 10.6278 15.6985C10.6278 15.0357 10.7596 14.3795 11.0154 13.768C11.2712 13.1565 11.646 12.602 12.118 12.1366C12.59 11.6713 13.1497 11.3044 13.7648 11.0572C14.3798 10.8101 15.0378 10.6876 15.7006 10.697C17.0272 10.697 18.2994 11.224 19.2375 12.1621C20.1756 13.1001 20.7026 14.3724 20.7026 15.699C20.7026 17.0256 20.1756 18.2979 19.2375 19.236C18.2994 20.174 17.0272 20.701 15.7006 20.701V20.7ZM24.0686 17.584C23.6759 17.4489 23.3353 17.1947 23.094 16.8568C22.8527 16.519 22.7229 16.1142 22.7226 15.699C22.7226 14.823 23.2856 14.086 24.0676 13.814C24.183 13.776 24.2797 13.6956 24.3381 13.5891C24.3966 13.4825 24.4125 13.3578 24.3826 13.24C24.1854 12.5443 23.9047 11.8751 23.5466 11.247C23.4875 11.1475 23.3943 11.0729 23.2842 11.037C23.1742 11.0011 23.0549 11.0064 22.9486 11.052C22.5386 11.2178 22.0859 11.2459 21.6586 11.132C21.3231 11.0424 21.0169 10.8664 20.7706 10.6216C20.5243 10.3769 20.3464 10.0719 20.2546 9.73701C20.1379 9.30794 20.1645 8.8525 20.3306 8.44001C20.3755 8.33361 20.3805 8.21453 20.3444 8.10478C20.3084 7.99503 20.2338 7.90204 20.1346 7.84301C19.5115 7.48991 18.8485 7.2126 18.1596 7.01701C18.0419 6.98681 17.9172 7.00244 17.8106 7.06074C17.704 7.11903 17.6236 7.21564 17.5856 7.33101C17.4505 7.72362 17.1963 8.0643 16.8584 8.30558C16.5205 8.54686 16.1157 8.6767 15.7006 8.67701C15.2856 8.67671 14.8811 8.54698 14.5434 8.30588C14.2057 8.06479 13.9516 7.72435 13.8166 7.33201C13.7781 7.21666 13.6975 7.1201 13.5909 7.06168C13.4842 7.00327 13.3595 6.98731 13.2416 7.01701C12.5336 7.21701 11.8626 7.50201 11.2376 7.85901C11.1402 7.91607 11.0666 8.00628 11.0302 8.11315C10.9938 8.22001 10.9972 8.33639 11.0396 8.44101C11.1888 8.80482 11.2276 9.20454 11.1512 9.59027C11.0747 9.976 10.8863 10.3307 10.6095 10.61C10.3327 10.8894 9.97981 11.081 9.59479 11.161C9.20978 11.2411 8.80972 11.2059 8.44455 11.06C8.33839 11.0156 8.21977 11.0109 8.11047 11.047C8.00117 11.083 7.90852 11.1572 7.84955 11.256C7.49233 11.8846 7.21263 12.5541 7.01655 13.25C6.98686 13.3666 7.00204 13.4901 7.05908 13.596C7.11612 13.702 7.21087 13.7826 7.32455 13.822C7.71158 13.9605 8.04639 14.2151 8.2832 14.5511C8.52001 14.887 8.64726 15.288 8.64755 15.699C8.64755 16.566 8.09555 17.298 7.32355 17.576C7.21016 17.6152 7.1156 17.6955 7.05856 17.801C7.00153 17.9066 6.98618 18.0297 7.01555 18.146C7.1916 18.7669 7.434 19.367 7.73855 19.936C7.79834 20.0417 7.89617 20.1206 8.01211 20.1566C8.12806 20.1927 8.25339 20.1832 8.36255 20.13C8.95755 19.857 9.70555 19.866 10.4666 20.368C10.5836 20.445 10.6916 20.553 10.7686 20.668C11.2956 21.468 11.2806 22.248 10.9666 22.856C10.909 22.9623 10.8943 23.0866 10.9256 23.2034C10.9568 23.3202 11.0316 23.4206 11.1346 23.484C11.7965 23.8723 12.5057 24.1737 13.2446 24.381C13.3616 24.4114 13.4857 24.3958 13.5917 24.3377C13.6976 24.2795 13.7774 24.183 13.8146 24.068C13.9485 23.6739 14.2023 23.3316 14.5405 23.089C14.8787 22.8464 15.2843 22.7156 15.7006 22.715C16.5786 22.715 17.3186 23.282 17.5876 24.068C17.6249 24.1829 17.7047 24.2792 17.8106 24.3373C17.9165 24.3955 18.0406 24.4111 18.1576 24.381C18.8867 24.1759 19.587 23.8792 20.2416 23.498C20.3451 23.4344 20.4202 23.3334 20.4513 23.2159C20.4824 23.0984 20.4671 22.9735 20.4086 22.867C20.0906 22.259 20.0716 21.474 20.5996 20.672C20.6766 20.556 20.7846 20.447 20.9016 20.37C21.6736 19.859 22.4286 19.857 23.0266 20.14C23.1357 20.1947 23.2616 20.2055 23.3784 20.1701C23.4952 20.1348 23.5941 20.056 23.6546 19.95C23.9615 19.3805 24.2056 18.7793 24.3826 18.157C24.4127 18.0395 24.397 17.9149 24.3387 17.8085C24.2804 17.7021 24.1838 17.6218 24.0686 17.584Z" fill="#FDFDFD"/>
</svg>
