<svg width="16" height="16" viewBox="0 0 16 16" fill="none" xmlns="http://www.w3.org/2000/svg">
<path d="M12.8936 9.66001L12.227 8.55334C12.087 8.30668 11.9603 7.84001 11.9603 7.56668V5.88001C11.9603 4.31334 11.0403 2.96001 9.71362 2.32668C9.36695 1.71334 8.72695 1.33334 7.99362 1.33334C7.26695 1.33334 6.61362 1.72668 6.26695 2.34668C4.96695 2.99334 4.06695 4.33334 4.06695 5.88001V7.56668C4.06695 7.84001 3.94029 8.30668 3.80029 8.54668L3.12695 9.66001C2.86029 10.1067 2.80029 10.6 2.96695 11.0533C3.12695 11.5 3.50695 11.8467 4.00029 12.0133C5.29362 12.4533 6.65362 12.6667 8.01362 12.6667C9.37362 12.6667 10.7336 12.4533 12.027 12.02C12.4936 11.8667 12.8536 11.5133 13.027 11.0533C13.2003 10.5933 13.1536 10.0867 12.8936 9.66001Z" fill="white"/>
<path d="M9.88678 13.34C9.60678 14.1133 8.86678 14.6667 8.00012 14.6667C7.47345 14.6667 6.95345 14.4533 6.58678 14.0733C6.37345 13.8733 6.21345 13.6067 6.12012 13.3333C6.20678 13.3467 6.29345 13.3533 6.38678 13.3667C6.54012 13.3867 6.70012 13.4067 6.86012 13.42C7.24012 13.4533 7.62678 13.4733 8.01345 13.4733C8.39345 13.4733 8.77345 13.4533 9.14678 13.42C9.28678 13.4067 9.42678 13.4 9.56012 13.38C9.66678 13.3667 9.77345 13.3533 9.88678 13.34Z" fill="white"/>
</svg>
