<svg width="16" height="16" viewBox="0 0 16 16" fill="none" xmlns="http://www.w3.org/2000/svg">
<path d="M13.1938 2.81332C11.2204 0.846651 8.02042 0.846651 6.06042 2.81332C4.68042 4.17998 4.26709 6.14665 4.80042 7.87998L1.66709 11.0133C1.44709 11.24 1.29376 11.6867 1.34042 12.0067L1.54042 13.46C1.61376 13.94 2.06042 14.3933 2.54042 14.46L3.99376 14.66C4.31376 14.7067 4.76042 14.56 4.98709 14.3267L5.53376 13.78C5.66709 13.6533 5.66709 13.44 5.53376 13.3067L4.24042 12.0133C4.04709 11.82 4.04709 11.5 4.24042 11.3067C4.43376 11.1133 4.75376 11.1133 4.94709 11.3067L6.24709 12.6067C6.37376 12.7333 6.58709 12.7333 6.71376 12.6067L8.12709 11.2C9.85376 11.74 11.8204 11.32 13.1938 9.95332C15.1604 7.98665 15.1604 4.77998 13.1938 2.81332ZM9.66709 7.99998C8.74709 7.99998 8.00042 7.25332 8.00042 6.33332C8.00042 5.41332 8.74709 4.66665 9.66709 4.66665C10.5871 4.66665 11.3338 5.41332 11.3338 6.33332C11.3338 7.25332 10.5871 7.99998 9.66709 7.99998Z" fill="white"/>
</svg>
