<svg width="16" height="16" viewBox="0 0 16 16" fill="none" xmlns="http://www.w3.org/2000/svg">
<path d="M7.99975 11.5667C8.5999 11.5667 9.08642 11.0802 9.08642 10.48C9.08642 9.87986 8.5999 9.39334 7.99975 9.39334C7.3996 9.39334 6.91309 9.87986 6.91309 10.48C6.91309 11.0802 7.3996 11.5667 7.99975 11.5667Z" fill="white"/>
<path d="M12.1863 6.35334V5.52001C12.1863 3.72001 11.753 1.33334 7.99967 1.33334C4.24634 1.33334 3.81301 3.72001 3.81301 5.52001V6.35334C1.94634 6.58668 1.33301 7.53334 1.33301 9.86001V11.1C1.33301 13.8333 2.16634 14.6667 4.89967 14.6667H11.0997C13.833 14.6667 14.6663 13.8333 14.6663 11.1V9.86001C14.6663 7.53334 14.053 6.58668 12.1863 6.35334ZM7.99967 12.4933C6.88634 12.4933 5.98634 11.5867 5.98634 10.48C5.98634 9.36668 6.89301 8.46668 7.99967 8.46668C9.10634 8.46668 10.013 9.37334 10.013 10.48C10.013 11.5933 9.11301 12.4933 7.99967 12.4933ZM4.89967 6.29334C4.84634 6.29334 4.79967 6.29334 4.74634 6.29334V5.52001C4.74634 3.56668 5.29967 2.26668 7.99967 2.26668C10.6997 2.26668 11.253 3.56668 11.253 5.52001V6.30001C11.1997 6.30001 11.153 6.30001 11.0997 6.30001H4.89967V6.29334Z" fill="white"/>
</svg>
