<svg width="32" height="32" viewBox="0 0 32 32" fill="none" xmlns="http://www.w3.org/2000/svg">
<path d="M29.0003 23.9733C29.0003 23.9466 28.987 23.92 28.987 23.8933C28.9736 23.7866 28.9603 23.68 28.9203 23.5866C28.867 23.4666 28.8003 23.3733 28.7203 23.28C28.7203 23.28 28.7203 23.2666 28.707 23.2666C28.6136 23.1733 28.507 23.1066 28.387 23.0533C28.267 23 28.1336 22.9733 28.0003 22.9733L21.7736 23C21.7736 23 21.7736 23 21.7603 23C20.9603 23 20.187 22.6266 19.707 21.9866L18.0803 19.8933C17.747 19.4533 17.1203 19.3733 16.6803 19.72C16.2403 20.0666 16.1603 20.68 16.507 21.12L18.1336 23.2133C19.0003 24.3333 20.3603 25 21.7736 25H21.787L25.587 24.9866L24.6403 25.9333C24.2536 26.32 24.2536 26.96 24.6403 27.3466C24.8403 27.5466 25.0936 27.64 25.347 27.64C25.6003 27.64 25.8536 27.5466 26.0536 27.3466L28.7203 24.68C28.8136 24.5866 28.8803 24.48 28.9336 24.36C28.9736 24.2266 29.0003 24.0933 29.0003 23.9733Z" fill="#FDFDFD"/>
<path d="M11.2267 8.91997C10.36 7.71997 8.97333 7.01331 7.49333 7.01331C7.48 7.01331 7.48 7.01331 7.46667 7.01331L4 7.02664C3.45333 7.02664 3 7.47997 3 8.02664C3 8.57331 3.45333 9.02664 4 9.02664L7.48 9.01331H7.49333C8.33333 9.01331 9.12 9.41331 9.6 10.0933L11.04 12.0933C11.24 12.36 11.5467 12.5066 11.8533 12.5066C12.0533 12.5066 12.2667 12.44 12.44 12.32C12.8933 11.9866 12.9867 11.36 12.6667 10.92L11.2267 8.91997Z" fill="#FDFDFD"/>
<path d="M28.9867 8.10671C28.9867 8.08004 29 8.05338 29 8.04004C29 7.90671 28.9733 7.77338 28.92 7.65338C28.8667 7.53338 28.8 7.42671 28.7067 7.33338L26.04 4.66671C25.6533 4.28004 25.0133 4.28004 24.6267 4.66671C24.24 5.05338 24.24 5.69338 24.6267 6.08004L25.5733 7.02671L21.9333 7.01338C21.92 7.01338 21.92 7.01338 21.9067 7.01338C20.3733 7.01338 18.9333 7.77338 18.08 9.06671L9.56 21.84C9.08 22.56 8.26667 23 7.4 23H7.38667L4 22.9734C3.45333 22.9734 3 23.4134 3 23.9734C3 24.52 3.44 24.9734 4 24.9734L7.4 24.9867C7.41333 24.9867 7.41333 24.9867 7.42667 24.9867C8.97333 24.9867 10.4 24.2267 11.2533 22.9334L19.7733 10.16C20.2533 9.44004 21.0667 9.00004 21.9333 9.00004H21.9467L28 9.02671C28.1333 9.02671 28.2533 9.00004 28.3867 8.94671C28.5067 8.89338 28.6133 8.82671 28.7067 8.73338C28.7067 8.73338 28.7067 8.72004 28.72 8.72004C28.8 8.62671 28.88 8.53338 28.92 8.41338C28.96 8.32004 28.9733 8.21338 28.9867 8.10671Z" fill="#FDFDFD"/>
</svg>
