<svg width="107" height="107" viewBox="0 0 107 107" fill="none" xmlns="http://www.w3.org/2000/svg">
<path d="M44.5837 71.3331H62.417C64.8691 71.3331 66.8753 69.3269 66.8753 66.8748V44.5831H73.9641C77.932 44.5831 79.9382 39.7681 77.1295 36.9594L56.6657 16.4956C56.2533 16.0823 55.7634 15.7544 55.224 15.5307C54.6847 15.307 54.1065 15.1918 53.5226 15.1918C52.9387 15.1918 52.3605 15.307 51.8212 15.5307C51.2819 15.7544 50.792 16.0823 50.3795 16.4956L29.9157 36.9594C27.107 39.7681 29.0687 44.5831 33.0366 44.5831H40.1253V66.8748C40.1253 69.3269 42.1316 71.3331 44.5837 71.3331ZM26.7503 80.2498H80.2503C82.7024 80.2498 84.7087 82.2561 84.7087 84.7081C84.7087 87.1602 82.7024 89.1665 80.2503 89.1665H26.7503C24.2982 89.1665 22.292 87.1602 22.292 84.7081C22.292 82.2561 24.2982 80.2498 26.7503 80.2498Z" fill="#7B42F6"/>
</svg>
