<svg width="32" height="32" viewBox="0 0 32 32" fill="none" xmlns="http://www.w3.org/2000/svg">
<path d="M24.0004 22.3333C23.787 22.3333 23.587 22.2666 23.4004 22.1333C22.9604 21.8 22.867 21.1733 23.2004 20.7333C25.2937 17.9466 25.2937 14.0533 23.2004 11.2666C22.867 10.8266 22.9604 10.2 23.4004 9.86662C23.8404 9.53329 24.467 9.62662 24.8004 10.0666C27.4137 13.56 27.4137 18.44 24.8004 21.9333C24.6004 22.2 24.307 22.3333 24.0004 22.3333Z" fill="#FDFDFD"/>
<path d="M26.4398 25.6667C26.2265 25.6667 26.0265 25.6 25.8398 25.4667C25.3998 25.1334 25.3065 24.5067 25.6398 24.0667C29.1998 19.32 29.1998 12.68 25.6398 7.93337C25.3065 7.49337 25.3998 6.8667 25.8398 6.53337C26.2798 6.20004 26.9065 6.29337 27.2398 6.73337C31.3332 12.1867 31.3332 19.8134 27.2398 25.2667C27.0532 25.5334 26.7465 25.6667 26.4398 25.6667Z" fill="#FDFDFD"/>
<path d="M18.6937 5.04004C17.2003 4.21337 15.2937 4.42671 13.347 5.64004L9.45366 8.08004C9.18699 8.24004 8.88033 8.33337 8.57366 8.33337H7.33366H6.66699C3.44033 8.33337 1.66699 10.1067 1.66699 13.3334V18.6667C1.66699 21.8934 3.44033 23.6667 6.66699 23.6667H7.33366H8.57366C8.88033 23.6667 9.18699 23.76 9.45366 23.92L13.347 26.36C14.5203 27.0934 15.667 27.4534 16.7337 27.4534C17.427 27.4534 18.0937 27.2934 18.6937 26.96C20.1737 26.1334 21.0003 24.4134 21.0003 22.12V9.88004C21.0003 7.58671 20.1737 5.86671 18.6937 5.04004Z" fill="#FDFDFD"/>
</svg>
