<svg width="32" height="32" viewBox="0 0 32 32" fill="none" xmlns="http://www.w3.org/2000/svg">
<path d="M24.0004 22.3334C23.787 22.3334 23.587 22.2667 23.4004 22.1334C22.9604 21.8001 22.867 21.1734 23.2004 20.7334C24.8804 18.4934 25.2404 15.5201 24.1604 12.9467C23.947 12.4401 24.187 11.8534 24.6937 11.6401C25.2004 11.4267 25.787 11.6667 26.0004 12.1734C27.3604 15.4001 26.8937 19.1467 24.8004 21.9467C24.6004 22.2001 24.307 22.3334 24.0004 22.3334Z" fill="#FDFDFD"/>
<path d="M26.4398 25.6667C26.2265 25.6667 26.0265 25.6 25.8398 25.4667C25.3998 25.1334 25.3065 24.5067 25.6398 24.0667C28.4932 20.2667 29.1198 15.1734 27.2798 10.7867C27.0665 10.28 27.3065 9.69335 27.8132 9.48002C28.3198 9.26669 28.9065 9.50669 29.1198 10.0134C31.2398 15.0534 30.5198 20.8934 27.2398 25.2667C27.0532 25.5334 26.7465 25.6667 26.4398 25.6667Z" fill="#FDFDFD"/>
<path d="M18.72 17.28C19.56 16.44 21 17.04 21 18.2266V22.1333C21 24.4266 20.1733 26.1466 18.6933 26.9733C18.0933 27.3066 17.4266 27.4666 16.7333 27.4666C15.6666 27.4666 14.52 27.1066 13.3466 26.3733L12.4933 25.84C11.7733 25.3866 11.6533 24.3733 12.2533 23.7733L18.72 17.28Z" fill="#FDFDFD"/>
<path d="M29.027 2.97334C28.627 2.57334 27.9737 2.57334 27.5737 2.97334L20.9737 9.57334C20.8937 7.44001 20.0937 5.84001 18.6803 5.05334C17.187 4.22667 15.2803 4.44001 13.3337 5.65334L9.45366 8.08001C9.18699 8.24001 8.88033 8.33334 8.57366 8.33334H7.33366H6.66699C3.44033 8.33334 1.66699 10.1067 1.66699 13.3333V18.6667C1.66699 21.8933 3.44033 23.6667 6.66699 23.6667H6.88033L2.96033 27.5867C2.56033 27.9867 2.56033 28.64 2.96033 29.04C3.17366 29.2267 3.42699 29.3333 3.69366 29.3333C3.96033 29.3333 4.21366 29.2267 4.41366 29.0267L29.027 4.41334C29.4403 4.01334 29.4403 3.37334 29.027 2.97334Z" fill="#FDFDFD"/>
</svg>
